<?xml version="1.0" encoding="utf-8"?>
<!-- Generator: Adobe Illustrator 21.0.0, SVG Export Plug-In . SVG Version: 6.00 Build 0)  -->
<svg version="1.1" id="Capa_1" xmlns="http://www.w3.org/2000/svg" xmlns:xlink="http://www.w3.org/1999/xlink" x="0px" y="0px"
	 viewBox="0 0 968.3 668.4" style="enable-background:new 0 0 968.3 668.4;" xml:space="preserve">
<style type="text/css">
	.st0{fill:#494949;}
	.st1{fill:#494949;stroke:#494949;stroke-width:0.25;stroke-miterlimit:10;}
	.st2{fill:#B28619;}
</style>
<title>logo2</title>
<path class="st0" d="M48.4,579.5V544H7v35.5H0v-75.8h7v34h41.4v-34h7v75.8H48.4z"/>
<path class="st0" d="M95.1,579.5h-7v-75.8h7V579.5z"/>
<path class="st0" d="M127.9,579.5v-75.8h7v69.4h30.5v6.4H127.9z"/>
<path class="st0" d="M243.4,579.5l-8.4-22.4h-32.5l-8.1,22.4h-7.8l28.9-75.8h7.1l28.7,75.8H243.4z M220.3,517
	c-0.2-0.7-0.5-1.4-0.8-2.3c-0.3-1-0.5-2-0.7-3h-0.2c-0.2,1-0.4,2-0.7,3c-0.3,0.9-0.5,1.7-0.8,2.3l-12.3,33.7h27.8L220.3,517z"/>
<path class="st0" d="M328.1,579.5L286,518.7c-0.5-0.8-1-1.6-1.6-2.4c-0.5-0.8-0.9-1.6-1.2-2.4h-0.3c0.1,0.7,0.1,1.5,0.2,2.7
	c0.1,1.1,0.1,2.5,0.1,4.2v58.8h-7v-75.8h7.8l41.3,60.1c0.7,1,1.2,1.8,1.7,2.7s0.9,1.6,1.4,2.3h0.3c-0.1-1.2-0.3-2.5-0.3-3.9
	c-0.1-1.4-0.1-3-0.1-4.8v-56.4h7.1v75.8H328.1z"/>
<path class="st0" d="M368.1,579.5v-75.8H388c13,0,22.8,3.1,29.4,9.3c6.6,6.2,9.9,15.4,9.9,27.6c0.1,5.5-0.9,10.9-2.8,16
	c-1.7,4.6-4.5,8.8-8,12.3c-3.6,3.5-8,6.2-12.7,7.9c-5.4,1.9-11.1,2.9-16.8,2.8L368.1,579.5z M375.1,510.1v63h11.6
	c4.8,0.1,9.5-0.6,14-2.1c3.9-1.3,7.5-3.4,10.5-6.2c2.9-2.8,5.2-6.3,6.5-10.1c1.6-4.4,2.3-9.1,2.3-13.9c0-20.4-10.8-30.7-32.4-30.7
	L375.1,510.1z"/>
<path class="st0" d="M486.4,580.8c-5.1,0.1-10.1-0.9-14.8-3c-4.2-1.9-8-4.7-11.1-8.2c-3.1-3.6-5.5-7.7-7-12.2
	c-1.7-4.8-2.5-9.9-2.5-15c-0.1-5.5,0.8-11,2.5-16.3c1.5-4.7,3.9-9,7.2-12.6c3.2-3.5,7.1-6.3,11.5-8.2c4.9-2,10.2-3,15.5-2.9
	c5-0.1,9.9,0.9,14.4,2.9c4.2,1.9,7.9,4.6,10.9,8c3.1,3.5,5.4,7.6,6.9,12.1c1.6,4.9,2.5,10,2.4,15.2c0,5.4-0.7,10.8-2.3,16
	c-1.4,4.7-3.8,9-6.9,12.8c-3.1,3.6-6.9,6.5-11.3,8.5C497,579.9,491.7,581,486.4,580.8z M487,508.9c-4.2-0.1-8.4,0.8-12.2,2.6
	c-3.5,1.7-6.6,4.1-9,7.1c-2.5,3.1-4.3,6.7-5.5,10.5c-1.3,4.1-1.9,8.4-1.9,12.8c-0.1,4.2,0.5,8.3,1.7,12.3c1.1,3.8,2.8,7.3,5.2,10.4
	c2.3,3,5.3,5.5,8.8,7.2c3.8,1.9,8.1,2.8,12.3,2.7c4.3,0.1,8.6-0.7,12.5-2.4c3.5-1.6,6.6-3.9,9-6.8c2.5-3.1,4.3-6.6,5.4-10.4
	c1.3-4.3,1.9-8.7,1.8-13.2c0-4.3-0.5-8.5-1.6-12.6c-1-3.8-2.7-7.3-5-10.5c-2.3-3-5.3-5.4-8.7-7.1C495.7,509.6,491.4,508.7,487,508.9
	L487,508.9z"/>
<path class="st0" d="M634.2,579.5l-8.4-22.4h-32.5l-8.1,22.4h-7.9l28.9-75.8h7.1l28.7,75.8H634.2z M611.1,517
	c-0.2-0.7-0.5-1.4-0.8-2.3c-0.3-1-0.5-2-0.7-3h-0.2c-0.2,1-0.4,2-0.7,3c-0.3,0.9-0.5,1.7-0.8,2.3l-12.3,33.7h27.8L611.1,517z"/>
<path class="st0" d="M667,579.5v-75.8h7v69.4h30.5v6.4H667z"/>
<path class="st0" d="M761.8,568.4c1.3,1,2.7,1.8,4.2,2.6c1.5,0.8,3.1,1.4,4.7,1.9c1.6,0.5,3.2,0.9,4.8,1.2c1.5,0.3,3.1,0.4,4.7,0.4
	c5.7,0,10-1.1,12.9-3.3c2.9-2.2,4.3-5.4,4.3-9.6c0-1.8-0.3-3.6-1-5.3c-0.7-1.6-1.8-3-3.1-4.2c-1.6-1.5-3.4-2.8-5.3-3.9
	c-2.2-1.3-4.7-2.7-7.6-4.4c-3.2-1.8-6-3.4-8.3-5c-2.1-1.4-4-3-5.7-4.8c-1.4-1.5-2.5-3.3-3.2-5.3c-0.7-2.1-1-4.3-1-6.5
	c0-2.9,0.7-5.7,2-8.3c1.3-2.4,3.1-4.5,5.3-6.2c2.3-1.8,5-3.1,7.8-3.9c3.1-0.9,6.3-1.4,9.6-1.4c5.1-0.2,10.2,0.7,15,2.5v7.8
	c-4.8-2.7-10.3-4-15.8-3.9c-2.2,0-4.3,0.3-6.4,0.8c-1.9,0.5-3.7,1.3-5.3,2.4c-1.5,1-2.7,2.4-3.5,3.9c-0.9,1.7-1.3,3.6-1.3,5.5
	c0,1.7,0.3,3.5,0.9,5.1c0.7,1.5,1.6,2.9,2.8,4c1.5,1.5,3.2,2.7,5.1,3.8c2.1,1.3,4.7,2.7,7.7,4.3c2.9,1.5,5.6,3.1,8.3,4.9
	c2.2,1.4,4.1,3.1,5.9,5c1.5,1.6,2.7,3.5,3.5,5.6c0.8,2.1,1.2,4.3,1.2,6.5c0.1,3-0.6,6-1.8,8.8c-1.2,2.5-3,4.6-5.2,6.3
	c-2.4,1.7-5.1,3-7.9,3.8c-4.7,1.3-9.6,1.6-14.4,1c-1.7-0.2-3.3-0.5-5-0.8c-1.6-0.4-3.3-0.8-4.8-1.3c-1.3-0.4-2.6-1-3.7-1.7
	L761.8,568.4z"/>
<path class="st0" d="M887,549c0,21.2-9.3,31.8-27.9,31.8c-17.7,0-26.6-10.2-26.6-30.6v-46.5h7v45.9c0,8.3,1.7,14.5,5,18.7
	s8.5,6.2,15.6,6.2c13.3,0,19.9-8,19.9-24.1v-46.6h7L887,549z"/>
<path class="st0" d="M960.1,579.5l-11.4-21.7c-1-1.9-2.1-3.7-3.3-5.4c-0.9-1.3-2-2.5-3.3-3.5c-1.1-0.8-2.3-1.5-3.6-1.8
	c-1.4-0.4-2.9-0.6-4.3-0.6h-8.4v33h-7v-75.8h21.8c2.8,0,5.6,0.4,8.3,1.3c2.6,0.8,5,2.1,7.1,3.8c2.1,1.7,3.8,3.8,5,6.2
	c1.3,2.7,1.9,5.7,1.9,8.7c0,2.5-0.4,5-1.2,7.4c-0.8,2.2-1.9,4.2-3.5,6c-1.5,1.8-3.4,3.3-5.4,4.4c-2.3,1.3-4.7,2.2-7.2,2.7v0.2
	c1,0.4,1.9,1,2.8,1.6c0.9,0.7,1.7,1.5,2.5,2.4c0.9,1,1.6,2.1,2.3,3.3c0.8,1.2,1.6,2.6,2.4,4.2l12.7,23.5H960.1z M925.8,510.1v30
	h12.6c2.4,0,4.7-0.3,7-1.1c2-0.7,3.9-1.8,5.4-3.2c1.5-1.4,2.7-3.1,3.5-5c0.9-2.1,1.3-4.3,1.2-6.6c0-4.4-1.4-7.9-4.3-10.4
	c-2.8-2.5-6.9-3.8-12.3-3.8L925.8,510.1z"/>
<path class="st1" d="M182.9,667.6c-0.9,0.4-1.9,0.7-2.9,0.7c-3.3,0-5-1.9-5-5.7v-13h-3.6v-2.2h3.6v-5.2l2.6-0.8v6h5.3v2.2h-5.3v12.6
	c-0.1,1,0.2,2.1,0.7,3c0.6,0.7,1.4,1,2.3,0.9c0.8,0,1.6-0.3,2.3-0.7L182.9,667.6z"/>
<path class="st1" d="M201.1,658c0,1.1,0.2,2.3,0.5,3.4c0.3,0.9,0.8,1.8,1.4,2.6c0.6,0.7,1.3,1.2,2.2,1.6c0.9,0.4,1.9,0.6,2.9,0.6
	c2.4,0,4.7-0.9,6.5-2.4v2.5c-2.1,1.4-4.6,2.2-7.1,2.1c-1.3,0-2.6-0.2-3.8-0.7c-1.1-0.5-2.1-1.2-2.9-2.1c-0.8-1-1.4-2.1-1.8-3.4
	c-0.4-1.5-0.7-3-0.6-4.6c0-1.5,0.2-2.9,0.7-4.3c0.4-1.2,1.1-2.4,1.9-3.4c0.8-0.9,1.8-1.7,3-2.2c1.2-0.5,2.4-0.8,3.7-0.8
	c1.2,0,2.4,0.2,3.5,0.7c1,0.5,1.9,1.1,2.5,2c0.7,0.9,1.3,2,1.6,3.1c0.4,1.3,0.6,2.7,0.5,4.1v1.3H201.1z M213.3,655.8
	c0.1-1.8-0.5-3.6-1.5-5c-1-1.2-2.5-1.8-4.1-1.8c-0.8,0-1.7,0.1-2.4,0.5c-0.8,0.3-1.4,0.8-2,1.3c-0.6,0.6-1.1,1.3-1.4,2.1
	c-0.4,0.9-0.6,1.8-0.8,2.8L213.3,655.8z"/>
<path class="st1" d="M241.4,657.7l6.7,10.1H245l-4.2-6.8l-0.5-0.8c-0.2-0.3-0.3-0.6-0.5-0.9h-0.1c-0.1,0.1-0.2,0.3-0.3,0.5l-0.5,0.8
	l-4.5,7.1h-3l6.9-10l-6.7-10.5h3l4.3,7.2l0.6,1l0.4,0.7h0.1c0.2-0.3,0.3-0.5,0.5-0.8l0.5-0.8l4.5-7.3h2.9L241.4,657.7z"/>
<path class="st1" d="M274.2,667.6c-0.9,0.4-1.9,0.7-2.9,0.7c-3.3,0-5-1.9-5-5.7v-13h-3.6v-2.2h3.7v-5.2l2.6-0.8v6h5.3v2.2h-5.3v12.6
	c-0.1,1,0.2,2.1,0.7,3c0.6,0.7,1.4,1,2.3,0.9c0.8,0,1.6-0.3,2.3-0.7L274.2,667.6z"/>
<path class="st1" d="M292.8,642.1c-0.5,0-0.9-0.2-1.3-0.5c-0.4-0.3-0.6-0.8-0.5-1.3c0-0.5,0.2-1,0.5-1.3c0.3-0.3,0.8-0.5,1.3-0.5
	c0.2,0,0.5,0,0.7,0.1c0.2,0.1,0.4,0.2,0.6,0.4c0.2,0.2,0.3,0.4,0.4,0.6c0.1,0.2,0.2,0.5,0.2,0.7c0,0.2,0,0.5-0.1,0.7
	c-0.1,0.2-0.2,0.4-0.4,0.6c-0.2,0.2-0.4,0.3-0.6,0.4C293.3,642.1,293,642.1,292.8,642.1z M291.5,667.8v-20.5h2.6v20.5H291.5z"/>
<path class="st1" d="M313.8,667.8v-30.4h2.6v30.4H313.8z"/>
<path class="st1" d="M337.4,658c0,1.1,0.2,2.3,0.5,3.4c0.3,0.9,0.8,1.8,1.4,2.6c0.6,0.7,1.3,1.2,2.2,1.6c0.9,0.4,1.9,0.6,2.9,0.6
	c2.4,0,4.7-0.9,6.5-2.4v2.5c-2.1,1.4-4.6,2.2-7.1,2.1c-1.3,0-2.6-0.2-3.8-0.7c-1.1-0.5-2.1-1.2-2.9-2.1c-0.8-1-1.4-2.1-1.8-3.4
	c-0.4-1.5-0.7-3-0.6-4.6c0-1.5,0.2-2.9,0.7-4.3c0.4-1.2,1.1-2.4,1.9-3.4c0.8-0.9,1.8-1.7,3-2.2c1.2-0.5,2.4-0.8,3.7-0.8
	c1.2,0,2.4,0.2,3.5,0.7c1,0.5,1.9,1.1,2.6,2c0.7,0.9,1.3,2,1.6,3.1c0.4,1.3,0.6,2.7,0.5,4.1v1.3H337.4z M349.5,655.8
	c0.1-1.8-0.5-3.6-1.5-5c-1-1.2-2.5-1.8-4.1-1.8c-0.8,0-1.6,0.1-2.4,0.5c-0.8,0.3-1.4,0.8-2,1.3c-0.6,0.6-1.1,1.3-1.4,2.1
	c-0.4,0.9-0.6,1.8-0.8,2.8L349.5,655.8z"/>
<path class="st1" d="M369.2,664.1c0.4,0.3,0.8,0.6,1.3,0.8c0.5,0.2,0.9,0.4,1.4,0.6c0.5,0.2,1,0.3,1.5,0.4c0.5,0.1,0.9,0.1,1.4,0.1
	c3,0,4.6-1.1,4.6-3.4c0-0.5-0.1-0.9-0.3-1.3c-0.2-0.4-0.6-0.7-0.9-1c-0.4-0.3-0.9-0.6-1.4-0.9c-0.6-0.3-1.2-0.6-1.9-0.8
	c-0.8-0.3-1.7-0.7-2.4-1.2c-0.6-0.4-1.2-0.8-1.7-1.3c-0.4-0.4-0.8-1-1-1.6c-0.2-0.6-0.3-1.3-0.3-1.9c0-0.8,0.2-1.7,0.6-2.4
	c0.4-0.7,0.9-1.3,1.6-1.8c0.7-0.5,1.5-0.9,2.3-1.1c0.9-0.3,1.8-0.4,2.8-0.4c1.6,0,3.2,0.3,4.7,1v2.7c-1.5-1-3.2-1.5-5-1.5
	c-0.6,0-1.2,0.1-1.8,0.2c-0.5,0.1-0.9,0.4-1.3,0.7c-0.4,0.3-0.7,0.6-0.9,1.1c-0.2,0.4-0.3,0.9-0.3,1.3c0,0.5,0.1,0.9,0.2,1.3
	c0.2,0.4,0.4,0.7,0.8,1c0.4,0.3,0.8,0.6,1.3,0.9c0.5,0.3,1.2,0.6,2,0.9c0.9,0.3,1.7,0.7,2.6,1.2c0.6,0.3,1.2,0.8,1.8,1.3
	c0.4,0.4,0.8,1,1,1.5c0.2,0.6,0.4,1.3,0.3,2c0,0.9-0.2,1.7-0.6,2.5c-0.4,0.7-0.9,1.3-1.6,1.8c-0.7,0.5-1.5,0.9-2.4,1.1
	c-1,0.3-2,0.4-3,0.4c-1.8,0.1-3.6-0.4-5.2-1.3L369.2,664.1z"/>
<path class="st1" d="M438.2,666.9c-1.7,1-3.6,1.5-5.5,1.4c-1.4,0-2.7-0.2-4-0.8c-1.1-0.5-2.2-1.2-3-2.2c-0.8-1-1.5-2.1-1.9-3.3
	c-0.5-1.3-0.7-2.7-0.7-4.1c0-1.5,0.2-2.9,0.7-4.3c0.4-1.3,1.1-2.5,2-3.6c0.9-1,2-1.8,3.3-2.4c1.4-0.6,2.9-0.9,4.5-0.9
	c1.6,0,3.2,0.3,4.7,1v2.7c-1.4-1-3.1-1.5-4.8-1.5c-1.1,0-2.2,0.2-3.3,0.7c-0.9,0.4-1.7,1.1-2.4,1.9c-0.7,0.8-1.2,1.8-1.5,2.8
	c-0.3,1.1-0.5,2.2-0.5,3.4c0,1.1,0.1,2.1,0.4,3.2c0.3,1,0.7,1.9,1.3,2.7c0.6,0.8,1.4,1.4,2.3,1.8c1,0.5,2.1,0.7,3.2,0.7
	c1.9,0,3.7-0.6,5.2-1.7L438.2,666.9z"/>
<path class="st1" d="M464.7,668.3c-1.4,0-2.8-0.2-4.1-0.8c-1.2-0.5-2.2-1.2-3.1-2.2c-0.9-1-1.6-2.1-2-3.3c-0.5-1.4-0.7-2.8-0.7-4.3
	c0-1.6,0.2-3.1,0.7-4.6c0.4-1.3,1.1-2.4,2-3.4c0.9-1,2-1.7,3.2-2.2c1.3-0.5,2.8-0.8,4.2-0.7c1.4,0,2.7,0.2,4,0.7
	c1.1,0.5,2.2,1.2,3,2.1c0.9,1,1.5,2.1,1.9,3.4c0.5,1.5,0.7,3,0.7,4.5c0,1.5-0.2,3-0.7,4.4c-0.4,1.3-1.1,2.4-2,3.4
	c-0.9,1-1.9,1.7-3.1,2.2C467.4,668,466,668.3,464.7,668.3z M464.9,649c-1,0-2,0.2-3,0.6c-0.9,0.4-1.7,1-2.3,1.7
	c-0.7,0.8-1.2,1.7-1.5,2.7c-0.4,1.2-0.5,2.4-0.5,3.7c0,1.2,0.2,2.3,0.5,3.5c0.3,1,0.8,1.9,1.5,2.7c0.6,0.7,1.4,1.3,2.3,1.7
	c2,0.8,4.1,0.8,6.1,0c0.9-0.4,1.6-0.9,2.2-1.7c0.6-0.8,1.1-1.7,1.4-2.7c0.3-1.2,0.5-2.4,0.5-3.6c0-2.8-0.6-4.9-1.8-6.3
	C468.8,649.7,466.9,648.9,464.9,649L464.9,649z"/>
<path class="st1" d="M506.8,667.8V656c0-4.7-1.7-7-5-7c-0.9,0-1.7,0.2-2.5,0.5c-0.8,0.3-1.4,0.8-2,1.5c-0.6,0.7-1,1.4-1.3,2.2
	c-0.3,0.9-0.5,1.8-0.5,2.8v11.7h-2.6v-20.5h2.6v3.6h0.1c1.3-2.6,4-4.1,6.9-4c2-0.1,3.9,0.7,5.1,2.2c1.3,1.8,1.9,4.1,1.8,6.3v12.5
	L506.8,667.8z"/>
<path class="st1" d="M566.8,667.8v-12.1c0.1-1.8-0.3-3.6-1.2-5.1c-0.9-1.1-2.4-1.8-3.9-1.6c-1.7,0-3.2,0.7-4.3,1.9
	c-0.6,0.7-1,1.4-1.3,2.3c-0.3,1-0.5,2-0.5,3.1v11.5H553v-30.4h2.6v13.4h0.1c1.4-2.5,4-4.1,6.9-4c2-0.1,3.9,0.6,5.2,2.1
	c1.1,1.4,1.7,3.5,1.7,6.2v12.7L566.8,667.8z"/>
<path class="st1" d="M590,658c0,1.1,0.2,2.3,0.5,3.4c0.3,0.9,0.8,1.8,1.4,2.6c0.6,0.7,1.3,1.2,2.2,1.6c0.9,0.4,1.9,0.6,2.9,0.6
	c2.4,0,4.7-0.9,6.5-2.4v2.5c-2.1,1.4-4.6,2.2-7.1,2.1c-1.3,0-2.6-0.2-3.8-0.7c-1.1-0.5-2.1-1.2-2.9-2.1c-0.8-1-1.4-2.1-1.8-3.4
	c-0.4-1.5-0.7-3-0.6-4.6c0-1.5,0.2-2.9,0.7-4.3c0.4-1.2,1.1-2.4,1.9-3.4c0.8-0.9,1.8-1.7,3-2.2c1.2-0.5,2.4-0.8,3.7-0.8
	c1.2,0,2.4,0.2,3.5,0.7c1,0.5,1.9,1.1,2.6,2c0.7,0.9,1.3,2,1.6,3.1c0.4,1.3,0.6,2.7,0.5,4.1v1.3H590z M602.1,655.8
	c0.1-1.8-0.5-3.6-1.5-5c-1-1.2-2.5-1.8-4.1-1.8c-0.8,0-1.6,0.1-2.4,0.5c-0.8,0.3-1.4,0.8-2,1.3c-0.6,0.6-1.1,1.3-1.4,2.1
	c-0.4,0.9-0.6,1.8-0.8,2.8L602.1,655.8z"/>
<path class="st1" d="M633.1,649.9c-0.7-0.5-1.5-0.7-2.3-0.7c-0.6,0-1.2,0.1-1.8,0.4c-0.5,0.3-1,0.6-1.4,1.1c-0.4,0.5-0.7,1-1,1.5
	c-0.3,0.6-0.5,1.2-0.7,1.8c-0.2,0.6-0.3,1.3-0.4,1.9c-0.1,0.6-0.1,1.2-0.1,1.8v10H623v-20.5h2.5v4.4h0.1c0.2-0.7,0.5-1.4,0.9-2
	c0.3-0.6,0.8-1.1,1.3-1.5c0.5-0.4,1-0.7,1.6-0.9c0.6-0.2,1.2-0.3,1.8-0.3c0.4,0,0.7,0,1.1,0.1c0.3,0,0.6,0.1,0.9,0.2L633.1,649.9z"
	/>
<path class="st1" d="M650.7,658c0,1.1,0.2,2.3,0.5,3.4c0.3,0.9,0.8,1.8,1.4,2.6c0.6,0.7,1.3,1.2,2.2,1.6c0.9,0.4,1.9,0.6,2.9,0.6
	c2.4,0,4.7-0.9,6.5-2.4v2.5c-2.1,1.4-4.6,2.2-7.1,2.1c-1.3,0-2.6-0.2-3.8-0.7c-1.1-0.5-2.1-1.2-2.9-2.1c-0.8-1-1.4-2.1-1.8-3.4
	c-0.4-1.5-0.7-3-0.6-4.6c0-1.5,0.2-2.9,0.7-4.3c0.4-1.2,1.1-2.4,1.9-3.4c0.8-0.9,1.8-1.7,3-2.2c1.2-0.5,2.4-0.8,3.7-0.8
	c1.2,0,2.4,0.2,3.5,0.7c1,0.5,1.9,1.1,2.6,2c0.7,0.9,1.3,2,1.6,3.1c0.4,1.3,0.6,2.7,0.5,4.1v1.3H650.7z M662.8,655.8
	c0.1-1.8-0.5-3.6-1.5-5c-1-1.2-2.5-1.8-4.1-1.8c-0.8,0-1.6,0.1-2.4,0.5c-0.8,0.3-1.4,0.8-2,1.3c-0.6,0.6-1.1,1.3-1.4,2.1
	c-0.4,0.9-0.6,1.8-0.8,2.8L662.8,655.8z"/>
<path class="st1" d="M697.5,667.8V656c0-4.7-1.7-7-5-7c-0.9,0-1.7,0.2-2.5,0.5c-0.8,0.3-1.4,0.8-2,1.5c-0.6,0.7-1,1.4-1.3,2.2
	c-0.3,0.9-0.5,1.8-0.5,2.8v11.7h-2.6v-20.5h2.6v3.6h0.1c1.3-2.6,4-4.1,6.9-4c2-0.1,3.9,0.7,5.1,2.2c1.3,1.8,1.9,4.1,1.8,6.3v12.5
	L697.5,667.8z"/>
<path class="st1" d="M733,666.9c-1.7,1-3.6,1.5-5.5,1.4c-1.4,0-2.7-0.2-4-0.8c-1.1-0.5-2.2-1.2-3-2.2c-0.8-1-1.5-2.1-1.9-3.3
	c-0.5-1.3-0.7-2.7-0.7-4.1c0-1.5,0.2-2.9,0.7-4.3c0.4-1.3,1.1-2.5,2-3.6c0.9-1,2-1.8,3.3-2.4c1.4-0.6,2.9-0.9,4.5-0.9
	c1.6,0,3.2,0.3,4.7,1v2.7c-1.4-1-3.1-1.5-4.8-1.5c-1.1,0-2.2,0.2-3.3,0.7c-0.9,0.4-1.7,1.1-2.4,1.9c-0.7,0.8-1.2,1.8-1.5,2.8
	c-0.3,1.1-0.5,2.2-0.5,3.4c0,1.1,0.1,2.1,0.4,3.2c0.3,1,0.7,1.9,1.3,2.7c0.6,0.8,1.4,1.4,2.3,1.8c1,0.5,2.1,0.7,3.2,0.7
	c1.9,0,3.7-0.6,5.2-1.7L733,666.9z"/>
<path class="st1" d="M752.3,642.1c-0.5,0-0.9-0.2-1.3-0.5c-0.4-0.3-0.6-0.8-0.5-1.3c0-0.5,0.2-1,0.5-1.3c0.3-0.3,0.8-0.5,1.3-0.5
	c0.2,0,0.5,0,0.7,0.1c0.2,0.1,0.4,0.2,0.6,0.4c0.2,0.2,0.3,0.4,0.4,0.6c0.1,0.2,0.2,0.5,0.2,0.7c0,0.2,0,0.5-0.1,0.7
	c-0.1,0.2-0.2,0.4-0.4,0.6c-0.2,0.2-0.4,0.3-0.6,0.4C752.8,642.1,752.6,642.1,752.3,642.1z M751,667.8v-20.5h2.6v20.5H751z"/>
<path class="st1" d="M785.2,667.8v-3.7h-0.1c-0.6,1.2-1.6,2.3-2.7,3c-1.2,0.7-2.5,1.1-3.9,1.1c-0.9,0-1.8-0.1-2.7-0.4
	c-0.7-0.3-1.4-0.7-2-1.2c-0.6-0.5-1-1.1-1.3-1.8c-0.3-0.8-0.5-1.6-0.4-2.4c-0.1-1.7,0.5-3.3,1.7-4.4c1.5-1.2,3.3-2,5.2-2.2l6.2-0.9
	c0-3.9-1.5-5.9-4.6-5.9c-2.5,0-4.8,1-6.7,2.6v-2.8c0.5-0.3,0.9-0.6,1.4-0.8c0.6-0.3,1.1-0.5,1.7-0.6c0.6-0.2,1.2-0.3,1.8-0.4
	c0.6-0.1,1.2-0.1,1.8-0.2c1.9-0.1,3.8,0.6,5.2,1.9c1.2,1.3,1.8,3.2,1.8,5.7v13.3L785.2,667.8z M779.9,657.8
	c-0.8,0.1-1.6,0.3-2.4,0.5c-0.6,0.2-1.1,0.4-1.6,0.8c-0.4,0.3-0.7,0.8-0.9,1.3c-0.2,0.6-0.3,1.2-0.3,1.8c0,0.5,0.1,1,0.3,1.5
	c0.2,0.5,0.5,0.9,0.8,1.2c0.4,0.4,0.8,0.6,1.3,0.8c0.6,0.2,1.2,0.3,1.8,0.3c1.7,0,3.3-0.7,4.5-2c0.6-0.6,1-1.4,1.3-2.2
	c0.3-0.9,0.5-1.8,0.5-2.8v-2L779.9,657.8z"/>
<path class="st2" d="M618,199.3c0-72.2-58.7-130.9-130.9-130.9s-130.9,58.7-130.9,130.9s58.7,130.9,130.9,130.9S618,271.5,618,199.3
	z M583.6,283.3c-4,4.6-8.4,9-13.1,13v-14C574.8,282.8,579.2,283.1,583.6,283.3L583.6,283.3z M599.2,261c-3.8,6.8-8.2,13.3-13.1,19.4
	c-5.2-0.1-10.4-0.5-15.5-1.1v-21.4C580,259.9,589.6,260.9,599.2,261z M404.5,281.3V297c-5.2-4.4-10-9.2-14.4-14.3
	C394.9,282.5,399.7,282,404.5,281.3z M404.5,261.4v16.9c-5.6,0.8-11.2,1.3-16.8,1.4c-5-6.2-9.4-12.8-13.2-19.8
	c7.2,1.1,14.5,1.7,21.8,1.7C398.8,261.7,401.6,261.6,404.5,261.4z M519.8,220.6c-4.8-0.3-9.7-0.3-14.5,0c-5.6,0.3-11.2,1-16.7,2
	v-16.1c7-1.9,14.2-3.3,21.4-4.3h9.8V220.6z M505.4,223.5c4.8-0.3,9.6-0.3,14.3,0v20.3c-6.9-1-13.8-1.5-20.7-1.6h-2.4
	c-2.6,0-5.3,0.2-8.1,0.4v-17.1C494.1,224.5,499.8,223.8,505.4,223.5L505.4,223.5z M488.6,245.6c2.9-0.2,5.6-0.4,8.2-0.4l0,0
	c7.7-0.1,15.4,0.4,23,1.6v6c0,7-0.8,8.8-1.1,9.3c-1.3,1.9-3.8,2.9-7.6,2.9h-8.7c-4.6-0.6-9.2-0.9-13.8-1L488.6,245.6z M501.6,267.9
	h9.5c0.8,0,1.7-0.1,2.5-0.2c3.5-0.4,6-1.8,7.5-4c0.7-1.1,1.6-3.3,1.6-11v-52c0-0.8-0.7-1.5-1.5-1.5h-68.5c-0.6,0-1.2,0.4-1.4,1
	c0,0.1-0.1,0.3-0.1,0.4v52.9c0,7.4,0.8,9.5,1.5,10.4c1.5,1.8,3.6,3.1,5.9,3.5c1.3,0.3,2.7,0.4,4,0.4H473v4.7h-61.1v-4.7h10.8
	c2.1,0.1,4.2-0.5,6-1.6c1.6-1.1,2.8-2.7,3.4-4.5c0.4-1.7,0.6-3.4,0.5-5.1c0-0.6,0-1.3,0-2s0-1.3,0-2V144.6c0-6-0.7-9.8-2.2-11.5
	l-0.3-0.3c-0.3-0.3-0.5-0.5-0.8-0.7c-0.3-0.2-0.7-0.4-1-0.5c-2.3-0.9-4.7-1.3-7.2-1.2h-9.2v-4.7H473v4.7h-10.3
	c-4.6,0-7.6,0.9-9.2,2.7s-2.2,5.5-2.2,11.5v46.2c0,0.8,0.7,1.5,1.5,1.5c0,0,0,0,0,0h68.5c0.8,0,1.5-0.7,1.5-1.5c0,0,0,0,0,0v-46.2
	c0-6.4-0.7-10-2.1-11.7s-4.6-2.5-9.5-2.5h-9.5v-4.7h60.7v4.7h-10.2c-3.2,0-5.5,0.4-6.9,1.3c-0.9,0.6-1.6,1.3-2.2,2.2
	c-0.2,0.3-0.4,0.6-0.5,0.9s-0.3,0.6-0.5,1c-0.1,0.2-0.1,0.3-0.2,0.5c-0.3,0.9-0.7,2.8-0.7,9.5v107.8c0,7.4,0.9,9.4,1.6,10.3
	c2,2.7,5.7,4,10.8,4h8.9v4.7h-60.7V267.9z M480.2,227.2v16.4c-8.7,1.3-17.4,3.1-26,5.2v-15.1l6.8-1.8
	C467.2,230.3,473.7,228.6,480.2,227.2L480.2,227.2z M480.2,224.2c-6.9,1.5-13.8,3.3-20,5l-6,1.6v-15c7-1.6,13.9-3.6,20-5.3l5.9-1.7
	L480.2,224.2z M480.2,205.7l-6.7,1.9c-5.9,1.7-12.5,3.5-19.3,5.1v-10.5h26L480.2,205.7z M470.8,310.3c3,0.3,6.2,0.7,9.5,1.2v15.6
	c-18.2-0.9-36-5.8-52.2-14.3C444,310,458,309.1,470.8,310.3L470.8,310.3z M555.1,251.2l0.3-0.1c2.2-0.7,4.5-1.3,6.8-1.5v3.4
	L555.1,251.2z M411.7,298.4l0.4-0.1c21.8-5.4,44.3-11,67.3-9.7l0.8,0v19.9c-3.2-0.5-6.2-0.9-9.2-1.2c-13.9-1.3-29.3-0.2-47,3.3
	c-4.2-2.4-8.3-5.1-12.3-8L411.7,298.4z M603.8,238.1c-4.7,9.1-15.2,13.5-25,10.4c1.1-0.8,2.3-1.7,3.5-2.7c4.7-3.9,7.2-7,7.6-9.3
	c0.1-0.6,0-1.3-0.3-1.8c-0.1-0.2-0.3-0.4-0.5-0.6c-1-1-3-1.5-5.8-1.3c-1.7,0.1-3.5,0.4-5.2,0.8c-2.7,0.6-5,1.3-6.1,1.7
	c-0.3-1.2-0.6-2.3-1-3.3c-0.3-0.8-0.6-1.5-0.9-2.3c-1.1-2.4-2.5-3.6-3.9-3.6c-1.3,0.1-2.4,0.9-3.1,2c-0.4,0.6-0.7,1.2-1,1.8
	c-0.7,1.7-1.4,3.4-1.8,5.2c-2.7-0.9-12.9-4-16.5-1.5v-37l0.6-0.1c2.3-0.3,4.5,0.2,6.5,1.3h0.1l0.1,0c0.3,0.2,0.6,0.4,0.9,0.6
	c0.9,0.8,1.6,1.9,2,3.1c0.2,0.6,0.4,1.3,0.4,1.9c0,0.3,0.1,0.6,0.1,0.9c0,0.7,0,1.4,0,2.1c-0.1,0.8,0.5,1.5,1.3,1.6c0,0,0,0,0,0h0.1
	c0.8,0,1.4-0.6,1.5-1.3c0.1-1,0.1-1.9,0-2.9c-0.1-0.7-0.2-1.4-0.3-2.1c-0.5-2.4-1.8-4.5-3.8-5.9c1.4-7,8.2-11.7,15.2-10.3
	c5.6,1.1,9.8,5.7,10.4,11.3c0.1,0.8,0.8,1.4,1.6,1.3c0.2,0,0.4-0.1,0.6-0.2c4.9-3,11.4-1.5,14.4,3.5c1.2,1.9,1.7,4.1,1.5,6.4
	c-3.3-1.5-10.7-4.1-18.4-1.5c-1,0.3-2,0.8-3,1.3l-0.2,0.1l-0.3,0.2c-0.7,0.4-1,1.3-0.6,2c0.4,0.7,1.3,1,2,0.6l0,0
	c0.5-0.3,1-0.5,1.5-0.7c0.3-0.1,0.7-0.3,1-0.4c1.3-0.4,2.6-0.8,3.9-0.9c4.3-0.4,8.7,0.3,12.6,2.1c1,0.5,1.7,0.8,1.8,0.8
	c0.5,0.3,1,0.8,1.6,1.3c0.9,0.8,1.7,1.6,2.5,2.5c3.4,4.1,5.1,9.4,4.8,14.7c-0.1,2.3-0.7,4.5-1.5,6.6
	C604.4,236.9,604.1,237.5,603.8,238.1z M429.7,257.8c0,1-0.1,2.1-0.3,3.1c-0.4,1.2-1.2,2.3-2.3,3c-1.3,0.8-2.8,1.1-4.3,1.1h-11v-4.2
	c4.6-0.5,9.2-1.2,13.6-2.1C426.8,258.4,428.2,258.1,429.7,257.8z M378.4,215c1.2-2.1,2.8-3.9,4.7-5.3c0.5-0.4,0.7-1,0.5-1.6
	c-1.2-4.3,1.3-8.8,5.6-10.1c0.4-0.1,0.8-0.2,1.2-0.2c1.8-0.2,3.6,0.2,5.1,1.1l0.1,0c0.4,0.2,0.7,0.4,0.9,0.7c0.9,1,1.5,2.3,1.6,3.7
	c0.1,0.7,0.1,1.4,0,2.2c-0.1,0.8,0.5,1.5,1.3,1.6c0,0,0,0,0,0h0.1c0.8,0,1.4-0.6,1.5-1.3c0.4-5.4-2-7.9-3.3-8.9
	c1.1-5.5,6.5-9,12-7.9c4.3,0.9,7.6,4.5,8.1,8.9c0.1,0.8,0.8,1.4,1.6,1.3c0.2,0,0.4-0.1,0.6-0.2c1.5-0.9,3.4-1.3,5.2-1.1
	c1.6,0.2,3.1,0.8,4.4,1.9v5.4c-4.9-1.6-10.1-1.2-14.7,1.2c-0.7,0.4-1,1.3-0.6,2c0.4,0.7,1.3,1,2,0.6c0.5-0.3,1-0.5,1.6-0.7
	c3.8-1.4,7.9-1.3,11.7,0.1v30.2c-1.8,0.8-3.7,1.3-5.7,1.3c-1.6,0.1-3.2-0.1-4.8-0.5l-0.5-0.1c0.4-0.3,0.9-0.7,1.3-1
	c1.1-0.9,2.2-1.8,3.1-2.7c3.6-3.4,4.8-5.8,3.9-7.5c-1.8-3.5-11.2-0.7-14.2,0.2c-1.3-4.8-2.8-7.2-4.9-7.2s-3.6,2.3-4.9,7.2
	c-4.8-1.5-12.4-3.4-14-0.2c-0.9,1.8,0.3,4.2,3.9,7.5c1,1,2.2,2,3.4,2.9l1,0.8c-0.3,0.1-0.7,0.2-1.1,0.3c-1.2,0.2-2.4,0.4-3.6,0.3
	c-2.2,0-4.3-0.5-6.3-1.3c-1.5-0.6-2.9-1.5-4.1-2.5C376.1,230.8,374.4,222,378.4,215L378.4,215z M424.2,242.7
	c1.9-0.1,3.8-0.5,5.6-1.1v11.2c0,0.7,0,1.4,0,2c-1.7,0.4-3.3,0.7-5,1.1l0,0c-4.2,0.9-8.6,1.5-13,2v-17.2h1.3c1.3,0.2,2.5,0.6,3.8,1
	C419.2,242.5,421.7,242.9,424.2,242.7L424.2,242.7z M429.7,144.7v44.7c-15.3-12.8-17.4-35.6-4.6-50.9c1-1.2,2.1-2.3,3.2-3.4
	C428.9,135.9,429.7,138.2,429.7,144.7L429.7,144.7z M514.9,186.5c1.7-1.6,3.3-3.3,4.8-5.1v8h-8.1
	C512.8,188.4,513.9,187.4,514.9,186.5L514.9,186.5z M498.7,124.3v7.6c0,0.8,0.7,1.5,1.5,1.5c0,0,0,0,0,0h10.9c5.2,0,6.8,1,7.3,1.5
	s1.4,2.4,1.4,9.8v25.8c-6.2-1.9-19.9,1.7-26.3,4c-1.7-7.2-4.7-15.5-9-15.5s-7.3,8.2-9.2,15.4c-5.2-1.8-14.5-4.3-21-4.5v-25.2
	c0-6.8,1-9,1.5-9.6s2.2-1.7,6.9-1.7h11.8c0.8,0,1.5-0.7,1.5-1.5c0,0,0,0,0,0v-7.6c0-0.8-0.7-1.5-1.5-1.5l0,0h-5.7
	c0-9.9-5.1-14-7.1-15.2c2-12.4,13.6-20.9,26-18.9c10.2,1.6,18,9.9,19.1,20.1c0.1,0.8,0.8,1.4,1.6,1.3c0.2,0,0.4-0.1,0.6-0.2
	c3.5-2.1,7.6-3.1,11.7-2.6c8.3,1,14.9,7.3,16.3,15.5h-36.8C499.4,122.8,498.7,123.5,498.7,124.3L498.7,124.3L498.7,124.3z
	 M477,177.6c0.4-0.2,0.7-0.6,0.8-1c2.6-10.8,5.4-14.8,6.7-14.8s4.1,4,6.5,14.9c0.2,0.8,1,1.3,1.8,1.1c0.1,0,0.2,0,0.2-0.1
	c8-3.3,23.7-6.5,26.8-4.2v2.6c-1.8,3.7-7.9,9.4-12.7,13.2H462c-2.7-2.2-5.3-4.5-7.8-7v-9.6c6.3,0.2,16,2.6,21.5,4.8
	C476.2,177.7,476.6,177.7,477,177.6L477,177.6z M431.7,122.9v-0.2c1.7-10.1,11.3-16.9,21.4-15.2c2.2,0.4,4.3,1.1,6.2,2.3h0.1
	c0.3,0.2,0.6,0.3,0.9,0.5c1.6,1.1,5.4,4.6,5.4,12.5L431.7,122.9z M466.3,123.2L466.3,123.2z M457.5,189.4h-3.2v-2.8
	C455.2,187.4,456.3,188.4,457.5,189.4L457.5,189.4z M544,184.8v-38.9c0-2.4,0.1-4.7,0.3-7.1C555.2,152.2,555.1,171.5,544,184.8
	L544,184.8z M544,252.1c1.1,0.2,2.2,0.3,3.3,0.3h0.4l6.3,1.5c2.7,0.7,5.4,1.3,8.2,2v9h-8.8c-4.2,0-7-1-8.5-2.9c-0.2-0.2-1-1.6-1-8.5
	L544,252.1z M548,249.5h-0.6c-1.1,0-2.3-0.1-3.4-0.3v-10c1.1,1.6,2.4,3.1,3.9,4.4c1.9,1.8,3.9,3.4,6.1,5
	C552,249.1,550,249.5,548,249.5L548,249.5z M401.1,238.1L401.1,238.1l-0.6-0.3c-2-1.3-3.9-2.8-5.6-4.4c-2.7-2.5-3.2-3.8-3.3-4.1
	c1-0.5,7.1,0.2,11.8,2.1c0.7,0.3,1.6,0,1.9-0.8c0-0.1,0.1-0.2,0.1-0.2c1-4.2,2.1-6,2.5-6.4c0.4,0.5,1.5,2.2,2.4,6.5
	c0.2,0.8,1,1.3,1.8,1.1c0.1,0,0.2,0,0.2-0.1c4.8-2,11.2-2.7,12-2.2c-0.1,0.3-0.5,1.5-3.3,4.1c-1.7,1.6-3.5,3-5.4,4.3
	c-0.3,0.2-0.5,0.3-0.7,0.4h-0.1c-0.6-0.1-1.1-0.3-1.8-0.4c-3.6-0.6-7.2-0.6-10.7,0.1C402.1,237.9,401.6,238,401.1,238.1z
	 M411.7,277.1v-1.6h7.2l-3.8,0.9C414,276.6,412.9,276.9,411.7,277.1L411.7,277.1z M411.7,295.4v-15.3c1.3-0.3,2.7-0.5,4-0.8
	c5-1.1,10.1-2.4,15.1-3.6l0.6-0.2h43c0.8,0,1.5-0.6,1.5-1.4c0,0,0,0,0-0.1v-6.8c1.6-0.1,3-0.2,4.3-0.3v18.7h-0.6
	C456.3,284.4,433.7,289.9,411.7,295.4L411.7,295.4z M462.7,265c-3.6,0-6.2-0.9-7.5-2.8c-0.2-0.2-0.9-1.6-0.9-8.6v-1.8
	c8.6-2.2,17.3-4,26-5.3V264c-3.6,0.2-7.3,0.5-11.2,0.9L462.7,265z M363.8,210.9c1.8,0.6,3.7,1.3,5.6,1.9s3.9,1.2,6,1.8
	c-1.4,2.8-2.1,6-2,9.2c0.1,4.1,1.5,8,4,11.2c-3.3-0.7-6.5-1.4-9.5-2.3c-1.7-0.5-3.4-1-4.9-1.5c-1.8-7.1-3-14.4-3.6-21.8
	C360.9,209.9,362.3,210.4,363.8,210.9z M367.2,235.5c4.6,1.3,9.2,2.3,13.9,3.2c3.3,2.6,7.4,4.1,11.6,4.1c2.3,0,4.5-0.3,6.7-1.1
	c1.1-0.4,2.3-0.7,3.4-0.9h1.7v17.7c-10.6,0.6-21.3,0-31.7-1.8c-3.6-7.1-6.5-14.5-8.7-22.2C365.1,234.8,366.1,235.2,367.2,235.5
	L367.2,235.5z M549.8,241.5c-3.7-3.4-4.3-5.2-4.2-5.5c0.5-1,8.9-0.1,15.2,2.5c0.7,0.3,1.6,0,1.9-0.8c0-0.1,0.1-0.2,0.1-0.2
	c0.5-2.3,1.2-4.4,2.2-6.5c0.3-0.6,0.6-1.1,1-1.6c0.1-0.1,0.2-0.2,0.2-0.2c0.2,0.1,0.4,0.3,0.5,0.5c0.5,0.7,0.8,1.4,1.1,2.2
	c0.7,1.9,1.3,3.8,1.7,5.7c0.2,0.8,1,1.3,1.8,1.1c0.1,0,0.2,0,0.2-0.1c3.8-1.5,7.7-2.4,11.7-2.8c2.8-0.3,3.7,0.1,3.8,0.4
	c0,0.8-1.5,3.3-6.6,7.5c-1.6,1.4-3.4,2.6-5.2,3.7l-0.2,0.1c-5.7-1.4-11.7-1.4-17.4,0l-0.2-0.1C554.7,245.6,552.2,243.7,549.8,241.5
	L549.8,241.5z M570.5,249.6c2.3,0.3,4.6,0.8,6.8,1.5c11.4,3.9,24-1.3,29.4-12.1l2.1,0.1c-2.1,6.6-4.8,12.9-8,19
	c-10.2,0-20.3-1.1-30.2-3.3L570.5,249.6z M609.1,229.9c0.3-4.9-0.9-9.7-3.4-13.8c2.8,0.5,5.5,1,8.1,1.3c-0.9,6.4-2.3,12.7-4.2,18.9
	l-1.8-0.1C608.6,234.1,609,232,609.1,229.9L609.1,229.9z M599.9,209.4c1.4-7.3-3.4-14.3-10.7-15.7c-2.6-0.5-5.2-0.2-7.6,0.8
	c-2-8.6-10.5-13.9-19.1-11.9c-5.9,1.4-10.5,5.9-11.9,11.8c-2.1-0.8-4.3-1.1-6.5-0.8h-0.2v-4.4c14.5-14.7,15.2-38.2,1.4-53.6
	c0.4-0.6,0.8-1,1.4-1.4c0.5-0.3,1.9-0.9,5.3-0.9h11.6c0.8,0,1.5-0.7,1.5-1.5c0,0,0,0,0,0v-7.6c0-0.8-0.7-1.5-1.5-1.5l0,0h-23.8
	c-1.6-11.8-12.5-20-24.2-18.4c-2.2,0.3-4.3,0.9-6.3,1.9c-2.6-13.9-16.1-23.1-30-20.5c-10.3,2-18.4,10-20.4,20.3
	c-10.8-4.9-23.5-0.1-28.4,10.8c-0.8,1.7-1.3,3.4-1.6,5.2c0,0.2-0.1,0.5-0.1,0.7h-18.4c-0.8,0-1.5,0.7-1.5,1.5v7.6
	c0,0.8,0.7,1.5,1.5,1.5h10.7c1.5,0,2.9,0.1,4.4,0.4c-15.4,15.2-15.6,39.9-0.5,55.4c0.2,0.2,0.4,0.4,0.6,0.6c1.3,1.3,2.7,2.4,4.1,3.5
	v2.9c-2.8-1.6-6.2-1.8-9.2-0.7c-1.9-7-9-11.2-16-9.3c-4.5,1.2-8,4.7-9.3,9.2c-5.8-2.1-12.1,0.9-14.1,6.7c-0.7,1.8-0.8,3.8-0.5,5.8
	c-1.4,1.2-2.7,2.5-3.7,4c-2.5-0.7-4.6-1.3-6.6-1.9s-3.8-1.3-5.6-1.9c-1.5-0.5-3.4-1.2-5.4-1.8c-0.1-2.4-0.2-4.7-0.2-6.9
	C359,128.6,416.3,71.2,487,71.1S615,128.3,615.1,199c0,5.1-0.3,10.2-0.9,15.3c-3.7-0.4-7.4-1-11.1-1.9
	C602.1,211.3,601.1,210.3,599.9,209.4L599.9,209.4z M408.8,240.5v60l-1.4-1.1v-58.9H408.8z M488.6,203.4v-1.2h5.1
	C492,202.6,490.3,203,488.6,203.4L488.6,203.4z M488.6,289.4c12.1,1.5,23.9,4.7,35.3,7.7c8.5,2.2,17.2,4.6,26.1,6.2
	c3,0.6,6.3,1.1,9.6,1.5c-9.7,6.7-20.3,12-31.5,15.8c-5.5-1.3-10.8-2.8-16.7-4.5c-7.3-2.1-14.9-4.2-22.8-5.9V289.4z M488.6,266.9
	c3.2,0.1,6.6,0.3,10.1,0.6v6.5c0,0.8,0.7,1.5,1.5,1.5c0,0,0,0,0,0h38.4c6.4,1.6,13.7,3.5,20.9,4.9c0.9,0.2,1.8,0.4,2.7,0.5v21.2
	c-4-0.4-7.9-1-11.8-1.7c-8.8-1.7-17.5-4-25.9-6.2c-11.6-3.1-23.6-6.2-36-7.8L488.6,266.9z M488.6,313.2c7.6,1.7,14.9,3.8,22,5.8
	c4.1,1.2,8.1,2.3,12.1,3.4c-11.1,3.2-22.6,4.9-34.1,5V313.2z M562.2,275.5v2.5l-2.1-0.4c-3.2-0.7-6.4-1.4-9.2-2L562.2,275.5z
	 M483.2,327.3v-125h2.5v125.1L483.2,327.3z M565.2,266v-16.3h2.5v49.1c-0.8,0.7-1.7,1.3-2.5,2v-26.2c0.1-0.2,0.1-0.3,0.1-0.5v-7.6
	C565.2,266.3,565.2,266.1,565.2,266L565.2,266z"/>
<path class="st2" d="M487.1,36.4c-90,0-163,72.9-163,163c0,90,72.9,163,163,163s163-72.9,163-163c0-43.2-17.2-84.7-47.8-115.3
	C571.8,53.4,530.3,36.2,487.1,36.4z M647.1,199.4c0,88.2-71.8,160-160,160s-160-71.8-160-160s71.8-160,160-160
	S647.1,111.1,647.1,199.4L647.1,199.4z"/>
<polygon class="st2" points="365.6,144.5 355.8,139.5 361.1,129 370.9,133.9 372.3,131.1 350.5,120.1 349.1,122.9 358.5,127.7 
	353.1,138.2 343.8,133.4 342.3,136.3 364.1,147.3 "/>
<rect x="367.2" y="102.7" transform="matrix(0.5817 -0.8134 0.8134 0.5817 60.7795 348.0078)" class="st2" width="3.2" height="24.5"/>
<polygon class="st2" points="394.1,103.8 391.9,101.7 385.5,108.7 369.7,94.1 367.6,96.4 385.5,113 "/>
<path class="st2" d="M400.8,97.6l-2.2-7l7.5-5.7l6.3,4l2.8-2.1L393,73l-2.3,1.7l7.4,25.1L400.8,97.6z M403.4,83.2l-5.7,4.3l-3.1-9.9
	l0,0l0,0L403.4,83.2z"/>
<path class="st2" d="M423.7,82l-8-16.9l-0.1-0.3l20,11.5l2.7-1.3l-10.6-22l-2.9,1.4l7.7,16.2l0.4,0.8l0,0L413.2,60l-2.8,1.3
	l10.5,22.1L423.7,82z"/>
<path class="st2" d="M453.2,70.6L453.2,70.6c1.8-0.4,3.5-1.1,5-2.1c1.4-0.9,2.5-2.1,3.4-3.4c0.9-1.4,1.4-2.9,1.6-4.5
	c0.2-1.7,0.1-3.5-0.3-5.2c-0.9-3.8-2.7-6.4-5.2-7.9s-5.9-1.7-9.9-0.7l-6.4,1.6l5.7,23.8L453.2,70.6z M448.3,49.7
	c6.2-1.5,10,0.6,11.4,6.5c0.3,1.4,0.5,2.8,0.3,4.1c-0.1,1.2-0.5,2.3-1.2,3.3c-0.7,1-1.5,1.8-2.5,2.5c-1.2,0.7-2.5,1.3-3.9,1.6
	l-3,0.7l-4.3-18L448.3,49.7L448.3,49.7z"/>
<path class="st2" d="M475.1,63.4c1,1.1,2.3,2,3.7,2.6c1.4,0.6,2.9,0.9,4.5,0.9h0.3c1.7,0,3.4-0.4,5-1.1c1.4-0.7,2.6-1.6,3.6-2.8
	c1-1.2,1.7-2.7,2.1-4.2c0.5-1.7,0.7-3.4,0.6-5.1c0-1.7-0.3-3.3-0.9-4.8c-0.5-1.4-1.3-2.7-2.3-3.9c-1-1.1-2.2-1.9-3.6-2.5
	c-1.5-0.6-3.1-0.9-4.7-0.8c-1.7,0-3.4,0.4-5,1.1c-1.4,0.6-2.7,1.6-3.7,2.7c-1,1.2-1.8,2.6-2.2,4.1c-0.5,1.7-0.7,3.4-0.7,5.2
	c0,1.6,0.3,3.3,0.9,4.8C473.3,60.9,474.1,62.2,475.1,63.4z M479.9,63.1c-1-0.5-1.9-1.1-2.6-2c-0.7-0.9-1.2-1.9-1.6-3
	c-0.4-1.2-0.6-2.4-0.6-3.7c0-1.3,0.1-2.6,0.5-3.8c0.3-1.1,0.8-2.2,1.5-3.1c0.7-0.9,1.6-1.6,2.6-2.1c1.1-0.5,2.3-0.8,3.5-0.8
	c1.3-0.1,2.5,0.2,3.7,0.7c1,0.5,1.9,1.1,2.6,2c0.7,0.9,1.2,1.9,1.5,3c0.4,1.2,0.5,2.5,0.6,3.8c0,1.3-0.1,2.7-0.5,3.9
	c-0.3,1.1-0.8,2.2-1.5,3.1c-0.7,0.9-1.6,1.5-2.5,2c-1.1,0.5-2.4,0.8-3.6,0.8C482.3,63.9,481,63.6,479.9,63.1L479.9,63.1z"/>
<path class="st2" d="M521.9,63.8l9,2.7l0.5,7.4l3.3,1l-1.9-25.7v-0.3l-2.8-0.8l-15.9,20.8l3.3,1L521.9,63.8z M523.8,61.3l6.2-8.4
	l0,0l0,0l0.7,10.4L523.8,61.3z"/>
<polygon class="st2" points="553.5,80.7 545.1,76.5 554.6,57.3 551.8,55.9 540.9,77.8 552.2,83.4 "/>
<path class="st2" d="M570.4,95.4c0.3,0.5,0.6,0.9,0.9,1.3c0.3,0.4,0.7,0.9,1,1.3c0.3,0.4,0.6,0.7,1,1c0.8,0.7,1.7,1.4,2.7,1.8
	c0.9,0.4,1.8,0.7,2.8,0.8h0.5c0.8,0,1.5-0.2,2.3-0.5c0.9-0.4,1.7-1,2.4-1.8c0.5-0.6,0.9-1.2,1.2-1.9c0.2-0.7,0.4-1.4,0.3-2.2
	c0-0.8-0.1-1.7-0.4-2.5c-0.3-1-0.6-1.9-0.9-2.9c-0.4-1-0.7-1.8-0.9-2.5c-0.2-0.6-0.3-1.2-0.4-1.8c0-0.4,0-0.9,0.2-1.3
	c0.2-0.4,0.4-0.9,0.7-1.2c0.3-0.4,0.7-0.7,1.2-0.9c0.4-0.2,0.9-0.2,1.4-0.2c0.5,0.1,1.1,0.2,1.5,0.5c0.6,0.3,1.1,0.6,1.5,1
	c1.2,1,2.2,2.4,2.7,3.9l0.3,0.8l2.4-2.7l-0.2-0.3c-0.8-1.5-1.8-2.7-3.1-3.8c-0.8-0.7-1.7-1.3-2.6-1.7c-0.9-0.4-1.8-0.6-2.8-0.7
	c-0.9-0.1-1.8,0.1-2.7,0.4c-0.9,0.3-1.7,0.9-2.3,1.6c-0.5,0.6-0.9,1.2-1.2,1.9c-0.3,0.7-0.4,1.4-0.4,2.1c0,0.8,0.1,1.6,0.3,2.4
	c0.2,0.9,0.5,1.8,0.9,2.9s0.6,1.8,0.9,2.5c0.2,0.6,0.4,1.2,0.4,1.9c0.1,1-0.2,2-0.8,2.7c-0.6,0.8-1.6,1.2-2.5,1.2
	c-1.3-0.2-2.5-0.8-3.4-1.7c-0.3-0.3-0.7-0.6-0.9-1c-0.3-0.4-0.6-0.8-0.8-1.2c-0.3-0.4-0.5-0.9-0.7-1.3c-0.2-0.4-0.3-0.9-0.4-1.4
	l-0.2-1l-2.5,2.9l0.1,0.3C570,94.6,570.2,95,570.4,95.4z"/>
<path class="st2" d="M588.3,110.2c-0.4,2.2,0.3,4.5,2.1,6.7c2,2.5,4.2,3.8,6.7,3.8c2.2,0,4.6-1,7.1-3l11.4-9l-2-2.5l-11.7,9.3
	c-3.7,2.9-6.6,2.9-9-0.1c-1.2-1.2-1.7-2.9-1.4-4.5c0.3-1.5,1.5-3,3.4-4.5l11.5-9.1l-2-2.5l-11.7,9.2
	C590.2,105.9,588.7,108,588.3,110.2z"/>
<path class="st2" d="M602.6,134.3l9-4.7l1,1.8c0.2,0.4,0.3,0.7,0.4,1.1c0.1,0.4,0.1,0.7,0,1.1c-0.1,0.4-0.2,0.9-0.4,1.3
	c-0.3,0.6-0.6,1.1-1,1.6l-4.5,6.5l1.7,3.3l5.1-7.5c0.3-0.5,0.6-0.9,0.8-1.3c0.2-0.4,0.4-0.8,0.6-1.2c0.2-0.4,0.3-0.7,0.3-1.1
	c0.3,0.3,0.7,0.6,1.1,0.9c0.7,0.4,1.4,0.7,2.2,0.9c0.8,0.2,1.5,0.2,2.3,0.1c0.8-0.1,1.6-0.4,2.4-0.8c0.9-0.4,1.7-1.1,2.3-1.9
	c0.5-0.7,0.9-1.6,1.1-2.5c0.2-0.9,0.2-1.8,0-2.7c-0.2-0.9-0.5-1.8-0.9-2.6l-3.4-6.4l-21.7,11.3L602.6,134.3z M621.6,124.4l1.7,3.2
	c0.7,1.1,0.9,2.3,0.7,3.6c-0.3,1-1,1.9-2,2.3c-0.6,0.3-1.2,0.5-1.8,0.5c-0.6,0-1.1,0-1.7-0.2c-0.5-0.2-1-0.5-1.5-0.9
	c-0.5-0.5-0.9-1-1.2-1.6l-1.6-3L621.6,124.4z"/>
<circle class="st2" cx="345.5" cy="169" r="2.9"/>
<circle class="st2" cx="629.9" cy="168.8" r="2.8"/>
<path class="st2" d="M349.1,62.2c0.2-0.4,0.4-0.7,0.6-1.1c0.2-0.4,0.3-0.8,0.5-1.2s0.2-0.7,0.3-1L360,69l2.1-2l-12.4-13.1l-1,1v0.2
	c0,0.4-0.1,0.8-0.2,1.2c-0.1,0.5-0.2,0.9-0.4,1.4s-0.3,0.9-0.5,1.4c-0.2,0.4-0.4,0.8-0.6,1.2l-0.2,0.3l2,2.1L349.1,62.2z"/>
<path class="st2" d="M360.1,52.1c0.6,1.2,1.3,2.3,2.2,3.3c0.7,1,1.6,1.8,2.5,2.6c0.8,0.6,1.6,1.1,2.6,1.5c0.6,0.2,1.2,0.3,1.8,0.3
	c0.3,0,0.5,0,0.8-0.1c0.9-0.1,1.7-0.5,2.3-1.1c0.7-0.6,1.3-1.3,1.6-2.1c0.3-0.8,0.5-1.8,0.4-2.6c-0.1-1-0.4-2.1-0.9-3
	c-0.6-1.2-1.3-2.2-2.1-3.2c-1.3-1.9-3.1-3.4-5.2-4.4c-1.7-0.6-3.5-0.3-4.9,0.9c-0.7,0.6-1.3,1.3-1.7,2.1c-0.3,0.8-0.5,1.8-0.3,2.7
	C359.3,50.1,359.6,51.2,360.1,52.1z M362.7,46.4c0.4-0.3,0.8-0.5,1.3-0.5c1.3,0,3.1,1.3,5.1,3.8c2.6,3.3,3.2,5.6,1.7,6.8
	c-0.7,0.6-1.8,0.7-2.6,0.2c-1.4-0.8-2.7-1.9-3.6-3.3C361.8,50.1,361.2,47.7,362.7,46.4z"/>
<path class="st2" d="M375.3,45.4c0.7,1,1.4,2,2.3,2.8c0.7,0.7,1.5,1.3,2.4,1.7c0.7,0.3,1.4,0.5,2.2,0.5h0.3c0.9-0.1,1.7-0.4,2.4-0.9
	c0.8-0.5,1.4-1.2,1.8-2c0.4-0.8,0.6-1.7,0.6-2.6c0-1-0.2-2-0.6-3c-0.5-1.2-1.1-2.3-1.8-3.4c-3.3-5-6.6-6.5-9.8-4.4
	c-0.8,0.5-1.4,1.2-1.9,2c-0.4,0.8-0.6,1.7-0.6,2.6c0.1,1.1,0.3,2.1,0.7,3.1C373.9,43.1,374.6,44.3,375.3,45.4z M376.6,36.4
	c1.6-1,3.6,0.3,6,3.9s2.7,5.9,1.1,6.9s-3.7-0.1-5.9-3.5C375.3,40,374.9,37.5,376.6,36.4L376.6,36.4z"/>
<polygon class="st2" points="397.5,41.7 399.3,20.7 396.8,22 395,43 "/>
<path class="st2" d="M389.6,34.8c0.4,0.2,0.9,0.2,1.3,0.3c0.7,0,1.4-0.2,2-0.5c1.1-0.5,1.9-1.5,2.2-2.7c0.3-1.3,0.1-2.6-0.5-3.7
	c-0.5-1.1-1.4-2-2.6-2.5c-1.1-0.4-2.3-0.3-3.4,0.3c-1.1,0.5-2,1.5-2.3,2.7c-0.3,1.3-0.1,2.6,0.6,3.7
	C387.5,33.5,388.5,34.4,389.6,34.8z M388.8,29.2c0.1-0.5,0.4-1,0.9-1.2c0.4-0.3,1-0.3,1.4-0.1c0.6,0.3,1,0.8,1.3,1.4
	c0.4,0.6,0.5,1.3,0.4,2c-0.1,0.5-0.4,0.9-0.9,1.1c-0.4,0.3-1,0.3-1.4,0.1c-0.6-0.3-1-0.8-1.3-1.4C388.9,30.6,388.7,29.9,388.8,29.2
	L388.8,29.2z"/>
<path class="st2" d="M399.8,35.4c0.5,1.1,1.4,2,2.6,2.4l0,0c0.4,0.2,0.9,0.2,1.3,0.3c0.7,0,1.4-0.2,2-0.5c1.1-0.5,1.9-1.5,2.2-2.7
	c0.5-2.5-0.8-5.1-3.1-6.2c-1.1-0.4-2.3-0.3-3.4,0.3c-1.1,0.5-1.9,1.5-2.3,2.7C398.9,32.9,399.1,34.3,399.8,35.4z M401.5,32.2
	L401.5,32.2c0.1-0.5,0.4-1,0.9-1.2c0.2-0.1,0.5-0.2,0.8-0.2c0.2,0,0.4,0,0.6,0.1c0.6,0.3,1,0.8,1.3,1.4c0.4,0.6,0.5,1.3,0.4,2
	c-0.1,0.5-0.4,0.9-0.9,1.1c-0.4,0.3-1,0.3-1.4,0.1c-0.6-0.3-1-0.8-1.3-1.4C401.6,33.6,401.4,32.9,401.5,32.2L401.5,32.2z"/>
<path class="st2" d="M424.1,24.6l6-2l3.1,3.9l3.1-1l-11.9-14.6l-2.6,0.8l-1,18.9l3.1-1L424.1,24.6z M428.4,20.4l-4.1,1.3l0.2-6.3
	L428.4,20.4z"/>
<polygon class="st2" points="449.8,22.5 449.1,19.8 442.6,21.3 439.3,6.8 436.4,7.4 440.4,24.6 "/>
<path class="st2" d="M454.3,19.4c1.4,1.1,3.2,1.7,5,1.7c0.5,0,1,0,1.4-0.1c2-0.3,3.9-1,5.5-2.3l0.2-0.2l-1.2-8.3l-6.5,0.9l0.4,2.7
	l3.6-0.5l0.5,3.8c-0.8,0.5-1.8,0.9-2.8,1c-1.5,0.3-3.1-0.1-4.3-1.1c-2.4-2.4-2.9-6.2-1.2-9.2c0.9-1.3,2.3-2.2,3.9-2.3
	c1.6-0.3,3.2-0.1,4.6,0.6l0.8,0.4L464,3.3l-0.3-0.1c-1.6-0.4-3.2-0.5-4.8-0.3c-2.4,0.3-4.7,1.5-6.1,3.5c-1.5,2-2.1,4.5-1.6,7
	C451.4,15.8,452.5,17.9,454.3,19.4z"/>
<path class="st2" d="M479.3,19.5h0.3c2.3,0,4.5-1,6.1-2.7c1.5-1.9,2.3-4.4,2.1-6.8c0-2.3-0.8-4.6-2.4-6.3c-1.6-1.6-3.8-2.5-6-2.3
	c-2.4,0-4.6,1-6.2,2.7c-1.5,1.9-2.3,4.3-2.1,6.8c0,2.3,0.9,4.6,2.5,6.3C475,18.7,477.1,19.6,479.3,19.5z M475.7,15.1
	c-2.1-2.7-2.1-6.4-0.2-9.3c0.9-1.2,2.3-1.9,3.8-1.9c1.5-0.1,2.9,0.4,3.9,1.5c1.1,1.3,1.6,3,1.5,4.7c0.2,1.7-0.3,3.4-1.3,4.7
	c-1,1.1-2.4,1.8-3.9,1.7C478.1,16.8,476.7,16.2,475.7,15.1L475.7,15.1z"/>
<path class="st2" d="M499.1,19.6c2.2,0.1,4.3-0.6,6-2c1.9-1.6,3-3.9,3.1-6.3c0.5-5.7-2.4-8.8-8.6-9.3l-5.1-0.4l-1.4,17.6l4.9,0.4
	C498.4,19.6,498.7,19.6,499.1,19.6z M499.3,4.8c1.7,0,3.4,0.7,4.6,1.8c1,1.3,1.4,2.9,1.2,4.5c0,1.7-0.7,3.3-2,4.5
	c-1.4,1-3.1,1.5-4.9,1.2l-2-0.2l1-12.1L499.3,4.8z"/>
<path class="st2" d="M519.5,22.7c0.6,0.1,1.3,0.2,1.9,0.2c1.7,0,3.3-0.5,4.6-1.5c1.9-1.5,3.2-3.8,3.5-6.2c0.5-2.3,0.2-4.7-1-6.7
	c-1.2-1.9-3.1-3.2-5.3-3.6c-2.3-0.6-4.7-0.1-6.6,1.3c-1.9,1.5-3.2,3.7-3.5,6.2c-0.5,2.3-0.2,4.7,1,6.7
	C515.2,21,517.2,22.3,519.5,22.7z M522.5,7.5c1.5,0.2,2.7,1.1,3.5,2.3c0.7,1.5,0.9,3.3,0.5,5c-0.2,1.7-1,3.2-2.3,4.3
	c-1.2,0.9-2.7,1.2-4.2,0.8c-1.4-0.2-2.7-1.1-3.4-2.4c-1.4-3.1-0.7-6.8,1.8-9.1C519.6,7.6,521.1,7.2,522.5,7.5L522.5,7.5z"/>
<polygon class="st2" points="527.9,0.6 524.7,0 520.6,4.1 523.2,4.6 "/>
<path class="st2" d="M539.3,14.2L539.3,14.2l0.1-0.3l4.1,14.7l3,1l5.3-16.8l-2.8-0.9l-3.6,11.7l-0.2,0.5l-4-14.6l-3.2-1l-5.3,16.8
	l2.8,0.9L539.3,14.2z"/>
<path class="st2" d="M566.5,31.3l1.5,0.8c1.5,0.9,3.3,1.1,5,0.6c1.5-0.4,2.8-1.5,3.5-3c0.7-1.3,0.9-2.9,0.3-4.3
	c-0.7-1.5-1.9-2.6-3.4-3.3l-4.5-2.3l-7.8,15.8l2.6,1.3L566.5,31.3z M571.9,24.4c0.9,0.3,1.6,1,2,1.8c0.3,0.7,0.2,1.6-0.2,2.2
	c-0.3,0.8-1,1.4-1.8,1.6c-1,0.2-2,0-2.8-0.5l-1.4-0.7l2.6-5.2L571.9,24.4z"/>
<rect x="572" y="34.3" transform="matrix(0.5101 -0.8601 0.8601 0.5101 253.823 517.0906)" class="st2" width="17.6" height="2.9"/>
<path class="st2" d="M585.9,49.5l6.8-9.5l0.1-0.2l-2.6,12.7l1.3,0.9l11.1-6.5l-0.1,0.1l-6.8,9.5l2.4,1.7l10.3-14.3l-2.7-1.9
	l-11.2,6.5l-0.8,0.5c0.1-0.3,0.1-0.6,0.2-0.9l2.7-12.7l-2.8-2l-10.3,14.3L585.9,49.5z"/>
<path class="st2" d="M603.6,63l4.4-2.3l4.7,4.3l-1.8,4.6l2.4,2.2l6.8-17.6l-2-1.8l-16.8,8.5L603.6,63z M616.2,56.4l-2.4,5.8
	l-3.2-2.9L616.2,56.4z"/>
<path class="st2" d="M710.5,228.4c-0.3-0.3-0.7-0.5-1.1-0.5c-2.2,0-4.4,0.4-6.5,1c-4.8,1.4-9.1,4-12.5,7.6c-2.5,2.9-4.7,6.1-6.3,9.6
	c1.6-8.4,2.6-16.9,3-25.4c1.7-0.2,3.4-0.6,5-1.1c4.6-1.5,8.6-4.5,11.3-8.4c3.3-4.7,4.4-10.8,5.1-16.2c0.2-2,0.4-4.1,0.4-6.2
	c0-0.7,0-1.3-0.1-2l-0.1-0.7c-0.1-0.8-0.9-1.4-1.7-1.3c0,0-0.1,0-0.1,0c-2,0.4-4,1.2-5.8,2.2c-4.2,2.2-7.8,5.5-10.3,9.5
	c-1.5,2.4-2.6,4.9-3.4,7.6l-0.2,0.7c-0.2-8.1-0.9-16.3-2.2-24.3c1.4-0.5,2.7-1.1,4-1.8c4-2.3,7.2-5.9,9-10.1c2-5.2,2-11.6,1.7-16
	c-0.1-2-0.4-4-0.8-6c-0.3-1.3-0.6-2.1-0.7-2.3c-0.1-0.4-0.4-0.7-0.8-0.9c-0.4-0.2-0.8-0.2-1.2,0c-1.8,0.8-3.6,1.9-5.1,3.2
	c-3.5,2.9-6.2,6.6-7.8,10.8c-0.8,2.1-1.3,4.3-1.6,6.5c-1.8-7.5-4.1-14.9-6.9-22.2c1-0.7,2-1.4,2.9-2.2c3.4-2.9,5.6-6.8,6.3-11.1
	c0.9-5.3-0.3-11.2-1.4-15.2c-0.6-2.6-1.7-5.2-3.1-7.5c-0.2-0.3-0.6-0.6-1-0.7c-0.4-0.1-0.8,0-1.2,0.2c-1.6,1.1-3,2.4-4.2,3.9
	c-2.7,3.3-4.5,7.3-5.2,11.5c-0.2,1.6-0.4,3.1-0.3,4.7c-1.5-3-3-6-4.6-8.9c0-1.6-0.2-3.1-0.4-4.6c-0.7-5-2.4-9.7-5.1-13.9
	c-3-3.9-6.8-7.2-11-9.7c-1.9-1.1-3.9-2-6-2.7c-0.8-0.3-1.7,0.2-1.9,1c-0.1,0.2-0.1,0.4-0.1,0.6c0.2,2.2,0.6,4.4,1.1,6.5
	c1.1,4.6,3,8.9,5.8,12.6c2.6,3.9,5.9,7.3,9.8,10c1.8,1.3,3.7,2.4,5.7,3.4c1.3,2.4,2.5,4.8,3.7,7.2c-1.2-0.9-2.5-1.8-3.8-2.5
	c-3.8-1.9-8.1-2.4-12.2-1.5c-1.9,0.3-3.7,0.9-5.4,1.8c-0.1,0.1-0.2,0.2-0.3,0.3c-1,0.9-0.4,1.7,0.5,2.9l0.1,0.1l3,4.1
	c2.7,3.6,6.2,6.5,10.2,8.6c3.2,1.6,6.8,2.5,10.4,2.6c0.5,0,1,0,1.5,0c1.1,0,2.1-0.1,3.2-0.3c2.6,6.7,4.7,13.6,6.5,20.6
	c-1.1-1.3-2.3-2.5-3.7-3.6c-3.5-2.7-7.7-4.1-12.1-4h-0.3c-1.9,0-3.9,0.2-5.8,0.7c-0.8,0.2-1.3,1.1-1,1.9c0,0,0,0.1,0,0.1
	c0,0.1,0.3,0.8,0.8,1.8c0.1,0.3,0.3,0.7,0.4,1l0,0.1c0.3,0.8,0.8,2,1.5,3.2c2.1,4.2,5,7.9,8.6,10.8c3.3,2.7,7.3,4.5,11.5,5.2
	c1.1,0.2,2.3,0.3,3.5,0.4c1.1,6.9,1.8,13.9,2.1,20.9c-0.9-1.7-2-3.2-3.2-4.7c-3-3.4-7.1-5.8-11.5-6.7c-2-0.4-4.1-0.6-6.2-0.5
	c-0.8,0.1-1.5,0.8-1.4,1.6c0,0.1,0,0.2,0,0.2l0.1,0.6c0.1,0.4,0.2,0.8,0.3,1.3c0.3,1.7,0.6,3.3,1.1,4.9c1.3,4.7,3.5,9,6.5,12.9
	c2.8,3.5,6.5,6.2,10.7,7.8c1.2,0.5,2.3,0.8,3.5,1.1c-0.4,6.8-1.1,13.5-2.2,20.2c-0.6-1.9-1.4-3.8-2.4-5.6c-2.4-4.1-6.1-7.3-10.5-9.2
	c-2-0.9-4-1.5-6.2-1.8c-0.4-0.1-0.8,0.1-1.1,0.3c-0.3,0.2-0.5,0.6-0.6,1c-0.2,2.4-0.2,4.9,0,7.3c0.5,5,1.8,9.9,3.9,14.5
	c2.2,4.2,5.4,7.7,9.4,10.2c1.1,0.7,2.2,1.3,3.4,1.9c-1.7,6.3-3.7,12.5-6,18.7c-0.2-2.1-0.7-4.2-1.3-6.3c-1.6-4.7-4.8-8.7-8.9-11.5
	c-1.8-1.3-3.8-2.3-5.9-3.1c-0.4-0.1-0.8-0.1-1.2,0.1c-0.4,0.2-0.6,0.5-0.8,0.9c-0.7,2.5-1.2,5-1.4,7.5c-0.3,2.5-0.3,4.9-0.1,7.4v0.5
	c0,2.5,0.4,5,1,7.5c1.4,4.7,4,9,7.5,12.4c0.9,0.9,1.9,1.8,3,2.6c-2.8,5.7-6,11.2-9.3,16.5c0.2-2.2,0.2-4.5-0.1-6.8
	c-0.7-5.1-3-9.8-6.6-13.5c-1.6-1.7-3.4-3.2-5.4-4.4c-0.4-0.2-0.8-0.3-1.2-0.1c-0.4,0.1-0.7,0.4-0.9,0.8c-1.2,2.4-2.2,4.8-2.9,7.3
	c-0.7,2.4-1.2,4.9-1.6,7.4c-0.6,2.8-0.8,5.6-0.6,8.5c0.5,5.1,2.2,10,5.1,14.3c0.8,1.2,1.6,2.3,2.5,3.3c-3.9,4.9-8.1,9.7-12.5,14.3
	c1-2.4,1.6-5,1.7-7.7c0.3-5.4-1.1-10.7-4-15.2c-1.3-2.1-2.8-3.9-4.6-5.6c-0.3-0.3-0.7-0.4-1.1-0.4c-0.4,0-0.8,0.2-1.1,0.5
	c-1.7,2.1-3.2,4.4-4.4,6.8c-0.9,1.8-1.8,3.6-2.5,5.5l-0.7,1.6c-1.2,2.7-2,5.5-2.4,8.5c-0.6,5.3,0.2,10.7,2.2,15.6
	c0.6,1.4,1.2,2.9,2,4.2c-5,4.2-10.2,8.2-15.5,11.9c1.9-2.6,3.3-5.5,4.1-8.7c1.4-5.4,1.1-11.1-1-16.2c-0.9-2.3-2.1-4.6-3.5-6.6
	c-0.2-0.3-0.6-0.5-1-0.6c-0.4,0-0.8,0.1-1.1,0.3c-2.1,1.8-4.1,3.8-5.9,6c-1.7,2.1-3.2,4.3-4.7,6.6c-1.8,2.5-3.2,5.2-4.2,8.1
	c-1.7,5.3-2,10.9-1,16.3c0.3,1.8,0.8,3.5,1.3,5.2c-6.2,3.4-12.6,6.5-19.1,9.2c3.3-2.5,6-5.8,7.9-9.6c2.6-5.2,3.4-11,2.3-16.7
	c-0.4-2.6-1.2-5-2.2-7.4c-0.2-0.4-0.5-0.6-0.9-0.8c-0.4-0.1-0.8-0.1-1.2,0.1c-2.5,1.4-4.9,3-7.1,4.8c-1.5,1.2-2.9,2.5-4.2,3.8
	l-0.1,0.1c-0.6,0.6-1.1,1.1-1.7,1.7c-2.3,2.2-4.2,4.6-5.8,7.3c-2.7,5-4.3,10.5-4.5,16.2c-0.1,2.2,0,4.4,0.3,6.5
	c-7.9,2.5-16,4.4-24.2,5.9c2.1-0.9,4.1-1.9,6-3c1.5-0.9,3-1.9,4.4-3c1.3-1.2,2.6-2.5,3.7-3.9c3.7-4.7,5.7-10.5,5.8-16.4
	c0.1-2.7-0.1-5.4-0.7-8c-0.1-0.4-0.4-0.7-0.7-0.9c-0.4-0.2-0.8-0.3-1.2-0.1c-2.9,0.9-5.6,2.1-8.3,3.5c-0.8,0.5-1.5,0.9-2.3,1.4
	c-4,2.3-8.6,5-12.2,9.2c-2.1,2.4-3.8,5.1-5.2,8c-1.2,2.3-2.1,4.8-2.7,7.4c-0.7,2.6-1.1,5.3-1.1,8l0,0c-13.3,1.3-26.8,1.4-40.1,0.1
	c0-2.6-0.4-5.2-1.1-7.8c-0.6-2.5-1.6-5-2.7-7.3c-1.4-2.9-3.1-5.6-5.2-8c-3.7-4.3-8.2-6.9-12.3-9.2c-0.8-0.5-1.6-0.9-2.4-1.4
	c-2.6-1.4-5.4-2.6-8.2-3.5c-0.8-0.2-1.7,0.2-1.9,1c0,0,0,0,0,0c-0.6,2.6-0.8,5.3-0.7,8c0.1,6,2.1,11.7,5.8,16.4
	c1.1,1.4,2.4,2.8,3.7,4c1.4,1.1,2.8,2.1,4.3,2.9c1.7,1,3.4,1.9,5.2,2.7c-7.9-1.4-15.7-3.4-23.4-5.8c0.3-2.1,0.4-4.3,0.3-6.4
	c-0.2-5.7-1.7-11.2-4.5-16.2c-1.6-2.7-3.6-5.2-5.8-7.3c-0.6-0.6-1.2-1.2-1.9-1.8c-1.3-1.4-2.7-2.6-4.2-3.8c-2.2-1.8-4.6-3.5-7.1-4.8
	c-0.4-0.2-0.8-0.2-1.2-0.1c-0.4,0.1-0.7,0.4-0.9,0.8c-1.1,2.4-1.8,4.9-2.2,7.4c-1.8,9.9,2.1,19.9,10,26c-6.5-2.7-12.8-5.7-18.9-9
	c0.6-1.7,1-3.4,1.3-5.2c1-5.4,0.7-11-1-16.3c-1-2.9-2.4-5.6-4.1-8.1c-1.4-2.3-3-4.5-4.7-6.6c-1.8-2.2-3.7-4.2-5.9-6
	c-0.7-0.5-1.6-0.4-2.2,0.2c0,0,0,0,0,0c-1.5,2-2.6,4.3-3.5,6.6c-2.1,5.2-2.4,10.8-1,16.2c0.8,3.2,2.2,6.1,4.2,8.8
	c-5.4-3.7-10.7-7.7-15.7-11.9c0.8-1.4,1.5-2.8,2.1-4.3c2-4.9,2.8-10.3,2.2-15.6c-0.4-2.9-1.2-5.8-2.4-8.5l-0.7-1.6
	c-0.7-1.9-1.6-3.7-2.5-5.5c-1.3-2.4-2.7-4.7-4.4-6.8c-0.3-0.3-0.6-0.5-1-0.5c-0.4,0-0.8,0.1-1.1,0.4c-1.8,1.7-3.3,3.5-4.6,5.6
	c-2.9,4.5-4.3,9.8-4,15.2c0.1,2.8,0.7,5.5,1.8,8.1c-4.5-4.6-8.8-9.5-12.8-14.5c1-1.1,1.9-2.3,2.7-3.5c2.9-4.3,4.6-9.2,5.1-14.3
	c0.2-2.8,0-5.7-0.6-8.4c-0.4-2.5-0.9-5-1.6-7.4c-0.7-2.5-1.7-5-2.9-7.3c-0.4-0.7-1.3-1-2.1-0.6c0,0,0,0,0,0c-2,1.2-3.8,2.7-5.4,4.4
	c-3.6,3.7-6,8.5-6.7,13.6c-0.3,2.4-0.3,4.9,0,7.4c-3.5-5.5-6.7-11.1-9.7-16.9c1.1-0.9,2.2-1.8,3.2-2.8c3.5-3.4,6.1-7.7,7.5-12.4
	c0.6-2.5,1-5,1-7.5v-0.5c0.2-2.5,0.2-4.9-0.1-7.4c-0.2-2.5-0.7-5.1-1.4-7.5c-0.1-0.4-0.4-0.7-0.8-0.9c-0.4-0.2-0.8-0.2-1.2-0.1
	c-2.1,0.8-4.1,1.8-5.9,3.1c-4.1,2.8-7.2,6.8-8.8,11.5c-0.8,2.3-1.2,4.7-1.4,7.1c-2.5-6.3-4.6-12.8-6.3-19.3c1.3-0.6,2.6-1.3,3.8-2.1
	c4-2.5,7.2-6.1,9.4-10.2c2.1-4.6,3.4-9.4,3.9-14.4c0.2-2.4,0.3-4.9,0-7.3c-0.1-0.8-0.8-1.5-1.7-1.4c0,0,0,0,0,0
	c-2.1,0.3-4.2,0.9-6.2,1.8c-4.4,1.8-8.1,5.1-10.5,9.2c-1.2,2.1-2.1,4.3-2.7,6.7c-1.2-7-2-14.1-2.4-21.2c1.4-0.3,2.7-0.7,4-1.2
	c4.2-1.6,7.9-4.3,10.7-7.8c3-3.8,5.2-8.2,6.5-12.9c0.5-1.6,0.8-3.3,1.1-4.9c0.1-0.4,0.1-0.8,0.3-1.3l0.1-0.5
	c0.2-0.8-0.3-1.6-1.1-1.8c-0.1,0-0.2,0-0.2,0c-2.1-0.1-4.2,0.1-6.2,0.5c-4.5,0.9-8.5,3.3-11.5,6.7c-1.5,1.7-2.7,3.7-3.7,5.7
	c0.3-7.4,1-14.7,2.1-22h0.3c1.3,0,2.5-0.2,3.8-0.4c4.2-0.7,8.2-2.5,11.5-5.2c3.6-3,6.6-6.7,8.6-10.9c0.6-1.2,1.1-2.3,1.5-3.2
	c0.2-0.4,0.3-0.8,0.5-1.1c0.5-1,0.8-1.6,0.8-1.8c0.3-0.8-0.1-1.7-0.9-2c0,0-0.1,0-0.1,0c-1.9-0.5-3.8-0.7-5.8-0.7h-0.3
	c-4.3,0-8.6,1.4-12,4c-1.7,1.4-3.2,2.9-4.5,4.7c1.8-7.4,4.1-14.6,6.8-21.7h0.2c1.2,0.2,2.4,0.4,3.6,0.4c0.5,0,1,0,1.5,0
	c3.6-0.1,7.1-1,10.3-2.6c4-2.1,7.5-5,10.2-8.6l2.9-4l0.2-0.2c0.9-1.2,1.5-2,0.5-2.9c-0.1-0.1-0.2-0.2-0.3-0.3
	c-1.7-0.8-3.6-1.4-5.4-1.8c-4.1-0.9-8.4-0.4-12.2,1.5c-1.8,0.9-3.5,2-5,3.4c1.3-2.7,2.7-5.4,4.1-8h0.1c0.2,0,0.4-0.1,0.6-0.1
	c2-1,3.9-2.1,5.7-3.4c3.9-2.7,7.2-6,9.8-9.9c2.8-3.8,4.8-8.1,5.8-12.7c0.6-2.1,0.9-4.3,1.1-6.5c0.1-0.8-0.6-1.6-1.4-1.6
	c-0.2,0-0.4,0-0.6,0.1c-2.1,0.7-4.1,1.6-6,2.7c-4.3,2.4-8.1,5.7-11.2,9.6c-2.7,4.2-4.4,9-5.1,13.9c-0.2,1.1-0.3,2.2-0.4,3.3
	l-0.1,0.2c-1.6,2.9-3.2,5.8-4.6,8.8c-0.1-5.4-2.1-10.7-5.5-14.9c-1.2-1.5-2.6-2.8-4.2-3.9c-0.7-0.5-1.7-0.3-2.1,0.4c0,0,0,0,0,0
	c-1.4,2.3-2.4,4.9-3,7.5c-1.1,4-2.3,9.9-1.4,15.2c0.7,4.3,3,8.3,6.3,11.2c0.8,0.7,1.6,1.3,2.4,1.9c-2.6,6.9-4.8,14-6.6,21.1
	c-0.3-1.7-0.8-3.4-1.4-5.1c-1.6-4.2-4.3-7.9-7.8-10.8c-1.5-1.3-3.2-2.4-5.1-3.2c-0.8-0.3-1.7,0.1-2,0.9c0,0,0,0,0,0.1
	c0,0-0.3,0.9-0.7,2.3c-0.4,2-0.7,4-0.8,6c-0.3,4.4-0.3,10.8,1.7,16c1.8,4.3,5,7.8,9,10.1c1.1,0.6,2.3,1.2,3.5,1.7
	c-1.2,7.6-1.9,15.3-2.1,23c-0.8-2.4-1.8-4.7-3.1-6.8c-2.5-4-6.1-7.3-10.3-9.5c-1.8-1-3.8-1.7-5.8-2.2c-0.4-0.1-0.8,0-1.2,0.3
	c-0.3,0.3-0.6,0.6-0.6,1l-0.1,0.6c-0.1,0.7-0.1,1.3-0.1,2c0,2.1,0.2,4.2,0.4,6.2c0.7,5.3,1.8,11.4,5.1,16.1c2.8,4,6.8,6.9,11.3,8.4
	c1.5,0.5,3,0.8,4.5,1c0.4,8.1,1.4,16.1,2.8,24c-1.5-3-3.4-5.7-5.6-8.2c-3.4-3.6-7.7-6.2-12.5-7.6c-2.1-0.6-4.3-1-6.5-1
	c-0.8,0-1.5,0.7-1.5,1.6c0,0.1,0,0.1,0,0.2c0.5,3,1.2,6.1,2.2,9c1.8,5.4,4.1,11.5,8.7,15.5c3.6,3.5,8.3,5.6,13.3,6.2
	c1.2,0.1,2.4,0.2,3.5,0.2c0.8,0,1.5-0.1,1.9-0.1c2.2,8.2,4.9,16.3,8.2,24.1c-0.8-1-1.6-1.8-2.4-2.7c-1.9-2.3-4-4.4-6.5-6.2
	c-4.2-3-9.1-4.8-14.3-5.2c-2.3-0.2-4.6-0.1-6.9,0.3c-0.8,0.2-1.3,1-1.2,1.8c0,0.1,0,0.1,0,0.2c1.1,3,2.5,6,4,8.8
	c1.4,2.7,3.1,5.2,4.9,7.6c2.1,2.5,4.6,4.7,7.3,6.5c3.9,2.5,8.6,3.8,13.3,3.7c0.5,0,1,0,1.5-0.1c2.1-0.2,4.2-0.6,6.2-1.3
	c4.1,8,8.7,15.8,13.9,23.1c-1.5-1.3-3.1-2.6-4.7-3.7c-0.6-0.4-1.2-0.8-1.8-1.2l-0.2-0.1c-1.9-1.4-3.9-2.6-6-3.5
	c-4.9-2.2-10.2-3-15.5-2.3c-2.4,0.2-4.8,0.8-7,1.7c-0.8,0.3-1.1,1.2-0.8,2c0,0.1,0.1,0.1,0.1,0.2c1.8,2.9,3.8,5.6,5.9,8.2
	c2,2.5,4.2,4.8,6.6,6.8c2.7,2.1,5.7,3.8,8.9,5c5,2,10.6,2.2,15.8,0.6c2.3-0.6,4.4-1.6,6.4-2.9l0.1-0.1c5,6.2,10.3,12,15.9,17.6
	c1,1,2.1,2.1,3.3,3.1c-5.1-3-10.5-5.4-16.3-7c-5.4-1.2-11.1-1-16.4,0.7c-2.4,0.7-4.6,1.8-6.7,3.2c-0.7,0.5-0.9,1.4-0.4,2.1
	c0,0.1,0.1,0.1,0.1,0.1c2.4,2.6,5,5,7.8,7.2l0.6,0.5c2.4,2,4.9,3.7,7.7,5.1c3.2,1.6,6.6,2.7,10.1,3.3c1.6,0.3,3.2,0.4,4.9,0.3
	c4-0.1,7.8-1.1,11.3-3c2.2-1.1,4.2-2.6,5.9-4.3c0.1-0.1,0.2-0.3,0.3-0.4c7.3,6.1,15.1,11.8,23.3,16.8c-6-2.2-12.3-3.5-18.8-4
	c-5.8-0.2-11.5,1.2-16.5,4c-2.3,1.2-4.4,2.8-6.2,4.6c-0.6,0.6-0.5,1.6,0.1,2.2c0,0,0.1,0.1,0.1,0.1c3,2.1,6.2,4.1,9.5,5.7
	c3,1.6,6.2,3,9.6,4c3.4,0.9,7,1.3,10.5,1.3h0.4c5.9-0.2,11.5-2.3,15.9-6.1c2.4-2,4.8-4.9,5.3-6.2c8.2,4.4,16.7,8.3,25.4,11.5
	c-6.4-0.9-13-0.9-19.4-0.1c-5.9,1.1-11.4,3.7-16,7.6c-2.1,1.7-3.9,3.7-5.4,5.9c-0.4,0.7-0.2,1.7,0.5,2.1c0.1,0,0.1,0.1,0.2,0.1
	c3.5,1.6,7.2,2.9,10.9,3.9l1.2,0.3c3.1,0.9,6.3,1.5,9.5,1.7c1.1,0,2.3,0.1,3.4,0c2.7,0,5.4-0.4,8-1c5.9-1.4,11.2-4.8,14.9-9.6
	c1.6-2.1,3-4.4,3.9-6.9v-0.1c8.3,2.5,16.7,4.5,25.2,5.9c-2.5,0.2-5,0.5-7.5,1c-1.8,0.3-3.6,0.8-5.3,1.3c-1.8,0.4-3.5,0.9-5.2,1.6
	c-5.8,2.3-10.8,6-14.7,11c-1.7,2.2-3.2,4.5-4.2,7.1c-0.3,0.8,0.1,1.7,0.9,2c0,0,0.1,0,0.2,0c3.9,0.9,7.9,1.5,11.9,1.9
	c1.5,0.2,3,0.3,4.5,0.3h1c5.9-0.1,11.8-1.4,17.2-3.8c3.2-1.4,6-3.5,8.4-6c1.9-2.1,3.4-4.5,4.7-7c1.1-2.3,2-4.8,2.5-7.3
	c6.7,0.7,13.4,1,20.1,1c6.8,0,13.8-0.3,20.6-1c0.5,2.5,1.3,4.8,2.4,7.1c1.2,2.5,2.8,4.9,4.7,7c2.4,2.5,5.3,4.6,8.4,6
	c5.4,2.3,11.2,3.6,17.2,3.7c1.8,0,3.7,0,5.5-0.3c4-0.3,8-0.9,11.9-1.8c0.8-0.2,1.3-1,1.1-1.8c0-0.1,0-0.1,0-0.2
	c-1.1-2.6-2.5-5-4.2-7.1c-3.8-4.9-8.9-8.7-14.7-11c-1.7-0.6-3.4-1.2-5.2-1.6c-1.8-0.5-3.6-1-5.4-1.3c-2.2-0.4-4.5-0.7-6.7-0.9
	c8.2-1.5,16.4-3.4,24.4-5.9l0,0c1,2.5,2.3,4.8,3.9,6.9c3.7,4.9,8.9,8.3,14.9,9.6c2.6,0.6,5.3,1,8,1c1.1,0,2.2,0,3.4,0
	c3.2-0.2,6.4-0.8,9.5-1.7l1.2-0.3c3.7-1,7.3-2.4,10.9-3.9c0.8-0.4,1.1-1.3,0.8-2c0-0.1-0.1-0.1-0.1-0.2c-1.5-2.2-3.3-4.2-5.4-5.9
	c-4.6-3.9-10.1-6.5-16-7.6c-6.3-0.8-12.6-0.8-18.9,0c8.7-3.3,17.2-7.2,25.3-11.7c1.4,2,3,3.8,4.8,5.3c4.4,3.8,10.1,5.9,15.9,6.1h0.5
	c3.6,0,7.1-0.4,10.5-1.3c3.3-1,6.5-2.4,9.5-4c3.3-1.7,6.4-3.6,9.5-5.7c0.7-0.5,0.8-1.5,0.3-2.1c0,0-0.1-0.1-0.1-0.1
	c-1.8-1.8-3.9-3.4-6.2-4.6c-5.1-2.8-10.8-4.3-16.6-4.1c-5.2,0.4-10.3,1.4-15.3,2.9c6.9-4.5,13.6-9.4,19.9-14.8
	c0.2,0.1,0.3,0.1,0.5,0.1c0.1,0,0.2,0,0.3,0c1.6,1.5,3.4,2.8,5.3,3.8c3.5,1.9,7.3,2.9,11.3,3c1.6,0,3.3-0.1,4.9-0.3
	c3.5-0.6,6.9-1.7,10.1-3.3c2.7-1.4,5.3-3.1,7.7-5.1l0.6-0.5c2.8-2.2,5.4-4.6,7.8-7.2c0.6-0.6,0.5-1.6-0.1-2.2c0,0-0.1-0.1-0.1-0.1
	c-2.1-1.4-4.3-2.4-6.7-3.2c-5.3-1.7-11-2-16.5-0.7c-4.9,1.4-9.6,3.3-14,5.7l0.5-0.5c5.6-5.5,10.9-11.4,15.9-17.5
	c6.5,4.1,14.6,4.9,21.8,2.1c3.2-1.3,6.2-3,8.9-5.1c2.4-2.1,4.6-4.3,6.6-6.8c2.2-2.6,4.2-5.3,5.9-8.2c0.4-0.7,0.2-1.7-0.5-2.1
	c-0.1,0-0.1-0.1-0.2-0.1c-2.2-0.9-4.6-1.5-7-1.7c-5.3-0.6-10.7,0.2-15.6,2.4c-2.1,1-4.1,2.2-6,3.6l-0.2,0.1
	c-0.6,0.4-1.2,0.8-1.8,1.2c-1,0.7-2,1.4-3,2.3c4.8-7,9.1-14.3,12.9-21.8c2.1,0.8,4.3,1.3,6.5,1.5c0.5,0,1,0.1,1.5,0.1
	c4.7,0.1,9.3-1.2,13.3-3.7c2.8-1.8,5.3-4,7.3-6.5c1.8-2.4,3.5-4.9,4.9-7.6c1.5-2.8,2.9-5.8,4-8.8c0.3-0.8-0.1-1.7-0.9-2
	c-0.1,0-0.1,0-0.2,0c-2.3-0.4-4.6-0.5-6.9-0.3c-5.1,0.4-10.1,2.2-14.3,5.2c-2.4,1.8-4.6,3.8-6.4,6.2c-1.1,1.1-2.1,2.3-3.2,3.6
	c3.4-8.2,6.3-16.6,8.6-25.1c0.8,0.1,1.6,0.2,2.4,0.2c1.2,0,2.4,0,3.5-0.2c5-0.6,9.6-2.8,13.2-6.2c4.6-4.1,6.9-10.2,8.7-15.6
	c0.9-2.9,1.7-6,2.2-9C710.8,229.2,710.7,228.7,710.5,228.4z M681.3,216.4c-3.7-1.4-7-3.8-9.4-6.8c-2.7-3.5-4.8-7.5-6-11.8
	c-0.4-1.5-0.8-3-1-4.5V193c1.2,0.1,2.4,0.2,3.6,0.5c3.8,0.8,7.3,2.8,9.9,5.7c1.6,1.9,2.9,3.9,3.8,6.2c0.8,1.8,1.5,3.7,1.8,5.6
	c0,2,0,4-0.1,6.2C683,216.9,682.1,216.7,681.3,216.4L681.3,216.4z M685.1,177.2c-0.2-0.6-0.4-1.4-0.6-2.3c0-0.9,0-1.9,0-2.8
	c-0.2-5.6,0.4-10.1,1.8-13.7l0,0c1.5-3.7,3.8-7,6.9-9.5c0.9-0.7,1.8-1.4,2.8-1.9l0.1,0.4c0.4,1.8,0.6,3.7,0.7,5.5
	c0.3,4.1,0.3,9.9-1.4,14.6c-1.6,3.6-4.3,6.7-7.7,8.6C686.7,176.5,685.9,176.9,685.1,177.2L685.1,177.2z M707.4,231
	c-0.5,2.2-1,4.4-1.7,6.6c-1.8,5.2-3.8,10.6-7.9,14.3c-3.2,3-7.2,4.9-11.5,5.4c-1.3,0.2-2.6,0.2-3.9,0.1c0.6-1.9,1.3-3.8,2.1-5.6
	l0.9-1.9c1.8-3.8,4-8.1,7.1-11.4c3-3.2,6.9-5.5,11.1-6.8C704.9,231.4,706.2,231.2,707.4,231z M687.7,216.6c0.2-1.5,0.5-3.1,0.9-4.6
	c0.3-0.9,0.5-1.9,0.7-3c0.3-1.3,0.7-2.7,1-4.1c0.7-2.4,1.7-4.7,3-6.9c2.3-3.6,5.4-6.5,9.2-8.4c1.1-0.6,2.1-1,3.3-1.4
	c0,0.1,0,0.3,0,0.4c0,2-0.2,4-0.4,5.9c-0.6,5-1.7,10.6-4.6,14.8c-2.4,3.4-5.8,6-9.8,7.3c-1.1,0.4-2.2,0.6-3.3,0.8
	C687.8,217.2,687.8,216.9,687.7,216.6L687.7,216.6z M681.2,177.8c-0.8-0.1-1.6-0.1-2.5-0.3l0,0c-3.7-0.6-7.2-2.2-10.1-4.6
	c-3.3-2.7-6-6.1-7.8-9.9c-0.6-1.1-1-2.1-1.4-3c-0.2-0.4-0.3-0.8-0.5-1.1c1-0.1,2.1-0.2,3.1-0.2h0.2c3.7-0.1,7.3,1.2,10.3,3.4
	c3.2,2.7,5.8,6.1,7.5,9.8C680.5,174,680.9,175.9,681.2,177.8L681.2,177.8z M674.2,138.3l-0.1-0.1c-0.1-0.2-0.3-0.5-0.4-0.8
	c-0.4-0.8-0.8-1.5-1.2-2.3c-0.1-0.4-0.2-0.8-0.3-1.1c-1.2-4.2-1.5-8.7-1-13c0.7-3.7,2.2-7.2,4.6-10.1c0.6-0.8,1.4-1.5,2.1-2.2
	c0.8,1.7,1.4,3.4,1.9,5.2c1.1,3.7,2.2,9.1,1.3,13.9c-0.6,3.6-2.6,7-5.4,9.3C675.2,137.5,674.7,137.9,674.2,138.3L674.2,138.3z
	 M659.5,127c3.5,1.9,6.6,4.6,8.9,7.8c0.6,1.4,1.2,2.8,1.7,4.2c0.1,0.2,0.1,0.5,0.2,0.7v0.2c-0.7,0.1-1.4,0.2-2.1,0.2l0,0
	c-3.6,0.1-7.1-0.7-10.4-2.3c-3.5-1.9-6.6-4.5-9.1-7.7l-2.5-3.5c1-0.3,1.9-0.6,2.9-0.8C652.7,124.9,656.3,125.4,659.5,127L659.5,127z
	 M660.1,115.2L660.1,115.2l-0.2,0.1c-1-0.6-1.9-1.2-2.8-1.8c-3.6-2.5-6.6-5.6-9-9.2l0,0c-2.6-3.5-4.4-7.4-5.4-11.6
	c-0.3-1.4-0.6-2.6-0.7-3.5c0.8,0.4,1.9,0.9,3.1,1.6c3.9,2.2,7.4,5.1,10.2,8.6c2.4,3.8,3.9,8.1,4.5,12.6
	C659.9,113.1,660,114.2,660.1,115.2L660.1,115.2z M628.6,335.4c-0.2,5.8-3.3,10.9-6.3,15.2L622,351c-1.5,1.4-3,2.8-4.6,4.1
	c-0.6-1.1-1.1-2.2-1.5-3.3c-1.8-4.4-2.5-9.3-2-14.1c0.4-2.6,1.1-5.2,2.2-7.7l0.7-1.6c0.7-1.8,1.5-3.5,2.4-5.2c0.9-1.7,1.9-3.4,3.1-5
	c1.1,1.2,2,2.4,2.8,3.8C627.6,326,628.9,330.7,628.6,335.4z M585.2,358.9c0.9-2.6,2.2-5.1,3.8-7.3c1.4-2.2,2.8-4.3,4.5-6.3
	c1.3-1.6,2.7-3.1,4.2-4.5c0.9,1.4,1.6,2.9,2.2,4.5c1.8,4.6,2.1,9.6,0.9,14.4c-1.5,6.1-6.1,11-9.5,14.2c-0.8,0.7-1.6,1.4-2.3,2.1
	c-1.1,0.7-2.3,1.3-3.5,2c-0.4-1.4-0.8-2.8-1-4.2l0,0C583.4,368.8,583.7,363.7,585.2,358.9z M550.7,398.8l1-0.2
	c1.3-0.3,3.8-1,6.8-1.4l0,0c6.3-1,12.8-1,19.2-0.2c5.4,1,10.4,3.3,14.5,6.9c1.3,1.1,2.6,2.4,3.7,3.8c-2.8,1.2-5.7,2.2-8.7,3L586,411
	c-2.9,0.9-5.8,1.4-8.8,1.6c-3.5,0.2-7.1-0.1-10.6-0.9c-5.2-1.2-9.9-4.2-13.2-8.5C552.4,401.9,551.4,400.4,550.7,398.8L550.7,398.8z
	 M555.9,390.2c-1.9,1.2-3.9,2.2-5.9,3.2l-0.9,0.3c-0.2-1.7-0.3-3.5-0.2-5.2c0.2-5.2,1.5-10.2,4-14.8c1.4-2.5,3.2-4.7,5.3-6.7
	c0.6-0.6,1.3-1.2,1.9-1.8c1.3-1.3,2.6-2.5,4-3.6c1.6-1.3,3.4-2.6,5.2-3.7c0.6,1.6,1,3.3,1.3,5c0.9,5,0.2,10.2-2.1,14.8
	C566,383.3,561,387,555.9,390.2z M587.9,381.8l0.8-0.4c1.3-0.7,3.5-1.7,6.1-2.6l0,0c5.8-2.1,11.8-3.4,18-3.9
	c5.2-0.1,10.4,1.2,15,3.7c1.5,0.8,2.8,1.7,4.1,2.8c-2.4,1.6-4.9,3.1-7.5,4.4c-2.8,1.5-5.8,2.8-8.9,3.7c-3.3,0.9-6.7,1.3-10.2,1.2
	c-5.1-0.1-10.1-2-14-5.4C590,384.3,588.9,383.1,587.9,381.8L587.9,381.8z M657.7,347.9c1.5,0.5,2.9,1.1,4.3,1.8
	c-1.9,1.9-4,3.8-6.1,5.5l-0.6,0.5c-2.2,1.8-4.6,3.4-7.1,4.8c-2.9,1.4-6,2.4-9.2,3c-4.9,0.8-9.9,0-14.2-2.4c-1.4-0.7-2.7-1.6-3.9-2.6
	c1.9-1.5,3.8-2.9,5.9-4.1l0,0c5-3.1,10.5-5.5,16.2-7.1C647.8,346.1,652.9,346.4,657.7,347.9L657.7,347.9z M662.8,291.1L662.8,291.1
	c-3.2-3.1-5.5-6.9-6.8-11.1c-0.6-2.2-0.9-4.5-0.9-6.8v-0.6c-0.2-2.3-0.1-4.6,0.1-6.9c0.2-1.8,0.4-3.5,0.8-5.3
	c1.3,0.6,2.5,1.3,3.6,2.1c3.6,2.4,6.3,5.9,7.7,10c0.8,2.5,1.3,5.1,1.3,7.8c-0.1,2.3-0.4,4.5-0.9,6.7c-1,2.2-1.9,4.1-2.8,6
	C664.2,292.4,663.5,291.8,662.8,291.1L662.8,291.1z M650.8,314.1c-0.6,2.3-1.4,4.6-2.3,6.8c-1.3,1.9-2.7,3.7-4.1,5.5
	c-0.7-0.8-1.3-1.7-1.9-2.5c-4.2-5.9-5.6-13.4-4-20.5c0.3-2.4,0.8-4.7,1.5-7c0.5-1.8,1.2-3.5,1.9-5.2c1.2,0.9,2.3,1.9,3.3,2.9
	c3.2,3.2,5.2,7.4,5.9,11.8C651.5,308.7,651.4,311.5,650.8,314.1L650.8,314.1z M679.8,313c1.5,0.2,2.9,0.4,4.3,0.9
	c-1.4,2.2-3,4.2-4.6,6.2c-1.9,2.3-3.9,4.4-6.2,6.4c-2.5,1.9-5.2,3.5-8.1,4.6c-4.4,1.7-9.3,1.9-13.8,0.5c-1.4-0.4-2.8-1-4.1-1.7
	c1.5-1.7,3-3.4,4.7-5c2-1.9,4.1-3.6,6.3-5.2c0.6-0.4,1.3-0.8,1.9-1.3l0.1-0.1c1.7-1.3,3.6-2.4,5.5-3.3
	C670.2,313.2,675.1,312.5,679.8,313z M669.2,295.4c1-1.9,2.2-3.7,3.4-5.4c1.5-2.2,3.2-4.2,5.1-6.2c1.7-2.1,3.7-4.1,5.9-5.7
	c3.8-2.7,8.2-4.3,12.8-4.7c1.4-0.1,2.8-0.1,4.1,0c-0.9,2.2-2,4.4-3.2,6.6c-1.3,2.5-2.9,4.9-4.6,7.2c-1.9,2.3-4.1,4.2-6.6,5.8
	c-3.8,2.5-8.4,3.6-12.9,3.2C671.9,296.1,670.5,295.8,669.2,295.4z M675.8,254.7L675.8,254.7c-3.5-2.2-6.4-5.3-8.3-9
	c-1.9-4.2-3.2-8.7-3.6-13.4c-0.2-1.7-0.2-3.4-0.2-5.1c1.3,0.3,2.5,0.7,3.7,1.3c3.8,1.6,6.9,4.4,9,7.9c2.3,4.1,3.5,8.8,3.3,13.6
	c-0.4,2-0.9,4-1.4,6.2C677.5,255.7,676.6,255.2,675.8,254.7L675.8,254.7z M511.8,406.7c1.2,0.1,2.6,0.1,4.3,0.1h3.2
	c3.2,0.1,6.4,0.5,9.5,1.1l0,0c1.7,0.3,3.5,0.8,5.2,1.3c1.7,0.4,3.3,0.9,4.9,1.5c5.3,2.1,9.9,5.5,13.4,10c1.1,1.4,2.1,3,3,4.6
	c-3.2,0.6-6.4,1.1-9.6,1.3c-7.2,0.8-14.5-0.4-21.1-3.2c-2.8-1.3-5.3-3.1-7.4-5.3c-1.7-1.9-3.1-4-4.2-6.3c-0.8-1.7-1.4-3.4-1.9-5.2
	L511.8,406.7z M518.1,399c-2.1,0.9-4.4,1.5-6.6,1.8l-1,0.2c0.1-1.8,0.4-3.7,0.9-5.4c0.6-2.3,1.4-4.6,2.5-6.8
	c1.2-2.6,2.8-5.1,4.8-7.3c3.3-3.9,7.7-6.4,11.5-8.6c0.8-0.5,1.6-1,2.3-1.4c1.9-1,3.9-1.9,6-2.7c0.3,1.8,0.4,3.6,0.3,5.5
	c0,5.3-1.8,10.5-5.1,14.7c-1,1.2-2.1,2.4-3.2,3.5c-1.3,1-2.6,1.9-4,2.7C523.7,396.7,521,398,518.1,399L518.1,399z M335.6,364.7
	c-3.2-0.6-6.3-1.6-9.2-3c-2.5-1.3-4.9-2.9-7.1-4.8l-0.6-0.4c-2.1-1.7-4.2-3.6-6.1-5.5c1.4-0.7,2.8-1.3,4.3-1.8
	c4.8-1.6,9.9-1.8,14.7-0.7c5.7,1.6,11.2,4,16.2,7.1c2,1.3,4,2.6,5.9,4.1c-1.2,1-2.5,1.9-3.9,2.6
	C345.5,364.8,340.5,365.6,335.6,364.7L335.6,364.7z M336.7,311.4c-0.4,4.6-2,9-4.6,12.8c-0.6,0.9-1.3,1.8-2,2.7
	c-1.3-1.7-2.5-3.2-3.4-4.5l-0.2-0.5l0,0c-1.1-2.4-2-4.9-2.6-7.5c-0.6-2.7-0.7-5.4-0.3-8.2c0.6-4.5,2.7-8.6,5.8-11.8
	c1-1.1,2.1-2,3.3-2.9c0.8,1.7,1.4,3.5,1.9,5.2c0.7,2.3,1.2,4.7,1.5,7C336.6,306.3,336.8,308.9,336.7,311.4L336.7,311.4z
	 M309.3,293.6c-0.7-1.4-1.4-2.9-2.1-4.5c-0.1-0.3-0.2-0.6-0.2-1c-0.5-2.4-0.9-4.9-1-7.4c0.1-2.7,0.5-5.3,1.3-7.8
	c1.4-4.1,4.1-7.6,7.7-10c1.1-0.8,2.3-1.5,3.6-2.1c0.4,1.7,0.7,3.5,0.8,5.3c0.2,2.3,0.3,4.6,0.1,6.9v0.6c-0.1,2.3-0.4,4.6-0.9,6.8
	c-1.3,4.2-3.6,8-6.7,11.1C311.1,292.2,310.2,292.9,309.3,293.6z M295.8,256.6c-0.3-1.3-0.6-2.6-0.9-3.8c0-0.6-0.1-1.2-0.1-1.8l0,0
	c-0.3-4.9,0.8-9.9,3.3-14.2c2.1-3.5,5.2-6.3,9-7.9c1.2-0.5,2.4-0.9,3.7-1.3c0.2,6.4-1.1,12.7-3.7,18.4c-1.9,3.7-4.8,6.8-8.3,9
	C297.8,255.6,296.8,256.1,295.8,256.6L295.8,256.6z M305.3,295.7c-1.3,0.4-2.7,0.6-4.1,0.7c-4.5,0.4-9.1-0.7-12.9-3.1
	c-2.5-1.6-4.7-3.5-6.6-5.8c-1.7-2.3-3.3-4.7-4.6-7.2c-1.2-2.1-2.2-4.3-3.1-6.6c1.4-0.1,2.8-0.1,4.1,0c4.6,0.4,9,2,12.8,4.7
	c2.2,1.7,4.3,3.6,6,5.7c1.8,1.9,3.5,4,5,6.1C303.1,292,304.3,293.9,305.3,295.7L305.3,295.7z M307.7,315.5c2,0.9,3.8,2,5.5,3.3
	c0.6,0.4,1.3,0.9,1.9,1.3c2.2,1.6,4.3,3.3,6.3,5.2c1.6,1.6,3.2,3.2,4.7,5c-1.3,0.7-2.7,1.2-4.1,1.7c-4.5,1.4-9.4,1.2-13.8-0.5
	c-2.9-1.2-5.6-2.7-8.1-4.6c-2.2-1.9-4.3-4.1-6.2-6.4c-1.7-2-3.2-4.1-4.6-6.2c1.4-0.4,2.9-0.7,4.3-0.9
	C298.4,312.8,303.3,313.5,307.7,315.5L307.7,315.5z M425.4,394l-0.8-0.3c-2-1-4-2-5.9-3.2c-5.1-3.2-10.2-6.9-12.7-12.5l0,0
	c-2.3-4.6-3-9.8-2.1-14.8c0.3-1.7,0.7-3.4,1.3-5.1c1.8,1.1,3.5,2.3,5.2,3.7c1.4,1.1,2.7,2.3,4,3.6c0.6,0.6,1.3,1.2,1.9,1.8
	c2.1,2,3.9,4.2,5.3,6.7c2.5,4.6,3.8,9.6,4,14.8C425.7,390.5,425.6,392.3,425.4,394z M373.9,359.9c-1.3-4.8-1-9.8,0.9-14.4
	c0.6-1.5,1.3-3,2.2-4.5c1.5,1.4,2.9,2.9,4.2,4.5c1.6,2,3.1,4.1,4.5,6.3c1.6,2.3,2.9,4.7,3.8,7.3c1.5,4.8,1.8,9.9,0.9,14.8
	c-0.2,1.4-0.6,2.8-1,4.2c-1.2-0.7-2.3-1.3-3.4-2c-0.8-0.7-1.7-1.4-2.4-2.1l0,0C380,371,375.3,366,373.9,359.9L373.9,359.9z
	 M349.5,322.3c0.8-1.3,1.8-2.6,2.8-3.7c1.1,1.6,2.2,3.3,3.1,5c0.9,1.7,1.7,3.4,2.4,5.2l0.7,1.7c1.1,2.4,1.8,5,2.2,7.6
	c0.5,4.8-0.2,9.6-2,14.1c-0.5,1.2-1,2.3-1.6,3.4c-1.3-1.2-2.7-2.4-4.1-3.6l-0.7-1c-3-4.3-6.1-9.5-6.3-15.2
	C345.7,331,346.9,326.3,349.5,322.3L349.5,322.3z M386.7,383.1c-1,1.3-2.2,2.5-3.4,3.6c-3.9,3.3-8.9,5.2-14,5.4
	c-3.4,0.1-6.8-0.3-10.1-1.2c-3.1-1-6.1-2.2-8.9-3.7c-2.6-1.3-5.1-2.8-7.5-4.4c1.3-1.1,2.7-2,4.1-2.8c4.6-2.6,9.7-3.9,15-3.7
	c6.2,0.5,12.2,1.8,18,3.9c2.6,1,4.8,2,6.1,2.6L386.7,383.1z M416.1,397.5c2.9,0.5,5.4,1.1,6.8,1.4l0.9,0.2c-0.8,1.6-1.7,3-2.8,4.4
	l0,0c-3.3,4.3-7.9,7.3-13.2,8.5c-3.5,0.8-7,1.1-10.6,0.9c-3-0.2-6-0.7-8.8-1.6l-1.1-0.3c-2.9-0.8-5.8-1.8-8.7-3
	c1.1-1.4,2.3-2.6,3.7-3.8c4.1-3.5,9.1-5.9,14.5-6.9C403.3,396.5,409.8,396.6,416.1,397.5L416.1,397.5z M448.1,395.4
	c-1.4-0.8-2.7-1.7-3.9-2.6c-1.2-1.1-2.3-2.2-3.3-3.5c-3.2-4.2-5-9.3-5.1-14.6c-0.1-1.8,0.1-3.7,0.3-5.5c2.1,0.8,4.1,1.6,6,2.7
	c0.7,0.4,1.5,0.9,2.3,1.4c3.8,2.2,8.1,4.7,11.5,8.6c1.9,2.2,3.5,4.7,4.8,7.3c1.1,2.2,1.9,4.4,2.5,6.8c0.5,1.8,0.8,3.6,0.9,5.4
	l-1-0.2c-2.3-0.3-4.5-1-6.6-1.8C453.6,398.3,450.8,397,448.1,395.4L448.1,395.4z M455.3,407.2h3.2c1.6,0,3,0,4.2-0.1h1
	c-0.5,1.8-1.1,3.5-1.9,5.2c-1.1,2.3-2.5,4.4-4.2,6.3c-2.1,2.2-4.6,4-7.4,5.3c-6.6,2.9-13.9,4-21.1,3.2c-3.2-0.3-6.4-0.7-9.6-1.3
	c0.9-1.6,1.9-3.2,3-4.6c3.5-4.5,8.1-7.9,13.4-10c1.6-0.6,3.2-1.1,4.9-1.5c1.7-0.5,3.4-0.9,5.1-1.3
	C449,407.7,452.1,407.4,455.3,407.2z M290.1,214.4c0.1-0.7,0.2-1.5,0.3-2.3c0.3-2.3,1-4.4,2-6.5l0,0c1-2.2,2.3-4.3,3.8-6.2
	c2.6-2.9,6-4.9,9.9-5.7c1.2-0.2,2.4-0.4,3.6-0.5v0.1c-0.2,1.5-0.6,3-1,4.5c-1.2,4.3-3.3,8.3-6,11.8c-2.5,3.1-5.7,5.4-9.4,6.8
	c-1,0.4-2,0.7-3,1C290.2,216.5,290.1,215.4,290.1,214.4z M290.1,173.7c-0.2,1.3-0.5,2.5-0.7,3.8c-0.8-0.3-1.6-0.7-2.4-1.2
	c-3.4-2-6.2-5-7.7-8.6c-1.8-4.7-1.8-10.5-1.5-14.6c0.1-1.9,0.4-3.7,0.7-5.5l0.1-0.4c1,0.6,1.9,1.2,2.7,1.9c3.1,2.5,5.4,5.8,6.9,9.5
	c1.4,3.6,2,8.1,1.8,13.8C290.1,172.9,290.1,173.3,290.1,173.7L290.1,173.7z M286.8,216.9c0,0.3,0,0.6,0,0.9
	c-1.1-0.2-2.2-0.5-3.3-0.8c-4-1.3-7.4-3.9-9.8-7.3c-2.9-4.2-3.9-9.8-4.6-14.8c-0.2-2-0.3-4-0.4-6c0-0.1,0-0.3,0-0.4
	c1.1,0.4,2.2,0.9,3.3,1.4c3.8,1.9,6.9,4.8,9.2,8.4c1.3,2.2,2.3,4.5,3,6.9c0.4,1.4,0.7,2.8,1.1,4.1v0.2c0.2,1,0.5,1.9,0.7,2.8
	C286.3,213.8,286.6,215.3,286.8,216.9L286.8,216.9z M270.9,232.1c4.2,1.2,8.1,3.6,11.1,6.8c3.1,3.3,5.2,7.6,7.1,11.4
	c0.3,0.6,0.6,1.3,0.9,1.8c0.8,1.8,1.5,3.7,2.1,5.6c-1.3,0.1-2.6,0-3.9-0.1c-4.3-0.5-8.4-2.4-11.5-5.4c-4.1-3.6-6.1-9-7.9-14.2
	c-0.7-2.2-1.3-4.4-1.7-6.6C268.4,231.4,269.6,231.7,270.9,232.1L270.9,232.1z M293,178.1c0-0.7,0.1-1.4,0.1-2l0.1-0.8
	c0.2-0.7,0.5-1.4,0.7-2.1c1.2-2.7,3.9-7.5,8-10.7c2.9-2.3,6.5-3.5,10.2-3.4l0,0c1.1,0,2.2,0.1,3.3,0.2c-0.2,0.3-0.3,0.7-0.5,1.2
	c-0.4,0.9-0.8,1.9-1.3,2.9c-1.9,3.8-4.5,7.2-7.8,9.9c-2.9,2.4-6.4,4-10.1,4.6C294.9,178,293.9,178.1,293,178.1L293,178.1z
	 M325.3,126c1,0.2,2,0.5,2.9,0.8l-2.5,3.5c-2.4,3.2-5.5,5.8-9.1,7.7c-3.2,1.6-6.8,2.4-10.4,2.3c-0.7,0-1.4-0.1-2.1-0.2v-0.1
	c0.2-0.5,0.3-1.2,0.5-2c0.1-0.4,0.2-0.9,0.3-1.3c0.2-0.3,0.4-0.5,0.6-0.8c2.1-2.8,5.5-6.6,9.5-8.6l0,0
	C318.2,125.6,321.8,125.2,325.3,126z M298.8,137.3c-2.8-2.4-4.7-5.7-5.4-9.4c-0.8-4.7,0.3-10.2,1.3-13.9c0.4-1.8,1.1-3.5,1.9-5.2
	c0.8,0.7,1.5,1.4,2.1,2.2c2.3,2.9,3.9,6.4,4.5,10.1c0.5,3.7,0.4,7.5-0.5,11.1c-0.8,1.9-1.7,3.9-2.5,6.1
	C299.8,138.1,299.3,137.7,298.8,137.3L298.8,137.3z M314.5,115.8c0-0.9,0.2-2.1,0.4-3.5c0.6-4.5,2.1-8.8,4.5-12.6
	c2.8-3.5,6.3-6.5,10.2-8.7c1.2-0.7,2.3-1.2,3.1-1.6c-0.2,1-0.4,2.2-0.7,3.5c-1,4.2-2.8,8.2-5.4,11.6c-2.4,3.6-5.4,6.7-9,9.2
	C316.3,114.6,315.3,115.3,314.5,115.8L314.5,115.8z"/>
<polygon class="st2" points="350.6,205.1 353.6,205.1 353.8,188.8 350.9,188.8 350.8,195.3 329.9,195.1 329.8,198.2 350.7,198.5 "/>
<polygon class="st2" points="333.9,217.7 341.5,216.6 342.7,224.9 345.6,224.4 344.4,216.2 351.7,215.1 353,224 355.9,223.6 
	354.1,211.6 330.5,215.1 332.4,227.6 335.3,227.1 "/>
<path class="st2" d="M362.4,247.2l-1.1-3.5l-9.7-2.4l-0.8-0.2h-0.1c0.2-0.2,0.4-0.4,0.6-0.6l6.7-7.3l-1.1-3.6l-9.2,10.4l-13.8-3.9
	l1.1,3.6l10.2,2.7l0.6,0.1l-0.4,0.5l-7,7.8l1.1,3.6l9.3-10.7L362.4,247.2z"/>
<polygon class="st2" points="368.9,267.3 371.5,266 364.2,251.4 361.5,252.8 364.5,258.6 345.8,268 347.2,270.8 365.9,261.4 "/>
<rect x="354.3" y="278.1" transform="matrix(0.8306 -0.5569 0.5569 0.8306 -93.6739 251.3303)" class="st2" width="23.8" height="3.1"/>
<polygon class="st2" points="384.4,284 382.4,281.6 364.3,297.2 372.3,306.5 374.5,304.6 368.5,297.6 "/>
<polygon class="st2" points="395.6,300 402.4,305.9 404.4,303.7 395.2,295.7 379.5,313.7 389.1,322 391,319.8 383.8,313.5 
	388.9,307.7 395.2,313.2 397.1,311 390.8,305.5 "/>
<path class="st2" d="M417.1,311.9L417.1,311.9c-0.9-0.6-1.8-1-2.8-1.3c-0.9-0.3-1.9-0.3-2.8-0.3c-0.9,0.1-1.8,0.3-2.5,0.8
	c-0.8,0.5-1.5,1.2-2,2c-0.4,0.6-0.7,1.3-0.8,2c-0.1,0.7-0.1,1.4,0,2.1c0.1,0.8,0.4,1.5,0.7,2.3c0.3,0.8,0.8,1.7,1.3,2.7
	s0.9,1.7,1.2,2.3c0.3,0.6,0.5,1.1,0.7,1.8c0.1,0.4,0.2,0.9,0.1,1.4c-0.1,0.5-0.3,0.9-0.5,1.3c-0.5,0.8-1.3,1.4-2.3,1.5
	c-1.3,0-2.5-0.4-3.5-1.2c-0.4-0.2-0.7-0.5-1.1-0.8c-0.7-0.6-1.3-1.4-1.8-2.2c-0.3-0.4-0.5-0.8-0.7-1.3l-0.3-0.9l-2,3.2l0.1,0.3
	c0.2,0.4,0.5,0.8,0.8,1.1c0.3,0.4,0.7,0.8,1.1,1.2c0.4,0.4,0.8,0.7,1.2,1.1c1.2,1,2.5,1.7,4,2.2c0.7,0.2,1.5,0.4,2.3,0.4h0.5
	c0.9-0.1,1.8-0.4,2.5-0.8c0.8-0.5,1.5-1.3,2-2.1c0.4-0.6,0.7-1.3,0.8-2c0.1-0.7,0.1-1.4,0-2.2c-0.1-0.8-0.4-1.6-0.7-2.3
	c-0.4-0.9-0.9-1.8-1.3-2.6c-0.5-0.9-0.9-1.7-1.3-2.3c-0.3-0.5-0.5-1.1-0.6-1.7c-0.1-0.4-0.1-0.9-0.1-1.3c0.1-0.5,0.3-0.9,0.5-1.3
	c0.2-0.4,0.6-0.8,1-1c0.4-0.2,0.9-0.4,1.3-0.4c0.5,0,1,0.1,1.5,0.2c0.6,0.2,1.1,0.4,1.6,0.8c1.3,0.8,2.5,2,3.2,3.3l0.4,0.8l1.9-3
	l-0.2-0.3C419.6,313.9,418.4,312.8,417.1,311.9z"/>
<path class="st2" d="M451,326.9c-1.6-0.5-3.3-0.7-5-0.5c-1.6,0.2-3.1,0.7-4.4,1.5c-1.4,0.8-2.5,1.9-3.5,3.2c-1,1.4-1.8,2.9-2.3,4.5
	c-0.5,1.5-0.7,3.1-0.6,4.8c0,1.5,0.4,2.9,1,4.3c0.6,1.3,1.5,2.5,2.7,3.4c1.2,1,2.6,1.8,4.1,2.2c1.5,0.5,3,0.7,4.6,0.7
	c0.6,0,1.2,0,1.8-0.1h0.3l1-3.1l-0.8,0.2c-1.9,0.4-3.9,0.2-5.7-0.4c-1.2-0.3-2.3-0.9-3.2-1.7c-0.8-0.7-1.4-1.6-1.9-2.6
	c-0.4-1-0.6-2.1-0.6-3.2c0-1.2,0.2-2.4,0.5-3.6c0.4-1.3,1-2.5,1.7-3.5c0.7-1,1.5-1.8,2.5-2.4c1-0.6,2.1-1,3.2-1.1
	c1.3-0.1,2.6,0,3.8,0.4c1.7,0.5,3.2,1.4,4.5,2.6l0.6,0.6l1-3.3l-0.3-0.2C454.4,328.3,452.7,327.4,451,326.9z"/>
<path class="st2" d="M480.9,335.4c-0.8-1.2-1.9-2.2-3.2-2.9c-1.4-0.8-2.9-1.2-4.4-1.4c-1.7-0.2-3.4-0.1-5,0.4
	c-1.4,0.4-2.8,1.2-3.9,2.2c-1.1,1-2,2.3-2.7,3.7c-0.7,1.6-1.1,3.2-1.3,5c-0.2,1.6-0.1,3.2,0.3,4.8c0.3,1.4,0.9,2.8,1.8,4
	c0.9,1.2,2,2.2,3.2,2.9c1.4,0.8,2.9,1.3,4.5,1.4c0.5,0.1,1,0.1,1.5,0.1c1.2,0,2.3-0.2,3.5-0.5c1.4-0.5,2.7-1.3,3.8-2.3
	c1.1-1.1,2-2.4,2.6-3.8c0.7-1.5,1.1-3.2,1.3-4.9c0.2-1.6,0.1-3.2-0.3-4.8C482.3,338,481.7,336.6,480.9,335.4z M479.7,344.2
	c-0.1,1.3-0.4,2.5-0.9,3.7c-0.4,1-1.1,2-1.8,2.8c-0.8,0.7-1.7,1.3-2.7,1.6c-1.2,0.4-2.4,0.5-3.6,0.3c-1.2-0.1-2.4-0.5-3.4-1.1
	c-0.9-0.6-1.7-1.4-2.2-2.3c-0.6-1-1-2-1.2-3.1c-0.2-1.2-0.2-2.4-0.1-3.6c0.1-1.2,0.5-2.5,1-3.6c0.4-1,1.1-2,1.9-2.8
	c0.8-0.8,1.7-1.3,2.7-1.7c0.8-0.3,1.7-0.4,2.5-0.4c0.3,0,0.7,0,1,0c1.2,0.1,2.4,0.5,3.5,1.1c0.9,0.6,1.7,1.3,2.2,2.2
	c0.6,1,0.9,2,1.1,3.1C479.8,341.8,479.8,343,479.7,344.2L479.7,344.2z"/>
<path class="st2" d="M506.7,331l1.7,17.4c0,0.3,0,0.6,0.1,0.8l-14.2-16.8l-0.2-0.2l-3.1,0.3l2.4,23.7l3.1-0.3l-1.8-18.1v-0.3
	l14.5,17.1l3-0.3l-2.4-23.7L506.7,331z"/>
<polygon class="st2" points="544.2,319.7 548.2,329.1 537.6,333.5 533.7,324.1 530.8,325.3 540,347.3 542.8,346.1 538.7,336.2 
	549.3,331.8 553.4,341.7 556.3,340.5 547.1,318.5 "/>
<polygon class="st2" points="568.5,330.1 564.3,323.7 571.3,319.2 569.8,316.7 562.8,321.2 558.8,315 566.4,310.1 564.8,307.7 
	554.5,314.2 567.4,334.3 578.1,327.5 576.5,325 "/>
<path class="st2" d="M589.4,306.3L589.4,306.3c-0.4-0.1-0.8-0.2-1.3-0.3c-0.4-0.1-0.7-0.1-1.1-0.1c0.2-0.4,0.4-0.8,0.5-1.3
	c0.2-0.7,0.4-1.5,0.4-2.3c0-0.8-0.2-1.5-0.5-2.2c-0.3-0.8-0.8-1.4-1.3-2c-0.6-0.7-1.5-1.3-2.4-1.7c-0.8-0.3-1.7-0.5-2.6-0.4
	c-0.9,0.1-1.7,0.3-2.5,0.6c-0.8,0.4-1.6,0.9-2.2,1.5l-5.3,4.7l15.9,17.8l2.3-2.1l-6.6-7.4l1.5-1.3c0.3-0.3,0.6-0.5,1-0.7
	c0.3-0.2,0.7-0.2,1-0.3c0.4,0,0.9,0,1.3,0.1c0.6,0.1,1.2,0.3,1.8,0.5l7.2,2.7l2.7-2.4l-8.4-3C590.3,306.5,589.9,306.4,589.4,306.3z
	 M585,303.6c-0.1,0.6-0.2,1.1-0.5,1.6c-0.3,0.6-0.7,1.1-1.2,1.5l-2.5,2.2l-5.4-6l2.6-2.3c0.8-0.9,2-1.4,3.2-1.5l0,0
	c1,0,2,0.5,2.7,1.3c0.4,0.4,0.7,1,0.9,1.5C585,302.5,585.1,303,585,303.6z"/>
<polygon class="st2" points="605.7,297.9 599.7,293.1 605,286.6 602.7,284.8 597.4,291.3 591.7,286.6 597.4,279.6 595.1,277.8 
	587.5,287.2 606,302.2 613.9,292.4 611.7,290.5 "/>
<path class="st2" d="M607.3,257.6l15.3,8.4l0.7,0.4l-22.1,2.2l-1.5,2.7l20.9,11.5l1.5-2.7l-15.9-8.8l-0.2-0.1l22.4-2.3l1.4-2.6
	l-20.9-11.5L607.3,257.6z"/>
<path class="st2" d="M638.8,238.5l-3.1-1l0.2,0.8c0.3,1.9,0.2,3.9-0.5,5.7c-0.4,1.2-1,2.3-1.8,3.2c-0.7,0.8-1.6,1.4-2.6,1.8
	c-1,0.4-2.1,0.6-3.2,0.6c-1.2,0-2.4-0.2-3.6-0.6c-1.3-0.4-2.4-1-3.5-1.8c-0.9-0.7-1.8-1.6-2.4-2.6c-0.6-1-0.9-2.1-1.1-3.2
	c-0.1-1.3,0-2.6,0.5-3.8c0.5-1.7,1.4-3.2,2.7-4.4l0.6-0.6l-3.3-1l-0.2,0.3c-1.1,1.4-2,3.1-2.5,4.8c-0.5,1.6-0.7,3.3-0.6,5
	c0.2,1.6,0.6,3.1,1.4,4.5c0.8,1.4,1.9,2.6,3.1,3.5c1.4,1,2.9,1.8,4.5,2.3c1.4,0.5,2.9,0.7,4.3,0.7h0.4c1.5,0,2.9-0.4,4.3-1
	c1.3-0.6,2.5-1.5,3.5-2.6c1-1.2,1.8-2.6,2.3-4.1c0.7-2,0.9-4.2,0.7-6.3L638.8,238.5z"/>
<rect x="629" y="212.5" transform="matrix(0.1754 -0.9845 0.9845 0.1754 299.0791 805.8154)" class="st2" width="3.1" height="23.8"/>
<path class="st2" d="M620.7,205.4l23.5,10l0.1-3.4l-6.7-2.7l0.3-9.1l6.8-2.3l0.1-3.4l-24.2,8.1L620.7,205.4z M635,201.1l-0.3,6.9
	l-9.3-3.8l0,0L635,201.1z"/>
</svg>
