<svg id="Capa_1" data-name="Capa 1" xmlns="http://www.w3.org/2000/svg" viewBox="0 0 142.21 143.62"><defs><style>.cls-1{fill:#0f0f0f;}.cls-1,.cls-2{stroke:#231f20;stroke-miterlimit:10;stroke-width:3px;}.cls-2{fill:#fcfcfc;}</style></defs><title>icono3</title><path class="cls-1" d="M768.26,762.18c4.6,0,8.35.41,11.44,3.06.95.81,1.77,1.79.78,2.95-.71.82-1.72.48-2.74,0-11.67-5-26,3.18-27.81,15.89A11.64,11.64,0,0,0,753.46,795c8.85,8.58,17.5,17.38,26.17,26.15,1,1.05,3.31,2.15,1.62,4-2,2.15-3.22-.19-4.39-1.36-8.75-8.69-17.54-17.34-26.13-26.19a11,11,0,0,0-11.33-3.3c-9.07,2.2-14.61,8.29-17.3,16.91a10.75,10.75,0,0,0,1.71,10.42c.75.91,1.52,1.94.2,3-1.58,1.27-2.43-.09-3.22-1.08-2.39-3-2.88-6.59-3-10.9-7.19,5.05-14.59,8.41-23.12,9-28.83,2-50.56-24.95-42-52.55,1.33-4.32.67-7.1-1.86-10.7-12.9-18.35-10.14-44.33,6-59.85a46.49,46.49,0,0,1,60.37-3.78c2.78,2.09,5,2.68,8.45,1.74,17.29-4.69,34.62,1.58,44.56,15.69s9.92,32.32-.09,47.28C769.6,760.13,769.17,760.8,768.26,762.18ZM732.21,792c3.89-5.56,9.18-9.9,14.55-15.38H734.36c-.8,0-2-.08-1.81,1,.92,4.82-1.87,9.54-.31,14.35l-.68-.24ZM756,767.4c11.58-7.26,17.23-17.05,17.77-29.32,1.22-27.44-23.56-46-49.71-37.47-2.67.87-4.35.84-6.65-1.06-13.49-11.13-28.7-13.71-44.82-7.09s-24.88,19.6-26.31,36.94c-.92,11.26,2.43,21.46,10,30.43.78-1.31,1.25-2.2,1.81-3,7.13-10.48,16.23-18,29.35-19.38,1.64-.17,4.34-1.15,4.72,1.24.44,2.75-2.45,2.12-4,2.26-9.72.87-17.18,5.72-23.39,12.9-11.65,13.48-13.79,31.43-5.47,45.85,8.05,14,24,21,40.62,17.48,9.85-2.12,17.7-7.46,23.32-17a39.81,39.81,0,0,1-19.48-2.5c-4-1.54-4-3.35-1.5-6.1,2.1-2.32,5.9-4.6,5.9-6.88s-3.66-4.75-5.82-7c-3-3.19-2.12-5.11,1.8-6.28,2.85-.85,7-1,8.14-2.91s-.78-5.55-1.31-8.45c-.15-.82-.14-1.66-.22-2.49-.19-2.1.7-3.34,2.86-2.92,3.58.7,8.21,3.36,10.38,2,2.5-1.57,2.75-6.64,4.07-10.16,1-2.66,2.69-2.57,4.61-.89l7.94,7c2.33-2.09,4.82-4.27,7.24-6.53,2.82-2.63,4.62-1.83,5.79,1.55C755.8,753.65,757.45,759.84,756,767.4ZM705,794.05a25.54,25.54,0,0,0,8.54,2.53c10.74,1.54,14.19-1.08,15.26-11.76.1-1,.12-2,.13-3,.15-8.49.15-8.46,8.27-8.65a36.31,36.31,0,0,0,5-.54c9.87-1.6,11.4-3.42,10.73-13.4-.23-3.41-.14-8.2-2.93-9.39-2.3-1-4.83,3.32-6.66,5.78-2.29,3.08-3.68,2.34-5.56-.32a20.51,20.51,0,0,0-6.56-6.21,21.51,21.51,0,0,0-2.71,9.05c-.35,3-1.27,4.22-4.45,2.75-2.81-1.3-7-3.62-8.67-1.88-2,2.18.46,6.16,1.75,9.11s.55,3.94-2.44,4.23c-3.22.32-8.13.34-8.74,2.89s3.63,5,6.27,7c2.19,1.62,2.39,2.93,0,4.56A31.19,31.19,0,0,0,705,794.05Zm33.88-3.74c7.95,0,7.95,0,6.32-6.68C742.47,785,740.65,787.23,738.86,790.31Z" transform="translate(-641.15 -683.89)"/><path class="cls-2" d="M705,794.05a31.19,31.19,0,0,1,7.23-7.24c2.35-1.64,2.15-2.95,0-4.56-2.64-2-6.91-4.31-6.27-7s5.52-2.57,8.74-2.89c3-.3,3.67-1.39,2.44-4.23s-3.79-6.94-1.75-9.11c1.64-1.75,5.87.57,8.67,1.88,3.18,1.47,4.1.28,4.45-2.75a21.51,21.51,0,0,1,2.71-9.05,20.51,20.51,0,0,1,6.56,6.21c1.89,2.66,3.27,3.39,5.56.32,1.83-2.45,4.36-6.76,6.66-5.78,2.79,1.19,2.7,6,2.93,9.39.67,10-.85,11.79-10.73,13.4a36.31,36.31,0,0,1-5,.54c-8.12.19-8.12.16-8.27,8.65,0,1,0,2-.13,3-1.07,10.67-4.52,13.3-15.26,11.76A25.54,25.54,0,0,1,705,794.05Z" transform="translate(-641.15 -683.89)"/><path class="cls-2" d="M732.24,791.94c-1.56-4.81,1.23-9.53.31-14.35-.21-1.09,1-1,1.81-1h12.41c-5.37,5.48-10.66,9.82-14.55,15.38Z" transform="translate(-641.15 -683.89)"/><path class="cls-2" d="M738.86,790.31c1.79-3.09,3.61-5.31,6.32-6.68C746.81,790.36,746.81,790.36,738.86,790.31Z" transform="translate(-641.15 -683.89)"/><path class="cls-2" d="M732.21,792l-.65-.25.68.24Z" transform="translate(-641.15 -683.89)"/></svg>