<svg id="Capa_1" data-name="Capa 1" xmlns="http://www.w3.org/2000/svg" viewBox="0 0 968.31 668.44"><defs><style>.cls-1,.cls-2{fill:#494949;}.cls-2{stroke:#494949;stroke-miterlimit:10;stroke-width:0.25px;}.cls-3{fill:#b28619;}</style></defs><title>logo2</title><path class="cls-1" d="M301.07,968.51V933H259.72v35.49h-7V892.67h7v34h41.36v-34h7v75.84Z" transform="translate(-252.69 -388.98)"/><path class="cls-1" d="M347.81,968.51h-7V892.67h7Z" transform="translate(-252.69 -388.98)"/><path class="cls-1" d="M380.54,968.51V892.67h7v69.44H418v6.4Z" transform="translate(-252.69 -388.98)"/><path class="cls-1" d="M496.08,968.51l-8.36-22.42H455.2l-8.14,22.42h-7.83l28.87-75.84h7.09l28.72,75.84ZM473,905.95q-.37-1-.77-2.33a22.75,22.75,0,0,1-.66-3h-.21a29.58,29.58,0,0,1-.71,3q-.4,1.32-.77,2.33l-12.27,33.74h27.77Z" transform="translate(-252.69 -388.98)"/><path class="cls-1" d="M580.78,968.51l-42.1-60.87q-.79-1.16-1.56-2.38a15.28,15.28,0,0,1-1.24-2.38h-.27q.11,1,.19,2.65t.08,4.23v58.75h-7V892.67h7.77L578,952.8q1,1.43,1.72,2.67t1.4,2.3h.26c-.14-1.16-.25-2.47-.32-3.91s-.11-3-.11-4.81V892.67h7.09v75.84Z" transform="translate(-252.69 -388.98)"/><path class="cls-1" d="M620.75,968.51V892.67h19.94q19.46,0,29.4,9.33T680,929.59a44,44,0,0,1-2.78,16,34,34,0,0,1-8,12.29,35.84,35.84,0,0,1-12.69,7.88,48,48,0,0,1-16.82,2.78Zm7-69.38v63h11.63a43,43,0,0,0,14-2.11,28.06,28.06,0,0,0,10.45-6.21,26.7,26.7,0,0,0,6.53-10.13,39.53,39.53,0,0,0,2.25-13.86q0-30.67-32.42-30.67Z" transform="translate(-252.69 -388.98)"/><path class="cls-1" d="M739.1,969.83a35.22,35.22,0,0,1-14.75-3,32.76,32.76,0,0,1-11.13-8.17,36.42,36.42,0,0,1-7-12.19,45.12,45.12,0,0,1-2.46-15,51.18,51.18,0,0,1,2.46-16.26,35.56,35.56,0,0,1,7.17-12.64,32.46,32.46,0,0,1,11.53-8.2,39,39,0,0,1,15.55-2.94,34.79,34.79,0,0,1,14.44,2.88,31.67,31.67,0,0,1,10.89,8,35.64,35.64,0,0,1,6.9,12.08,46.32,46.32,0,0,1,2.41,15.18,52.37,52.37,0,0,1-2.35,16,36.81,36.81,0,0,1-6.93,12.77,32.1,32.1,0,0,1-11.26,8.46A36.66,36.66,0,0,1,739.1,969.83Zm.58-72a27.21,27.21,0,0,0-12.19,2.62,26.58,26.58,0,0,0-9,7.08A31,31,0,0,0,713,918a43.67,43.67,0,0,0-1.93,12.77,42.62,42.62,0,0,0,1.67,12.35,31.4,31.4,0,0,0,5.18,10.42,25.38,25.38,0,0,0,8.75,7.22A26.92,26.92,0,0,0,739,963.43,29.63,29.63,0,0,0,751.5,961a24.85,24.85,0,0,0,9-6.82,29.65,29.65,0,0,0,5.42-10.39,45.29,45.29,0,0,0,1.82-13.17A48.33,48.33,0,0,0,766.1,918a29.83,29.83,0,0,0-5-10.45,24.35,24.35,0,0,0-8.7-7.08A28.34,28.34,0,0,0,739.68,897.8Z" transform="translate(-252.69 -388.98)"/><path class="cls-1" d="M886.88,968.51l-8.36-22.42H846l-8.14,22.42H830l28.88-75.84H866l28.72,75.84Zm-23.11-62.56q-.37-1-.77-2.33a22.76,22.76,0,0,1-.66-3h-.21a29.56,29.56,0,0,1-.71,3q-.4,1.32-.77,2.33l-12.27,33.74h27.76Z" transform="translate(-252.69 -388.98)"/><path class="cls-1" d="M919.66,968.51V892.67h7v69.44h30.46v6.4Z" transform="translate(-252.69 -388.98)"/><path class="cls-1" d="M1014.51,957.4a26.49,26.49,0,0,0,4.2,2.57,33.42,33.42,0,0,0,4.71,1.9,33.92,33.92,0,0,0,4.84,1.16,28.82,28.82,0,0,0,4.65.4q8.62,0,12.9-3.33t4.28-9.57a12.82,12.82,0,0,0-1-5.26,13,13,0,0,0-3.12-4.2,32.54,32.54,0,0,0-5.34-3.89q-3.23-1.93-7.62-4.36-4.87-2.65-8.33-5A30.47,30.47,0,0,1,1019,923a16.26,16.26,0,0,1-3.23-5.31,19.11,19.11,0,0,1-1-6.51,17.19,17.19,0,0,1,2-8.25,19.23,19.23,0,0,1,5.29-6.21,24.47,24.47,0,0,1,7.8-3.94,32.25,32.25,0,0,1,9.55-1.38,39.38,39.38,0,0,1,15,2.49v7.77a31.08,31.08,0,0,0-15.76-3.86,24,24,0,0,0-6.37.82A16.61,16.61,0,0,0,1027,901a11.63,11.63,0,0,0-3.54,3.94,11.16,11.16,0,0,0-1.3,5.47,13.53,13.53,0,0,0,.87,5.11,12.15,12.15,0,0,0,2.8,4,26.6,26.6,0,0,0,5.08,3.78q3.15,1.88,7.7,4.31a90.9,90.9,0,0,1,8.3,4.94,32.21,32.21,0,0,1,5.9,5,18.56,18.56,0,0,1,3.52,5.55,17.6,17.6,0,0,1,1.16,6.53,19.68,19.68,0,0,1-1.85,8.75,17.07,17.07,0,0,1-5.18,6.27,23.58,23.58,0,0,1-7.93,3.75,37.66,37.66,0,0,1-14.38,1q-2.49-.29-5-.85a47.07,47.07,0,0,1-4.84-1.32,17.39,17.39,0,0,1-3.73-1.67Z" transform="translate(-252.69 -388.98)"/><path class="cls-1" d="M1139.73,938q0,31.78-27.92,31.78-26.6,0-26.6-30.62V892.67h7v45.9q0,12.48,5,18.67t15.55,6.19q19.88,0,19.88-24.11V892.67h7Z" transform="translate(-252.69 -388.98)"/><path class="cls-1" d="M1212.75,968.51l-11.42-21.73a43.25,43.25,0,0,0-3.28-5.4,16.86,16.86,0,0,0-3.28-3.46,10.86,10.86,0,0,0-3.62-1.85,15.58,15.58,0,0,0-4.31-.56h-8.36v33h-7V892.67h21.84a27.16,27.16,0,0,1,8.28,1.27,22,22,0,0,1,7.11,3.75,18.35,18.35,0,0,1,5,6.24,19.29,19.29,0,0,1,1.88,8.73,21.73,21.73,0,0,1-1.22,7.4,19,19,0,0,1-3.46,6,20.48,20.48,0,0,1-5.45,4.44,25.9,25.9,0,0,1-7.22,2.73v.21a11.71,11.71,0,0,1,2.8,1.64,16.9,16.9,0,0,1,2.46,2.43,30.35,30.35,0,0,1,2.35,3.28q1.16,1.85,2.43,4.23L1221,968.51Zm-34.27-69.38v30h12.59a21,21,0,0,0,7-1.11,15.41,15.41,0,0,0,5.42-3.17,14.22,14.22,0,0,0,3.49-5,16.54,16.54,0,0,0,1.24-6.56q0-6.61-4.26-10.39t-12.3-3.78Z" transform="translate(-252.69 -388.98)"/><path class="cls-2" d="M435.57,1056.55a6.34,6.34,0,0,1-2.89.66q-5,0-5-5.73v-13h-3.61v-2.24h3.61v-5.17l2.57-.84v6h5.29v2.24h-5.29v12.57a5.13,5.13,0,0,0,.68,3,2.67,2.67,0,0,0,2.3.92,4.15,4.15,0,0,0,2.31-.72Z" transform="translate(-252.69 -388.98)"/><path class="cls-2" d="M453.83,1047a11.5,11.5,0,0,0,.5,3.39,7.16,7.16,0,0,0,1.38,2.55,6,6,0,0,0,2.19,1.59,7.36,7.36,0,0,0,2.92.55,10.43,10.43,0,0,0,6.55-2.43v2.53a12,12,0,0,1-7.13,2.1,9.42,9.42,0,0,1-3.75-.72,7.78,7.78,0,0,1-2.87-2.09,9.58,9.58,0,0,1-1.82-3.38,14.94,14.94,0,0,1-.64-4.57,12.6,12.6,0,0,1,.7-4.27,10.5,10.5,0,0,1,1.94-3.4,9,9,0,0,1,2.95-2.24,8.55,8.55,0,0,1,3.73-.81,8.44,8.44,0,0,1,3.51.69,6.89,6.89,0,0,1,2.55,2,9,9,0,0,1,1.57,3.13,14.66,14.66,0,0,1,.54,4.13V1047Zm12.18-2.24a7.81,7.81,0,0,0-1.52-5,5,5,0,0,0-4.07-1.76,6.26,6.26,0,0,0-2.42.46,5.75,5.75,0,0,0-2,1.33,7.18,7.18,0,0,0-1.39,2.12,10.64,10.64,0,0,0-.77,2.82Z" transform="translate(-252.69 -388.98)"/><path class="cls-2" d="M494.06,1046.69l6.73,10.1h-3.09l-4.17-6.79-.49-.78q-.25-.4-.51-.86h-.08q-.1.2-.31.53l-.51.83-4.49,7.07h-3l6.93-10-6.71-10.48h3l4.27,7.19.56,1,.4.71h.08q.26-.38.48-.77l.46-.79,4.53-7.31H501Z" transform="translate(-252.69 -388.98)"/><path class="cls-2" d="M526.85,1056.55a6.34,6.34,0,0,1-2.89.66q-5,0-5-5.73v-13h-3.61v-2.24H519v-5.17l2.57-.84v6h5.29v2.24h-5.29v12.57a5.14,5.14,0,0,0,.68,3,2.68,2.68,0,0,0,2.31.92,4.14,4.14,0,0,0,2.3-.72Z" transform="translate(-252.69 -388.98)"/><path class="cls-2" d="M545.48,1031.08a1.78,1.78,0,0,1-1.28-.52,1.76,1.76,0,0,1-.54-1.32,1.7,1.7,0,0,1,.54-1.29,1.81,1.81,0,0,1,1.28-.51,2,2,0,0,1,.72.13,1.76,1.76,0,0,1,.59.37,1.84,1.84,0,0,1,.4.57,1.76,1.76,0,0,1,.15.73,1.86,1.86,0,0,1-.14.72,1.67,1.67,0,0,1-.4.59,1.91,1.91,0,0,1-.59.39A1.84,1.84,0,0,1,545.48,1031.08Zm-1.26,25.71v-20.52h2.57v20.52Z" transform="translate(-252.69 -388.98)"/><path class="cls-2" d="M566.52,1056.79v-30.38h2.57v30.38Z" transform="translate(-252.69 -388.98)"/><path class="cls-2" d="M590.06,1047a11.46,11.46,0,0,0,.5,3.39,7.16,7.16,0,0,0,1.38,2.55,6,6,0,0,0,2.19,1.59,7.36,7.36,0,0,0,2.91.55,10.43,10.43,0,0,0,6.55-2.43v2.53a12,12,0,0,1-7.13,2.1,9.42,9.42,0,0,1-3.75-.72,7.76,7.76,0,0,1-2.86-2.09,9.58,9.58,0,0,1-1.82-3.38,15,15,0,0,1-.64-4.57,12.57,12.57,0,0,1,.7-4.27,10.5,10.5,0,0,1,1.94-3.4,9,9,0,0,1,2.95-2.24,8.54,8.54,0,0,1,3.73-.81,8.43,8.43,0,0,1,3.51.69,6.9,6.9,0,0,1,2.56,2,9,9,0,0,1,1.57,3.13,14.66,14.66,0,0,1,.54,4.13V1047Zm12.18-2.24a7.82,7.82,0,0,0-1.52-5,5,5,0,0,0-4.07-1.76,6.26,6.26,0,0,0-2.41.46,5.76,5.76,0,0,0-2,1.33,7.15,7.15,0,0,0-1.39,2.12,10.7,10.7,0,0,0-.77,2.82Z" transform="translate(-252.69 -388.98)"/><path class="cls-2" d="M621.89,1053.1a8.25,8.25,0,0,0,1.26.82,11,11,0,0,0,1.4.62,9,9,0,0,0,1.45.39,8.07,8.07,0,0,0,1.39.13q4.57,0,4.57-3.43a2.7,2.7,0,0,0-.32-1.35,3.49,3.49,0,0,0-.92-1,7.7,7.7,0,0,0-1.44-.87c-.56-.27-1.2-.55-1.9-.84a19,19,0,0,1-2.44-1.18,7.37,7.37,0,0,1-1.68-1.31,4.74,4.74,0,0,1-1-1.56,5.49,5.49,0,0,1-.32-1.93,4.9,4.9,0,0,1,.59-2.42,5.63,5.63,0,0,1,1.59-1.8,7.37,7.37,0,0,1,2.31-1.13,9.54,9.54,0,0,1,2.76-.39,10.18,10.18,0,0,1,4.65,1v2.7a9,9,0,0,0-5-1.48,6,6,0,0,0-1.75.24,4.1,4.1,0,0,0-1.35.68,3.16,3.16,0,0,0-.87,1.05,3,3,0,0,0-.31,1.35,3.43,3.43,0,0,0,.24,1.34,2.91,2.91,0,0,0,.75,1,6.34,6.34,0,0,0,1.32.88q.81.42,2,.9a24.59,24.59,0,0,1,2.57,1.19,7.91,7.91,0,0,1,1.78,1.28,4.49,4.49,0,0,1,1,1.54,5.29,5.29,0,0,1,.34,2,5.22,5.22,0,0,1-.57,2.47,5.28,5.28,0,0,1-1.58,1.82,7.23,7.23,0,0,1-2.37,1.12,11,11,0,0,1-3,.38,9.83,9.83,0,0,1-5.23-1.3Z" transform="translate(-252.69 -388.98)"/><path class="cls-2" d="M690.88,1055.87a10.75,10.75,0,0,1-5.53,1.42,9.49,9.49,0,0,1-4-.76,8.73,8.73,0,0,1-3-2.18,9.66,9.66,0,0,1-1.9-3.29,12.4,12.4,0,0,1-.66-4.12,13.19,13.19,0,0,1,.7-4.34,10.34,10.34,0,0,1,2-3.55,9.67,9.67,0,0,1,3.29-2.4,10.69,10.69,0,0,1,4.45-.88,10.9,10.9,0,0,1,4.65,1v2.73a8.65,8.65,0,0,0-4.85-1.48,7.32,7.32,0,0,0-3.25.69,7,7,0,0,0-2.4,1.89,8.4,8.4,0,0,0-1.48,2.78,11,11,0,0,0-.51,3.38,11.35,11.35,0,0,0,.43,3.15,7.81,7.81,0,0,0,1.32,2.66,6.44,6.44,0,0,0,2.25,1.83,7.07,7.07,0,0,0,3.21.68,8.53,8.53,0,0,0,5.21-1.72Z" transform="translate(-252.69 -388.98)"/><path class="cls-2" d="M717.34,1057.27a10.53,10.53,0,0,1-4.1-.76,8.76,8.76,0,0,1-3.1-2.16,9.47,9.47,0,0,1-2-3.34,12.94,12.94,0,0,1-.68-4.31,13.62,13.62,0,0,1,.72-4.59,9.66,9.66,0,0,1,2.05-3.44,8.78,8.78,0,0,1,3.22-2.16,11.45,11.45,0,0,1,4.21-.74,10.44,10.44,0,0,1,4,.73,8.15,8.15,0,0,1,3,2.11,9.4,9.4,0,0,1,1.9,3.37,14.22,14.22,0,0,1,.66,4.51,13.15,13.15,0,0,1-.69,4.38,9.87,9.87,0,0,1-2,3.4,8.71,8.71,0,0,1-3.13,2.2A10.56,10.56,0,0,1,717.34,1057.27Zm.2-19.26a7.7,7.7,0,0,0-3,.58,6.4,6.4,0,0,0-2.33,1.69,7.64,7.64,0,0,0-1.49,2.73,11.85,11.85,0,0,0-.52,3.66,10.77,10.77,0,0,0,.52,3.47,7.83,7.83,0,0,0,1.47,2.65,6.39,6.39,0,0,0,2.31,1.69,8.26,8.26,0,0,0,6.09,0,6,6,0,0,0,2.24-1.66,7.31,7.31,0,0,0,1.39-2.68,12.64,12.64,0,0,0,.47-3.61q0-4.15-1.84-6.34A6.5,6.5,0,0,0,717.54,1038Z" transform="translate(-252.69 -388.98)"/><path class="cls-2" d="M759.45,1056.79V1045q0-7-5-7a5.83,5.83,0,0,0-2.48.53,6,6,0,0,0-2,1.47,7,7,0,0,0-1.3,2.23,8.12,8.12,0,0,0-.47,2.8v11.74H745.6v-20.52h2.57v3.57h.08a7.41,7.41,0,0,1,6.87-4,6.21,6.21,0,0,1,5.13,2.18,9.85,9.85,0,0,1,1.76,6.31v12.5Z" transform="translate(-252.69 -388.98)"/><path class="cls-2" d="M819.54,1056.79v-12.06a8.4,8.4,0,0,0-1.24-5.08,4.55,4.55,0,0,0-3.87-1.63,5.75,5.75,0,0,0-4.33,1.94,7.08,7.08,0,0,0-1.34,2.29,8.76,8.76,0,0,0-.5,3.06v11.48h-2.57v-30.38h2.57v13.41h.08a7.6,7.6,0,0,1,6.89-4,6.27,6.27,0,0,1,5.15,2.1q1.72,2.11,1.72,6.21v12.68Z" transform="translate(-252.69 -388.98)"/><path class="cls-2" d="M842.64,1047a11.46,11.46,0,0,0,.5,3.39,7.16,7.16,0,0,0,1.38,2.55,6,6,0,0,0,2.19,1.59,7.36,7.36,0,0,0,2.91.55,10.43,10.43,0,0,0,6.55-2.43v2.53a12,12,0,0,1-7.13,2.1,9.42,9.42,0,0,1-3.75-.72,7.76,7.76,0,0,1-2.86-2.09,9.58,9.58,0,0,1-1.82-3.38,15,15,0,0,1-.64-4.57,12.57,12.57,0,0,1,.7-4.27,10.5,10.5,0,0,1,1.94-3.4,9,9,0,0,1,2.95-2.24,8.54,8.54,0,0,1,3.73-.81,8.43,8.43,0,0,1,3.51.69,6.9,6.9,0,0,1,2.56,2,9,9,0,0,1,1.57,3.13,14.66,14.66,0,0,1,.54,4.13V1047Zm12.18-2.24a7.82,7.82,0,0,0-1.52-5,5,5,0,0,0-4.07-1.76,6.26,6.26,0,0,0-2.41.46,5.76,5.76,0,0,0-2,1.33,7.15,7.15,0,0,0-1.39,2.12,10.7,10.7,0,0,0-.77,2.82Z" transform="translate(-252.69 -388.98)"/><path class="cls-2" d="M885.81,1038.89a3.82,3.82,0,0,0-2.32-.66,4,4,0,0,0-1.8.39,4.53,4.53,0,0,0-1.37,1.05,6.31,6.31,0,0,0-1,1.53,10.68,10.68,0,0,0-.66,1.81,13.28,13.28,0,0,0-.36,1.9,15.8,15.8,0,0,0-.11,1.82v10h-2.55v-20.52h2.55v4.39h.08a9.1,9.1,0,0,1,.91-2,6.21,6.21,0,0,1,1.27-1.5,5.34,5.34,0,0,1,1.57-.93,5.06,5.06,0,0,1,1.79-.32,7.06,7.06,0,0,1,1.11.08,4.45,4.45,0,0,1,.89.24Z" transform="translate(-252.69 -388.98)"/><path class="cls-2" d="M903.35,1047a11.46,11.46,0,0,0,.5,3.39,7.16,7.16,0,0,0,1.38,2.55,6,6,0,0,0,2.19,1.59,7.36,7.36,0,0,0,2.91.55,10.43,10.43,0,0,0,6.55-2.43v2.53a12,12,0,0,1-7.13,2.1,9.42,9.42,0,0,1-3.75-.72,7.76,7.76,0,0,1-2.86-2.09,9.58,9.58,0,0,1-1.82-3.38,15,15,0,0,1-.64-4.57,12.57,12.57,0,0,1,.7-4.27,10.5,10.5,0,0,1,1.94-3.4,9,9,0,0,1,2.95-2.24,8.54,8.54,0,0,1,3.73-.81,8.43,8.43,0,0,1,3.51.69,6.9,6.9,0,0,1,2.56,2,9,9,0,0,1,1.57,3.13,14.66,14.66,0,0,1,.54,4.13V1047Zm12.18-2.24a7.82,7.82,0,0,0-1.52-5,5,5,0,0,0-4.07-1.76,6.26,6.26,0,0,0-2.41.46,5.76,5.76,0,0,0-2,1.33,7.15,7.15,0,0,0-1.39,2.12,10.7,10.7,0,0,0-.77,2.82Z" transform="translate(-252.69 -388.98)"/><path class="cls-2" d="M950.19,1056.79V1045q0-7-5-7a5.83,5.83,0,0,0-2.48.53,6,6,0,0,0-2,1.47,7,7,0,0,0-1.3,2.23,8.12,8.12,0,0,0-.47,2.8v11.74h-2.57v-20.52h2.57v3.57H939a7.41,7.41,0,0,1,6.87-4A6.21,6.21,0,0,1,951,1038a9.85,9.85,0,0,1,1.76,6.31v12.5Z" transform="translate(-252.69 -388.98)"/><path class="cls-2" d="M985.71,1055.87a10.75,10.75,0,0,1-5.53,1.42,9.48,9.48,0,0,1-4-.76,8.7,8.7,0,0,1-3-2.18,9.64,9.64,0,0,1-1.9-3.29,12.4,12.4,0,0,1-.66-4.12,13.22,13.22,0,0,1,.7-4.34,10.39,10.39,0,0,1,2-3.55,9.7,9.7,0,0,1,3.29-2.4,10.69,10.69,0,0,1,4.45-.88,10.89,10.89,0,0,1,4.65,1v2.73a8.64,8.64,0,0,0-4.85-1.48,7.33,7.33,0,0,0-3.25.69,7,7,0,0,0-2.39,1.89,8.4,8.4,0,0,0-1.48,2.78,11,11,0,0,0-.51,3.38,11.35,11.35,0,0,0,.43,3.15,7.76,7.76,0,0,0,1.32,2.66,6.43,6.43,0,0,0,2.25,1.83,7.06,7.06,0,0,0,3.21.68,8.53,8.53,0,0,0,5.21-1.72Z" transform="translate(-252.69 -388.98)"/><path class="cls-2" d="M1005,1031.08a1.78,1.78,0,0,1-1.28-.52,1.76,1.76,0,0,1-.54-1.32,1.7,1.7,0,0,1,.54-1.29,1.81,1.81,0,0,1,1.28-.51,2,2,0,0,1,.72.13,1.77,1.77,0,0,1,.59.37,1.86,1.86,0,0,1,.4.57,1.76,1.76,0,0,1,.15.73,1.89,1.89,0,0,1-.14.72,1.71,1.71,0,0,1-.4.59,1.92,1.92,0,0,1-.59.39A1.84,1.84,0,0,1,1005,1031.08Zm-1.26,25.71v-20.52h2.57v20.52Z" transform="translate(-252.69 -388.98)"/><path class="cls-2" d="M1037.9,1056.79v-3.65h-.08a7.54,7.54,0,0,1-2.74,3,7.24,7.24,0,0,1-3.92,1.08,8,8,0,0,1-2.67-.42,5.76,5.76,0,0,1-2-1.19,5.26,5.26,0,0,1-1.28-1.85,6.16,6.16,0,0,1-.45-2.39,5.86,5.86,0,0,1,1.72-4.44,9.28,9.28,0,0,1,5.21-2.15l6.23-.9q0-5.91-4.59-5.91a10,10,0,0,0-6.65,2.63v-2.81a8.57,8.57,0,0,1,1.45-.83,13.06,13.06,0,0,1,1.71-.64,14.09,14.09,0,0,1,1.85-.42,11.63,11.63,0,0,1,1.85-.15,6.66,6.66,0,0,1,5.18,1.92q1.75,1.92,1.75,5.73v13.34Zm-5.29-10a16.14,16.14,0,0,0-2.36.5,4.9,4.9,0,0,0-1.62.81,3,3,0,0,0-.94,1.26,5,5,0,0,0-.3,1.85,3.94,3.94,0,0,0,.29,1.52,3.41,3.41,0,0,0,.84,1.21,3.81,3.81,0,0,0,1.34.79,5.32,5.32,0,0,0,1.79.28,5.92,5.92,0,0,0,4.48-2,6.71,6.71,0,0,0,1.3-2.2,8,8,0,0,0,.47-2.79v-2Z" transform="translate(-252.69 -388.98)"/><path class="cls-3" d="M870.71,588.31c0-72.19-58.73-130.92-130.92-130.92S608.87,516.12,608.87,588.31,667.6,719.23,739.79,719.23,870.71,660.5,870.71,588.31Zm-34.39,84a129.77,129.77,0,0,1-13.09,13v-14C827.49,671.76,831.88,672.11,836.32,672.26ZM851.89,650a128.86,128.86,0,0,1-13.14,19.36,144,144,0,0,1-15.52-1.12V646.82A142.48,142.48,0,0,0,851.89,650ZM657.15,670.3V686a129.53,129.53,0,0,1-14.42-14.32A141,141,0,0,0,657.15,670.3Zm0-19.89v16.94a137.29,137.29,0,0,1-16.8,1.44A128.74,128.74,0,0,1,627.12,649a139.21,139.21,0,0,0,21.76,1.69C651.51,650.65,654.29,650.57,657.15,650.41Zm115.31-40.87a131.37,131.37,0,0,0-14.5,0,139,139,0,0,0-16.7,2V595.44a172.91,172.91,0,0,1,21.4-4.25h9.8Zm-14.34,2.9a128.33,128.33,0,0,1,14.34,0v20.31a145.52,145.52,0,0,0-20.69-1.58l-2.37,0c-2.6,0-5.27.18-8.14.41V614.47a137.1,137.1,0,0,1,16.86-2Zm-16.86,22.14c2.89-.24,5.58-.38,8.19-.42h0a139.49,139.49,0,0,1,23,1.58v6c0,7-.75,8.84-1.07,9.32-1.26,1.91-3.81,2.88-7.59,2.88h-8.7a132.53,132.53,0,0,0-13.84-1Zm13.06,22.33h9.47a20.52,20.52,0,0,0,2.52-.16c3.5-.43,6-1.78,7.5-4,.73-1.07,1.57-3.28,1.57-11v-52a1.47,1.47,0,0,0-1.46-1.46H705.46a1.45,1.45,0,0,0-1.4,1,1.43,1.43,0,0,0-.06.42v52.86c0,7.44.81,9.46,1.51,10.4a9.75,9.75,0,0,0,5.87,3.5,18.35,18.35,0,0,0,4,.42h10.28v4.67H664.6V656.9h10.79a10.45,10.45,0,0,0,6-1.57,9.21,9.21,0,0,0,3.41-4.52,20.16,20.16,0,0,0,.52-5.09c0-.59,0-1.26,0-2s0-1.25,0-2V533.62c0-6-.73-9.79-2.23-11.54l-.27-.29a5.7,5.7,0,0,0-.84-.69,7.16,7.16,0,0,0-1-.53,17.35,17.35,0,0,0-7.19-1.18H664.6v-4.67h61.07v4.67H715.39c-4.61,0-7.6.88-9.16,2.69S704,527.6,704,533.62V579.8a1.46,1.46,0,0,0,1.46,1.46h68.45a1.46,1.46,0,0,0,1.46-1.46V533.62c0-6.4-.66-10-2.13-11.7s-4.58-2.52-9.46-2.52h-9.47v-4.67H815v4.67H804.8c-3.21,0-5.47.44-6.91,1.34a7.72,7.72,0,0,0-2.23,2.22c-.19.28-.38.57-.55.89s-.32.62-.5,1c-.07.15-.13.3-.21.47-.32.91-.69,2.82-.69,9.5V642.58c0,7.38.87,9.39,1.62,10.31,2,2.67,5.67,4,10.78,4H815v4.67H754.32Zm-21.4-40.75v16.41a264.13,264.13,0,0,0-26,5.23V622.73l6.79-1.78C719.93,619.3,726.35,617.6,732.92,616.15Zm0-3c-6.88,1.51-13.82,3.35-19.95,5l-6,1.59v-15c7-1.62,13.92-3.59,20-5.33l5.94-1.67Zm0-18.51-6.74,1.9c-5.88,1.67-12.52,3.55-19.25,5.14V591.18h26Zm-9.46,104.63c3,.28,6.15.68,9.46,1.24v15.6a126.32,126.32,0,0,1-52.15-14.27C696.73,698.95,710.71,698.1,723.46,699.27Zm84.38-59.07.3-.1a33.4,33.4,0,0,1,6.75-1.55v3.36ZM664.43,687.36l.43-.11c21.78-5.4,44.31-11,67.26-9.69l.79.05v19.93c-3.21-.53-6.23-.92-9.19-1.19-13.92-1.28-29.3-.2-47,3.28a129,129,0,0,1-12.28-7.95ZM856.5,627.09a21.07,21.07,0,0,1-25,10.43c1.1-.76,2.35-1.72,3.55-2.72,4.67-3.87,7.22-7,7.57-9.32a3,3,0,0,0-.25-1.85,2.69,2.69,0,0,0-.45-.63c-1-1.05-3-1.48-5.85-1.28a36.06,36.06,0,0,0-5.15.8c-2.66.59-5,1.32-6.13,1.7-.3-1.2-.62-2.3-1-3.27a21.73,21.73,0,0,0-.91-2.26c-1.13-2.36-2.45-3.57-3.93-3.58a3.87,3.87,0,0,0-3.06,2,12.43,12.43,0,0,0-1,1.82,31.58,31.58,0,0,0-1.8,5.19c-2.7-.89-12.93-4-16.47-1.52v-37l.56-.08a10.45,10.45,0,0,1,6.49,1.33l.07,0,.1.05a4,4,0,0,1,.92.62,6.86,6.86,0,0,1,2,3.07,10.17,10.17,0,0,1,.43,1.94c0,.27.06.56.08.86a15,15,0,0,1,0,2.07,1.46,1.46,0,0,0,1.35,1.57h.11a1.47,1.47,0,0,0,1.46-1.35,18.08,18.08,0,0,0,0-2.91,14.34,14.34,0,0,0-.33-2.09,9.72,9.72,0,0,0-3.78-5.88,13,13,0,0,1,25.68,1,1.46,1.46,0,0,0,2.22,1.1,10.47,10.47,0,0,1,15.89,9.84c-3.34-1.54-10.65-4.09-18.41-1.55a21.37,21.37,0,0,0-3,1.27l-.17.08-.32.16a1.46,1.46,0,0,0,1.39,2.57c.47-.25,1-.49,1.55-.74q.5-.21,1-.39a18.53,18.53,0,0,1,3.92-.92,24.86,24.86,0,0,1,12.61,2.08c1,.46,1.67.81,1.75.85.5.35,1,.76,1.57,1.25a21.34,21.34,0,0,1,2.45,2.51,21,21,0,0,1,4.75,14.69,20.51,20.51,0,0,1-1.52,6.59C857.11,625.87,856.82,626.49,856.5,627.09ZM682.34,646.78a15.48,15.48,0,0,1-.32,3.08,6.24,6.24,0,0,1-2.29,3.05,7.64,7.64,0,0,1-4.34,1.06h-11v-4.15c4.62-.49,9.2-1.2,13.61-2.11Q680.19,647.26,682.34,646.78ZM631.13,604a16.83,16.83,0,0,1,4.71-5.34,1.47,1.47,0,0,0,.54-1.58,8.15,8.15,0,0,1,6.86-10.3,8.24,8.24,0,0,1,5.12,1.06l.1.05a3.47,3.47,0,0,1,.94.72,6.19,6.19,0,0,1,1.56,3.7,11.27,11.27,0,0,1,0,2.17,1.46,1.46,0,0,0,1.35,1.57h.11a1.47,1.47,0,0,0,1.46-1.35c.41-5.37-2-7.92-3.28-8.9a10.16,10.16,0,0,1,20.06,1,1.46,1.46,0,0,0,2.22,1.1,8.13,8.13,0,0,1,5.15-1.14,8,8,0,0,1,4.38,1.92v5.42a19,19,0,0,0-14.68,1.19,1.46,1.46,0,1,0,1.39,2.57,14.3,14.3,0,0,1,1.58-.73,17.16,17.16,0,0,1,11.71.07v30.24a16.18,16.18,0,0,1-5.72,1.35,16.92,16.92,0,0,1-4.82-.46l-.46-.12c.43-.31.88-.65,1.32-1,1.11-.87,2.19-1.79,3.12-2.67,3.57-3.36,4.81-5.75,3.91-7.53-1.78-3.51-11.24-.74-14.19.23-1.26-4.85-2.85-7.22-4.87-7.23s-3.61,2.35-4.93,7.19c-4.76-1.53-12.4-3.39-14-.19-.9,1.78.34,4.17,3.91,7.53,1,1,2.2,2,3.4,2.89l1,.77c-.34.09-.71.17-1.1.25a16.79,16.79,0,0,1-3.56.34,16.25,16.25,0,0,1-6.26-1.35,17,17,0,0,1-4.11-2.54,16.56,16.56,0,0,1-4-20.93Zm45.73,27.73a19.55,19.55,0,0,0,5.57-1.1v11.18c0,.73,0,1.39,0,2q-2.49.56-5,1.07h0c-4.18.86-8.56,1.54-13,2V629.71l1.28,0a26.59,26.59,0,0,1,3.77,1A19.61,19.61,0,0,0,676.86,631.69Zm5.57-98.07v44.72A36.13,36.13,0,0,1,681,524.13C681.59,524.93,682.43,527.19,682.43,533.62Zm85.19,41.82a53.63,53.63,0,0,0,4.83-5.09v8h-8.07C765.53,577.36,766.62,576.39,767.62,575.45Zm-16.23-62.18v7.59a1.46,1.46,0,0,0,1.46,1.46h10.94c5.15,0,6.75,1,7.25,1.52s1.41,2.41,1.41,9.77v25.79c-6.19-1.91-19.87,1.71-26.3,4-1.74-7.2-4.68-15.5-9-15.53s-7.34,8.24-9.17,15.39c-5.15-1.82-14.49-4.34-21.05-4.45V533.62c0-6.84,1-9,1.52-9.63s2.15-1.67,6.94-1.67h11.75a1.46,1.46,0,0,0,1.46-1.46v-7.59a1.46,1.46,0,0,0-1.46-1.46h-5.7c0-9.85-5.09-14-7.1-15.22a22.76,22.76,0,0,1,45.12,1.19,1.46,1.46,0,0,0,2.22,1.1,18.47,18.47,0,0,1,11.72-2.59,18.66,18.66,0,0,1,16.25,15.52H752.85A1.46,1.46,0,0,0,751.39,513.27Zm-21.71,53.27a1.46,1.46,0,0,0,.75-1c2.56-10.82,5.42-14.75,6.72-14.75s4.11,4,6.53,14.88a1.46,1.46,0,0,0,2,1c8-3.33,23.71-6.52,26.79-4.21v2.62c-1.82,3.74-7.9,9.39-12.65,13.17H714.7a86.38,86.38,0,0,1-7.77-7v-9.61c6.29.19,16,2.63,21.54,4.84A1.47,1.47,0,0,0,729.68,566.54Zm-45.27-54.74,0-.2a18.56,18.56,0,0,1,27.64-12.91l.1,0a6.09,6.09,0,0,1,.91.53c1.63,1.12,5.39,4.56,5.42,12.53Zm34.59.31h0Zm-8.86,66.21h-3.22v-2.85C707.93,576.42,709,577.37,710.14,578.33Zm86.5-4.59v-38.9a68.72,68.72,0,0,1,.26-7.07,36.08,36.08,0,0,1-.26,46Zm0,67.37a23.39,23.39,0,0,0,3.33.29h.38l6.34,1.54c2.7.66,5.44,1.32,8.2,2V654h-8.78c-4.16,0-7-1-8.49-2.9-.17-.2-1-1.56-1-8.49Zm4-2.64H800a20.39,20.39,0,0,1-3.37-.33v-10a25.85,25.85,0,0,0,3.89,4.39,56.23,56.23,0,0,0,6.09,4.95A20.86,20.86,0,0,1,800.63,638.47ZM653.83,627.1l-.09,0-.46-.26a38.92,38.92,0,0,1-5.59-4.39c-2.71-2.55-3.18-3.77-3.26-4.09.95-.49,7.08.23,11.85,2.13a1.46,1.46,0,0,0,2-1c1-4.24,2.06-5.95,2.48-6.4.41.46,1.45,2.19,2.4,6.46a1.46,1.46,0,0,0,2,1c4.76-2,11.18-2.73,12-2.22-.07.29-.5,1.51-3.26,4.11a40.5,40.5,0,0,1-5.37,4.25c-.27.17-.51.31-.69.4l-.09,0c-.56-.13-1.13-.25-1.75-.36a29.66,29.66,0,0,0-10.73.06C654.78,626.89,654.3,627,653.83,627.1Zm10.59,39V664.5h7.18l-3.82.87C666.67,665.62,665.55,665.85,664.43,666.08Zm0,18.27V669.06c1.33-.26,2.67-.53,4-.83,5-1.12,10.12-2.37,15.11-3.58l.6-.15h43A1.46,1.46,0,0,0,728.6,663v-6.8c1.56-.12,3-.21,4.32-.27v18.72l-.63,0C709,673.33,686.39,678.9,664.43,684.34Zm51-30.37c-3.62,0-6.15-.93-7.54-2.76-.15-.2-.92-1.58-.92-8.64V640.8a265,265,0,0,1,26-5.29V653c-3.6.16-7.29.47-11.22.94ZM616.5,599.87c1.83.63,3.71,1.29,5.58,1.9s3.87,1.2,6,1.77a19.68,19.68,0,0,0-2,9.16,19.47,19.47,0,0,0,4,11.2c-3.29-.67-6.46-1.44-9.45-2.29-1.7-.48-3.4-1-4.86-1.47a127.7,127.7,0,0,1-3.61-21.75C613.62,598.87,615,599.36,616.5,599.87Zm3.37,24.57a138.07,138.07,0,0,0,13.91,3.16,19.31,19.31,0,0,0,11.64,4.13,19.82,19.82,0,0,0,6.67-1.06,26.53,26.53,0,0,1,3.41-.92l1.65,0v17.71a137.05,137.05,0,0,1-31.74-1.79,127.44,127.44,0,0,1-8.68-22.2C617.77,623.82,618.82,624.14,619.87,624.43Zm182.67,6c-3.65-3.44-4.25-5.17-4.18-5.49.52-1,8.93-.06,15.24,2.46a1.46,1.46,0,0,0,2-1,31.09,31.09,0,0,1,2.17-6.54,6.31,6.31,0,0,1,1-1.59c.14-.14.22-.19.23-.21a1.69,1.69,0,0,1,.51.52,10.36,10.36,0,0,1,1.13,2.17,36,36,0,0,1,1.7,5.72,1.46,1.46,0,0,0,2,1,45.69,45.69,0,0,1,11.7-2.84c2.83-.26,3.67.13,3.75.36,0,.76-1.49,3.32-6.57,7.53a35.67,35.67,0,0,1-5.21,3.73l-.2.12a36.75,36.75,0,0,0-17.42,0l-.2-.12A44.23,44.23,0,0,1,802.54,630.43Zm20.69,8.11A33.38,33.38,0,0,1,830,640.1,24.08,24.08,0,0,0,859.4,628l2.06.08a127.7,127.7,0,0,1-8,19.05,139.13,139.13,0,0,1-30.22-3.28Zm38.57-19.7A23.85,23.85,0,0,0,858.42,605c2.81.55,5.47,1,8.1,1.25a127.4,127.4,0,0,1-4.15,18.91l-1.79-.06A24.06,24.06,0,0,0,861.8,618.84Zm-9.23-20.45a13.41,13.41,0,0,0-18.28-14.89,15.92,15.92,0,0,0-31-.09,13.49,13.49,0,0,0-6.47-.82l-.22,0v-4.41a39.2,39.2,0,0,0,1.42-53.6,4.84,4.84,0,0,1,1.39-1.4c.53-.33,1.92-.89,5.35-.89h11.64a1.46,1.46,0,0,0,1.46-1.46v-7.59a1.46,1.46,0,0,0-1.46-1.46H792.61a21.49,21.49,0,0,0-30.56-16.46,25.69,25.69,0,0,0-50.45-.18,21.48,21.48,0,0,0-30,16q-.06.34-.1.68H663.14a1.47,1.47,0,0,0-1.46,1.46v7.59a1.47,1.47,0,0,0,1.46,1.46h10.73a20.45,20.45,0,0,1,4.39.4,39.15,39.15,0,0,0,.07,55.93,40.37,40.37,0,0,0,4.1,3.53v2.94a11,11,0,0,0-9.2-.65,13.1,13.1,0,0,0-25.3-.07,11.07,11.07,0,0,0-14.6,12.46,19.57,19.57,0,0,0-3.74,4c-2.46-.66-4.62-1.29-6.6-1.93s-3.76-1.26-5.59-1.9c-1.49-.52-3.43-1.19-5.41-1.83-.13-2.38-.19-4.71-.19-6.94a128,128,0,1,1,255.1,15,103.14,103.14,0,0,1-11.07-1.87A24.35,24.35,0,0,0,852.57,598.4ZM661.5,629.52v60l-1.43-1.12V629.52Zm79.76-37.1v-1.23h5.09C744.7,591.56,743,592,741.25,592.41Zm0,86c12.11,1.54,23.88,4.66,35.26,7.67,8.46,2.24,17.2,4.56,26.07,6.24,3.05.58,6.28,1.08,9.61,1.48a127.59,127.59,0,0,1-31.49,15.8c-5.48-1.35-10.78-2.84-16.65-4.51-7.35-2.08-14.94-4.24-22.8-5.94Zm0-22.54c3.24.07,6.57.28,10.14.64V663a1.46,1.46,0,0,0,1.46,1.46H791.3c6.44,1.62,13.74,3.45,20.9,4.92.9.18,1.8.36,2.7.52v21.23c-4-.42-7.94-1-11.77-1.73-8.75-1.66-17.45-4-25.86-6.19-11.59-3.07-23.57-6.24-36-7.79Zm0,46.27c7.56,1.66,14.9,3.75,22,5.76,4.09,1.16,8.1,2.29,12.14,3.36a127.67,127.67,0,0,1-34.14,5Zm73.64-37.64V667l-2.11-.41c-3.21-.66-6.38-1.38-9.21-2.05Zm-79.05,51.73v-125h2.49v125.1Zm82-61.29V638.67h2.49v49.06c-.82.67-1.65,1.32-2.49,2V663.53a1.44,1.44,0,0,0,.09-.5v-7.59A1.44,1.44,0,0,0,817.82,654.94Z" transform="translate(-252.69 -388.98)"/><path class="cls-3" d="M739.79,425.34A163,163,0,1,0,855,473.07,161.89,161.89,0,0,0,739.79,425.34Zm160,163c0,88.24-71.79,160-160,160s-160-71.79-160-160,71.79-160,160-160S899.83,500.06,899.83,588.31Z" transform="translate(-252.69 -388.98)"/><polygon class="cls-3" points="365.57 144.47 355.77 139.51 361.1 128.99 370.89 133.95 372.33 131.12 350.51 120.07 349.07 122.91 358.46 127.66 353.13 138.18 343.75 133.42 342.31 136.26 364.13 147.3 365.57 144.47"/><rect class="cls-3" x="619.82" y="491.62" width="3.18" height="24.46" transform="translate(-402.56 327.28) rotate(-54.43)"/><polygon class="cls-3" points="394.08 103.75 391.89 101.73 385.5 108.66 369.71 94.11 367.56 96.44 385.54 113.02 394.08 103.75"/><path class="cls-3" d="M653.51,486.62l-2.18-7,7.46-5.66,6.25,4,2.78-2.11-22.16-13.89-2.3,1.74,7.36,25.11Zm2.6-14.41-5.7,4.33-3.07-9.93v0l0,0Z" transform="translate(-252.69 -388.98)"/><path class="cls-3" d="M676.4,471l-8-16.85-.13-.28,20,11.46,2.72-1.3L680.42,442l-2.88,1.38,7.73,16.18.4.81h0L665.85,449,663,450.34l10.54,22.06Z" transform="translate(-252.69 -388.98)"/><path class="cls-3" d="M705.85,459.59h0a15.4,15.4,0,0,0,5-2.12,11.63,11.63,0,0,0,3.39-3.43,11.09,11.09,0,0,0,1.6-4.48,14.17,14.17,0,0,0-.33-5.19c-.9-3.78-2.66-6.44-5.21-7.9s-5.87-1.7-9.88-.74L694,437.29l5.7,23.78ZM701,438.69c6.23-1.5,9.95.64,11.36,6.52a11.81,11.81,0,0,1,.31,4.15,7.78,7.78,0,0,1-1.16,3.31,8.21,8.21,0,0,1-2.54,2.47,12.83,12.83,0,0,1-3.9,1.58l-3,.72-4.3-18,3.25-.78Z" transform="translate(-252.69 -388.98)"/><path class="cls-3" d="M727.82,452.35a10.68,10.68,0,0,0,3.67,2.57,11.3,11.3,0,0,0,4.48.87h.31a11.88,11.88,0,0,0,5-1.1,10.48,10.48,0,0,0,3.59-2.83,11.9,11.9,0,0,0,2.14-4.17,16.76,16.76,0,0,0,.64-5.11,14.88,14.88,0,0,0-.88-4.84,11.58,11.58,0,0,0-2.32-3.85,10.33,10.33,0,0,0-3.6-2.52,11.39,11.39,0,0,0-4.69-.83,12.63,12.63,0,0,0-5,1.06,10.57,10.57,0,0,0-3.68,2.74,11.55,11.55,0,0,0-2.23,4.13,16.41,16.41,0,0,0-.67,5.2,14.54,14.54,0,0,0,.9,4.8A11.82,11.82,0,0,0,727.82,452.35Zm4.76-.25a7.38,7.38,0,0,1-2.58-2,9.24,9.24,0,0,1-1.59-3,12.75,12.75,0,0,1-.58-3.66,13.09,13.09,0,0,1,.49-3.82,9.12,9.12,0,0,1,1.55-3.11,7.77,7.77,0,0,1,2.56-2.12,8,8,0,0,1,3.53-.84,8.24,8.24,0,0,1,3.72.67,7.08,7.08,0,0,1,2.56,2,8.76,8.76,0,0,1,1.54,3,14.56,14.56,0,0,1,.57,3.77,13.59,13.59,0,0,1-.46,3.94,8.69,8.69,0,0,1-1.52,3.08,7.21,7.21,0,0,1-2.55,2,8.72,8.72,0,0,1-3.63.8A7.75,7.75,0,0,1,732.58,452.11Z" transform="translate(-252.69 -388.98)"/><path class="cls-3" d="M774.62,452.8l9,2.66.51,7.38,3.35,1-1.91-25.73,0-.34-2.76-.82-15.87,20.8,3.35,1Zm1.9-2.54,6.18-8.35,0,0s0,0,0,0l.66,10.38Z" transform="translate(-252.69 -388.98)"/><polygon class="cls-3" points="553.53 80.72 545.09 76.53 554.63 57.29 551.79 55.88 540.92 77.79 552.2 83.39 553.53 80.72"/><path class="cls-3" d="M823.13,484.43a14.65,14.65,0,0,0,.88,1.34c.33.44.67.87,1,1.26a12.09,12.09,0,0,0,1,1,12.25,12.25,0,0,0,2.72,1.84,7.86,7.86,0,0,0,2.79.8l.47,0a5.82,5.82,0,0,0,2.25-.45,6.61,6.61,0,0,0,2.4-1.79,6,6,0,0,0,1.16-1.92,6.22,6.22,0,0,0,.35-2.18,10.5,10.5,0,0,0-.36-2.49,28.67,28.67,0,0,0-.93-2.89q-.55-1.48-.9-2.55a7.81,7.81,0,0,1-.38-1.8,3.25,3.25,0,0,1,.15-1.31,3.72,3.72,0,0,1,.74-1.2,3,3,0,0,1,1.21-.87,3.15,3.15,0,0,1,1.4-.17,4.69,4.69,0,0,1,1.54.46,7,7,0,0,1,1.54,1,9.16,9.16,0,0,1,2.73,3.9l.28.82,2.38-2.71-.15-.3a12.75,12.75,0,0,0-3.09-3.79,10.57,10.57,0,0,0-2.62-1.71,8.1,8.1,0,0,0-2.79-.72,6.48,6.48,0,0,0-2.7.39,5.83,5.83,0,0,0-2.34,1.65,6.43,6.43,0,0,0-1.18,1.87,5.54,5.54,0,0,0-.37,2.08,10,10,0,0,0,.35,2.39c.22.85.53,1.83.93,2.91s.64,1.82.87,2.55a9.55,9.55,0,0,1,.43,1.89,3.18,3.18,0,0,1-.85,2.66,3,3,0,0,1-2.54,1.18,6,6,0,0,1-3.38-1.74,8.39,8.39,0,0,1-.94-1,10,10,0,0,1-.84-1.2,9.73,9.73,0,0,1-.67-1.34,7.82,7.82,0,0,1-.43-1.37l-.21-1-2.53,2.87.08.26A5.88,5.88,0,0,0,823.13,484.43Z" transform="translate(-252.69 -388.98)"/><path class="cls-3" d="M841,499.17c-.41,2.19.28,4.45,2.07,6.71,2,2.51,4.22,3.77,6.67,3.77q3.29,0,7.1-3l11.4-9-2-2.49-11.71,9.26c-3.67,2.9-6.6,2.87-9-.11a5.31,5.31,0,0,1-1.39-4.54c.33-1.48,1.47-3,3.39-4.52l11.53-9.12-2-2.49-11.68,9.24C842.93,494.87,841.43,497,841,499.17Z" transform="translate(-252.69 -388.98)"/><path class="cls-3" d="M855.31,523.26l9-4.72,1,1.85a4.39,4.39,0,0,1,.42,1.13,2.87,2.87,0,0,1,0,1.07,4.75,4.75,0,0,1-.44,1.26,12.82,12.82,0,0,1-1,1.61l-4.5,6.49,1.71,3.27,5.08-7.55q.48-.7.83-1.3a10,10,0,0,0,.59-1.17,5.72,5.72,0,0,0,.34-1.12,8.1,8.1,0,0,0,1.13.88,6.85,6.85,0,0,0,2.15.92,6.42,6.42,0,0,0,2.32.1,7.29,7.29,0,0,0,2.37-.78,6.5,6.5,0,0,0,2.3-1.91,6.2,6.2,0,0,0,1.08-2.46,7.34,7.34,0,0,0,0-2.67,8.88,8.88,0,0,0-.88-2.6l-3.36-6.43-21.68,11.31Zm19-9.93L876,516.5a5.1,5.1,0,0,1,.68,3.56,3.57,3.57,0,0,1-2,2.33,4.65,4.65,0,0,1-1.78.54,4,4,0,0,1-1.65-.22,4.3,4.3,0,0,1-1.47-.93,6,6,0,0,1-1.2-1.62l-1.57-3Z" transform="translate(-252.69 -388.98)"/><circle class="cls-3" cx="345.51" cy="168.98" r="2.85"/><circle class="cls-3" cx="629.93" cy="168.76" r="2.85"/><path class="cls-3" d="M601.82,451.19a8.57,8.57,0,0,0,.6-1.13q.27-.6.47-1.19t.28-1L612.68,458l2.11-2-12.36-13.08-1,1,0,.19a9.67,9.67,0,0,1-.21,1.22c-.1.45-.24.92-.39,1.39s-.33.93-.53,1.38a10.57,10.57,0,0,1-.61,1.2l-.2.33,2,2.14Z" transform="translate(-252.69 -388.98)"/><path class="cls-3" d="M612.8,441.12a18.71,18.71,0,0,0,2.17,3.33,16.51,16.51,0,0,0,2.54,2.62,8.68,8.68,0,0,0,2.56,1.48,5.45,5.45,0,0,0,1.78.31,4.75,4.75,0,0,0,.76-.06,5,5,0,0,0,2.32-1.06,5.32,5.32,0,0,0,1.64-2.12,5.42,5.42,0,0,0,.36-2.65,9.12,9.12,0,0,0-.88-3,16.84,16.84,0,0,0-2.06-3.23,13,13,0,0,0-5.22-4.35,4.8,4.8,0,0,0-4.88.85,5.45,5.45,0,0,0-1.68,2.14,5.29,5.29,0,0,0-.35,2.68A9.35,9.35,0,0,0,612.8,441.12Zm2.63-5.74a2,2,0,0,1,1.27-.45c1.35,0,3.06,1.28,5.08,3.83,2.62,3.31,3.18,5.6,1.65,6.81a2.32,2.32,0,0,1-2.58.24,11,11,0,0,1-3.64-3.27C614.44,439.06,613.84,436.65,615.43,435.38Z" transform="translate(-252.69 -388.98)"/><path class="cls-3" d="M628,434.37a16.56,16.56,0,0,0,2.3,2.83,8.66,8.66,0,0,0,2.42,1.69,5.27,5.27,0,0,0,2.16.48h.35a5,5,0,0,0,2.41-.85,5.3,5.3,0,0,0,1.82-2,5.42,5.42,0,0,0,.59-2.61,9.15,9.15,0,0,0-.62-3,17,17,0,0,0-1.78-3.39c-3.31-5-6.59-6.46-9.76-4.36a5.45,5.45,0,0,0-1.86,2,5.3,5.3,0,0,0-.58,2.64,9.34,9.34,0,0,0,.69,3.09A18.67,18.67,0,0,0,628,434.37Zm1.25-9c1.59-1.05,3.62.26,6,3.91s2.69,5.85,1.06,6.93-3.65-.1-5.94-3.55C627.94,428.95,627.55,426.49,629.24,425.37Z" transform="translate(-252.69 -388.98)"/><polygon class="cls-3" points="397.49 41.67 399.32 20.71 396.79 22.03 394.97 42.98 397.49 41.67"/><path class="cls-3" d="M642.28,423.82a3.79,3.79,0,0,0,1.33.25,4.35,4.35,0,0,0,2-.53,4.2,4.2,0,0,0,2.24-2.7,5.05,5.05,0,0,0-.54-3.7,5,5,0,0,0-2.56-2.53,4,4,0,0,0-3.36.32,4.23,4.23,0,0,0-2.29,2.72,5.16,5.16,0,0,0,.59,3.74A4.84,4.84,0,0,0,642.28,423.82Zm-.79-5.67a1.6,1.6,0,0,1,.9-1.18,1.5,1.5,0,0,1,1.4-.06,3,3,0,0,1,1.31,1.43,3.19,3.19,0,0,1,.44,2,1.51,1.51,0,0,1-.87,1.15,1.57,1.57,0,0,1-1.44.08,3,3,0,0,1-1.32-1.42A3.11,3.11,0,0,1,641.5,418.14Z" transform="translate(-252.69 -388.98)"/><path class="cls-3" d="M652.44,424.38a4.85,4.85,0,0,0,2.57,2.44h0a3.81,3.81,0,0,0,1.34.25,4.33,4.33,0,0,0,2-.53,4.2,4.2,0,0,0,2.24-2.7,5.78,5.78,0,0,0-3.12-6.23,4,4,0,0,0-3.36.31,4.22,4.22,0,0,0-2.27,2.72A5.17,5.17,0,0,0,652.44,424.38Zm1.78-3.22h0a1.6,1.6,0,0,1,.91-1.17,1.69,1.69,0,0,1,.79-.21,1.48,1.48,0,0,1,.61.13,3,3,0,0,1,1.31,1.43,3.2,3.2,0,0,1,.44,2,1.51,1.51,0,0,1-.87,1.15,1.57,1.57,0,0,1-1.44.08,2.92,2.92,0,0,1-1.31-1.4A3.12,3.12,0,0,1,654.23,421.15Z" transform="translate(-252.69 -388.98)"/><path class="cls-3" d="M676.83,413.61l6-2,3.12,3.88,3.07-1-11.92-14.65-2.57.84-1,18.85,3.09-1Zm4.23-4.27-4.12,1.34.22-6.29Z" transform="translate(-252.69 -388.98)"/><polygon class="cls-3" points="449.76 22.47 449.14 19.78 442.63 21.27 439.3 6.79 436.43 7.45 440.38 24.63 449.76 22.47"/><path class="cls-3" d="M707,408.41a7.8,7.8,0,0,0,5,1.69,10.29,10.29,0,0,0,1.43-.1,11.66,11.66,0,0,0,5.55-2.27l.23-.18-1.15-8.25-6.52.91.38,2.74,3.61-.5.53,3.82a6.69,6.69,0,0,1-2.77,1,5.3,5.3,0,0,1-4.32-1.06,7.55,7.55,0,0,1-1.15-9.19,5.45,5.45,0,0,1,3.93-2.33,8.33,8.33,0,0,1,4.63.56l.83.37-.47-3.35-.3-.1a11.06,11.06,0,0,0-4.85-.26,8.84,8.84,0,0,0-6.12,3.5,9.17,9.17,0,0,0-1.64,7A8.94,8.94,0,0,0,707,408.41Z" transform="translate(-252.69 -388.98)"/><path class="cls-3" d="M732,408.47h.32a7.94,7.94,0,0,0,6.07-2.71,9.71,9.71,0,0,0,2.09-6.83,9.2,9.2,0,0,0-2.42-6.33,7.65,7.65,0,0,0-6-2.31,8.08,8.08,0,0,0-6.19,2.74,9.68,9.68,0,0,0-2.1,6.8,9.17,9.17,0,0,0,2.45,6.33A7.72,7.72,0,0,0,732,408.47Zm-3.58-4.34a7.92,7.92,0,0,1-.23-9.25A4.84,4.84,0,0,1,732,393a4.75,4.75,0,0,1,3.89,1.51,7.18,7.18,0,0,1,1.55,4.72,6.85,6.85,0,0,1-1.31,4.71,4.94,4.94,0,0,1-3.89,1.73A4.69,4.69,0,0,1,728.37,404.13Z" transform="translate(-252.69 -388.98)"/><path class="cls-3" d="M751.78,408.59a9.17,9.17,0,0,0,6-2,8.67,8.67,0,0,0,3.11-6.32c.45-5.69-2.43-8.83-8.58-9.32l-5.08-.4-1.4,17.57,4.89.39C751.07,408.57,751.43,408.59,751.78,408.59Zm.24-14.85a6.76,6.76,0,0,1,4.62,1.83,5.83,5.83,0,0,1,1.18,4.54,6.12,6.12,0,0,1-2,4.45,6.59,6.59,0,0,1-4.86,1.23l-2-.16,1-12.06Z" transform="translate(-252.69 -388.98)"/><path class="cls-3" d="M772.2,411.64a10,10,0,0,0,1.89.19,7.53,7.53,0,0,0,4.62-1.51,9.7,9.7,0,0,0,3.53-6.22,9.2,9.2,0,0,0-1-6.71,7.65,7.65,0,0,0-5.34-3.56,8.08,8.08,0,0,0-6.64,1.32,9.68,9.68,0,0,0-3.53,6.18,9.16,9.16,0,0,0,1,6.71A7.81,7.81,0,0,0,772.2,411.64Zm3-15.12a4.73,4.73,0,0,1,3.47,2.32,7.19,7.19,0,0,1,.49,4.95,6.86,6.86,0,0,1-2.31,4.31,5,5,0,0,1-4.17.84,4.69,4.69,0,0,1-3.39-2.38,7.92,7.92,0,0,1,1.79-9.08A4.84,4.84,0,0,1,775.24,396.52Z" transform="translate(-252.69 -388.98)"/><polygon class="cls-3" points="527.9 0.61 524.73 0 520.62 4.1 523.23 4.6 527.9 0.61"/><path class="cls-3" d="M792,403.21h0l.1-.32,4.07,14.74,3,.95,5.28-16.82-2.81-.88L798,412.53l-.17.54-4-14.64-3.15-1-5.28,16.82,2.81.88Z" transform="translate(-252.69 -388.98)"/><path class="cls-3" d="M819.19,420.29l1.52.75a6.72,6.72,0,0,0,5,.63,5.54,5.54,0,0,0,3.48-3,5.14,5.14,0,0,0,.32-4.34,6.53,6.53,0,0,0-3.37-3.25l-4.54-2.25-7.81,15.8,2.64,1.31Zm5.4-6.9a4,4,0,0,1,2,1.78,2.56,2.56,0,0,1-.21,2.22,2.77,2.77,0,0,1-1.78,1.6,4.11,4.11,0,0,1-2.82-.5l-1.38-.68,2.58-5.22Z" transform="translate(-252.69 -388.98)"/><rect class="cls-3" x="825.14" y="423.81" width="17.63" height="2.95" transform="matrix(0.51, -0.86, 0.86, 0.51, -207.03, 541.21)"/><path class="cls-3" d="M838.57,438.45l6.77-9.46.13-.18-2.59,12.72,1.3.93,11.12-6.53-.08.1-6.79,9.48,2.39,1.71,10.26-14.33-2.65-1.9-11.23,6.52-.81.5q.1-.4.2-.88l2.67-12.71-2.77-2-10.26,14.33Z" transform="translate(-252.69 -388.98)"/><path class="cls-3" d="M856.32,452l4.36-2.34,4.7,4.27-1.83,4.64,2.39,2.17,6.82-17.61-2-1.82-16.85,8.51Zm12.52-6.62-2.36,5.84-3.21-2.91Z" transform="translate(-252.69 -388.98)"/><path class="cls-3" d="M963.16,617.33a1.54,1.54,0,0,0-1.14-.54,23.63,23.63,0,0,0-6.53,1A27.7,27.7,0,0,0,943,625.42a40.72,40.72,0,0,0-6.3,9.58,196,196,0,0,0,3-25.37,23.4,23.4,0,0,0,5-1.1,22.43,22.43,0,0,0,11.35-8.42c3.28-4.73,4.43-10.81,5.12-16.15.24-2,.37-4.14.41-6.2a12.13,12.13,0,0,0-.07-2l-.07-.65a1.53,1.53,0,0,0-1.79-1.33,21.46,21.46,0,0,0-5.83,2.19,26.71,26.71,0,0,0-10.35,9.49,32.34,32.34,0,0,0-3.39,7.62l-.21.72a197,197,0,0,0-2.16-24.31,23.32,23.32,0,0,0,4-1.84,21.23,21.23,0,0,0,9-10.13c2-5.22,2-11.57,1.66-16a43.49,43.49,0,0,0-.82-6c-.34-1.26-.6-2.08-.68-2.31a1.54,1.54,0,0,0-.81-.9,1.53,1.53,0,0,0-1.21,0,20.67,20.67,0,0,0-5.09,3.18,26.48,26.48,0,0,0-7.79,10.78,28.74,28.74,0,0,0-1.6,6.46,194,194,0,0,0-6.88-22.2,22.35,22.35,0,0,0,2.91-2.22,18.84,18.84,0,0,0,6.35-11.14c.89-5.28-.28-11.17-1.42-15.16a27.92,27.92,0,0,0-3.06-7.54,1.54,1.54,0,0,0-1-.67,1.52,1.52,0,0,0-1.16.21,19.67,19.67,0,0,0-4.16,3.94,25.57,25.57,0,0,0-5.21,11.54,27,27,0,0,0-.33,4.7c-1.47-3-3-6-4.63-8.93a37.94,37.94,0,0,0-.42-4.64,35.2,35.2,0,0,0-5.09-13.94A37.06,37.06,0,0,0,899.22,477a32.8,32.8,0,0,0-6-2.71,1.53,1.53,0,0,0-2,1.57,40.84,40.84,0,0,0,1.13,6.54,34.36,34.36,0,0,0,5.83,12.64A36.7,36.7,0,0,0,908,505a41,41,0,0,0,5.67,3.37c1.29,2.38,2.53,4.81,3.72,7.24a22.2,22.2,0,0,0-3.84-2.46,18.4,18.4,0,0,0-12.21-1.48,22,22,0,0,0-5.43,1.76,1.6,1.6,0,0,0-.35.25c-1,.93-.4,1.71.47,2.9l.09.12,3,4.09a30.9,30.9,0,0,0,10.18,8.61A25.73,25.73,0,0,0,919.65,532c.5,0,1,0,1.49,0a24.11,24.11,0,0,0,3.2-.33,190.82,190.82,0,0,1,6.49,20.61,24.59,24.59,0,0,0-3.69-3.58,19.41,19.41,0,0,0-12.08-4.05h-.26a22.88,22.88,0,0,0-5.76.68,1.53,1.53,0,0,0-1,2c0,.07.31.76.81,1.76.14.3.29.65.44,1l.05.12c.35.84.84,2,1.45,3.16a32.41,32.41,0,0,0,8.63,10.85,24.27,24.27,0,0,0,11.5,5.22,25.52,25.52,0,0,0,3.46.36,192.07,192.07,0,0,1,2.07,20.93,25.57,25.57,0,0,0-3.19-4.67,20.84,20.84,0,0,0-11.54-6.68,24.29,24.29,0,0,0-6.23-.53,1.53,1.53,0,0,0-1.37,1.87l.12.56a10.36,10.36,0,0,1,.25,1.26,43.31,43.31,0,0,0,1.11,4.89,37.31,37.31,0,0,0,6.52,12.86,25.08,25.08,0,0,0,10.71,7.8,27,27,0,0,0,3.54,1.12,191,191,0,0,1-2.17,20.24,26.59,26.59,0,0,0-2.4-5.58,22,22,0,0,0-10.47-9.18,24.26,24.26,0,0,0-6.15-1.81,1.51,1.51,0,0,0-1.14.32,1.55,1.55,0,0,0-.57,1,40.19,40.19,0,0,0,.05,7.33A45.21,45.21,0,0,0,917.46,636a26.83,26.83,0,0,0,9.39,10.21,28.77,28.77,0,0,0,3.38,1.89,190.73,190.73,0,0,1-6,18.66,28.3,28.3,0,0,0-1.33-6.26A23,23,0,0,0,914,649a25.53,25.53,0,0,0-5.92-3.12,1.56,1.56,0,0,0-1.18.1,1.54,1.54,0,0,0-.76.91,41.47,41.47,0,0,0-1.38,7.51,42.08,42.08,0,0,0-.1,7.39l0,.55a33.23,33.23,0,0,0,1,7.48,28.63,28.63,0,0,0,7.52,12.41,30.31,30.31,0,0,0,3,2.6c-2.85,5.65-6,11.17-9.33,16.46a29.37,29.37,0,0,0-.09-6.76A24,24,0,0,0,900.14,681a26.42,26.42,0,0,0-5.4-4.39,1.51,1.51,0,0,0-1.18-.14,1.54,1.54,0,0,0-.93.75,42.32,42.32,0,0,0-2.89,7.34,52.59,52.59,0,0,0-1.59,7.37,30.15,30.15,0,0,0-.64,8.45,30.47,30.47,0,0,0,5.08,14.26,31.94,31.94,0,0,0,2.51,3.32c-3.9,4.92-8.08,9.7-12.46,14.26a22.63,22.63,0,0,0,1.67-7.65,25,25,0,0,0-4-15.19,27.6,27.6,0,0,0-4.58-5.58,1.51,1.51,0,0,0-1.13-.37,1.53,1.53,0,0,0-1.06.55,44,44,0,0,0-4.41,6.82,51.11,51.11,0,0,0-2.51,5.53l-.66,1.6a31.12,31.12,0,0,0-2.4,8.47,31.82,31.82,0,0,0,2.19,15.58,33.59,33.59,0,0,0,2,4.21c-5,4.2-10.19,8.17-15.54,11.86a25.11,25.11,0,0,0,4.09-8.65,25.79,25.79,0,0,0-1-16.24,28.74,28.74,0,0,0-3.52-6.6,1.55,1.55,0,0,0-1-.59,1.53,1.53,0,0,0-1.14.33,45.19,45.19,0,0,0-5.88,6,62.61,62.61,0,0,0-4.65,6.58,32.31,32.31,0,0,0-4.15,8.08,33.37,33.37,0,0,0-1,16.28,34.75,34.75,0,0,0,1.33,5.23,199,199,0,0,1-19.13,9.19,27.22,27.22,0,0,0,7.88-9.56,26.48,26.48,0,0,0,2.32-16.65,30,30,0,0,0-2.22-7.41,1.54,1.54,0,0,0-.89-.78,1.56,1.56,0,0,0-1.18.09,44.42,44.42,0,0,0-7.13,4.82,46.74,46.74,0,0,0-4.21,3.84l-.13.13c-.57.56-1.14,1.13-1.73,1.68a33.24,33.24,0,0,0-5.84,7.33,36.27,36.27,0,0,0-4.46,16.2,33.11,33.11,0,0,0,.35,6.54,199,199,0,0,1-24.23,5.89,53.19,53.19,0,0,0,6-3,38.19,38.19,0,0,0,4.38-3,31.46,31.46,0,0,0,3.67-3.93,27.46,27.46,0,0,0,5.76-16.43,30.49,30.49,0,0,0-.74-8,1.54,1.54,0,0,0-.73-.94,1.52,1.52,0,0,0-1.18-.14,46.4,46.4,0,0,0-8.27,3.5c-.75.45-1.54.91-2.35,1.38-4,2.32-8.57,5-12.24,9.21a35,35,0,0,0-5.19,8,35.83,35.83,0,0,0-2.73,7.36,32.07,32.07,0,0,0-1.07,8v0a202.15,202.15,0,0,1-40.09.06,33,33,0,0,0-1.07-7.75,35.78,35.78,0,0,0-2.73-7.35,35,35,0,0,0-5.19-8c-3.68-4.26-8.23-6.89-12.25-9.22-.81-.47-1.6-.93-2.37-1.39a46.5,46.5,0,0,0-8.24-3.49,1.53,1.53,0,0,0-1.91,1.08,30.8,30.8,0,0,0-.74,8,27.47,27.47,0,0,0,5.76,16.43,31.37,31.37,0,0,0,3.7,4,38.23,38.23,0,0,0,4.35,2.94,52.27,52.27,0,0,0,5.21,2.65A198.58,198.58,0,0,1,681,784a32.85,32.85,0,0,0,.33-6.41,36.25,36.25,0,0,0-4.46-16.2,33.2,33.2,0,0,0-5.84-7.34c-.62-.58-1.22-1.18-1.86-1.81a46.93,46.93,0,0,0-4.19-3.83,44.92,44.92,0,0,0-7.14-4.83,1.56,1.56,0,0,0-1.18-.09,1.55,1.55,0,0,0-.89.78,29.58,29.58,0,0,0-2.22,7.41,26.79,26.79,0,0,0,10,26,199.13,199.13,0,0,1-18.93-9,34.91,34.91,0,0,0,1.32-5.21,33.39,33.39,0,0,0-1-16.28,32.25,32.25,0,0,0-4.14-8.06,62.88,62.88,0,0,0-4.66-6.59,45.1,45.1,0,0,0-5.89-6,1.53,1.53,0,0,0-2.18.26,28.87,28.87,0,0,0-3.52,6.6,25.77,25.77,0,0,0-1,16.22,25.22,25.22,0,0,0,4.16,8.76c-5.39-3.68-10.65-7.66-15.66-11.86a33.47,33.47,0,0,0,2.07-4.29,31.81,31.81,0,0,0,2.19-15.58,31.11,31.11,0,0,0-2.4-8.46l-.66-1.6a51.33,51.33,0,0,0-2.51-5.52,43.68,43.68,0,0,0-4.41-6.84,1.53,1.53,0,0,0-1.05-.55,1.51,1.51,0,0,0-1.13.37,27.57,27.57,0,0,0-4.59,5.58,25,25,0,0,0-4,15.18,23,23,0,0,0,1.83,8.07c-4.5-4.63-8.79-9.49-12.77-14.49a31.9,31.9,0,0,0,2.66-3.49,30.47,30.47,0,0,0,5.08-14.26,30,30,0,0,0-.63-8.42,52.76,52.76,0,0,0-1.59-7.39,42.33,42.33,0,0,0-2.9-7.34,1.54,1.54,0,0,0-2.12-.6,26.77,26.77,0,0,0-5.39,4.39,24,24,0,0,0-6.69,13.58,28.31,28.31,0,0,0,0,7.36,194,194,0,0,1-9.67-16.87,30.16,30.16,0,0,0,3.24-2.8,28.64,28.64,0,0,0,7.52-12.4,33.2,33.2,0,0,0,1-7.49l0-.54a42.11,42.11,0,0,0-.1-7.4,41.32,41.32,0,0,0-1.38-7.51,1.54,1.54,0,0,0-.76-.91,1.57,1.57,0,0,0-1.19-.09,25.41,25.41,0,0,0-5.91,3.11A23,23,0,0,0,557,660.85a28.76,28.76,0,0,0-1.41,7.09,190.82,190.82,0,0,1-6.33-19.32,28.61,28.61,0,0,0,3.76-2.07,26.83,26.83,0,0,0,9.4-10.23,45.19,45.19,0,0,0,3.92-14.41,40.15,40.15,0,0,0,.05-7.35,1.53,1.53,0,0,0-1.71-1.36,24.2,24.2,0,0,0-6.15,1.81,22,22,0,0,0-10.46,9.18,27,27,0,0,0-2.69,6.65A191.54,191.54,0,0,1,543,609.66a26.62,26.62,0,0,0,4-1.23,25.08,25.08,0,0,0,10.7-7.79,37.34,37.34,0,0,0,6.52-12.86,43.23,43.23,0,0,0,1.11-4.91,10.29,10.29,0,0,1,.25-1.26l.12-.53a1.53,1.53,0,0,0-1.39-1.87,24.45,24.45,0,0,0-6.22.53,20.84,20.84,0,0,0-11.53,6.68,26.61,26.61,0,0,0-3.74,5.73,191.66,191.66,0,0,1,2.06-22h.26a25.49,25.49,0,0,0,3.76-.37,24.25,24.25,0,0,0,11.49-5.21,32.44,32.44,0,0,0,8.64-10.86c.61-1.17,1.08-2.28,1.46-3.19.17-.41.33-.79.48-1.11.48-.95.75-1.59.82-1.78a1.53,1.53,0,0,0-1-2,22.9,22.9,0,0,0-5.76-.68h-.25A19.42,19.42,0,0,0,552.77,549a25.66,25.66,0,0,0-4.55,4.66A191,191,0,0,1,555,531.92l.19,0a24.11,24.11,0,0,0,3.62.4q.74,0,1.49,0a25.74,25.74,0,0,0,10.33-2.58,30.9,30.9,0,0,0,10.19-8.62l2.91-4,.17-.24c.87-1.18,1.45-2,.47-2.9a1.59,1.59,0,0,0-.35-.25,22,22,0,0,0-5.43-1.76,18.4,18.4,0,0,0-12.21,1.48,23.68,23.68,0,0,0-5,3.37c1.29-2.7,2.65-5.39,4.06-8h.14a1.53,1.53,0,0,0,.61-.14,40.74,40.74,0,0,0,5.68-3.37,36.63,36.63,0,0,0,9.8-9.94,34.42,34.42,0,0,0,5.85-12.67,40.45,40.45,0,0,0,1.12-6.54,1.53,1.53,0,0,0-2-1.57,32.89,32.89,0,0,0-6,2.71,37.1,37.1,0,0,0-11.19,9.58,35.22,35.22,0,0,0-5.07,13.92c-.17,1.09-.29,2.19-.36,3.26l-.09.16c-1.6,2.86-3.15,5.81-4.63,8.8a24.57,24.57,0,0,0-5.53-14.89,19.61,19.61,0,0,0-4.15-3.93,1.53,1.53,0,0,0-2.13.46,27.65,27.65,0,0,0-3.05,7.53c-1.14,4-2.31,9.89-1.42,15.16a18.85,18.85,0,0,0,6.35,11.16,22.7,22.7,0,0,0,2.41,1.89,193.5,193.5,0,0,0-6.61,21.14,27.76,27.76,0,0,0-1.37-5.06,26.49,26.49,0,0,0-7.8-10.79,20.66,20.66,0,0,0-5.09-3.17,1.53,1.53,0,0,0-2,.93s-.3.88-.69,2.33a43.44,43.44,0,0,0-.82,6c-.35,4.41-.34,10.76,1.67,16a21.23,21.23,0,0,0,9,10.11,23.43,23.43,0,0,0,3.47,1.65,196.35,196.35,0,0,0-2.1,23,31.67,31.67,0,0,0-3.13-6.8A26.71,26.71,0,0,0,526,576.23a21.5,21.5,0,0,0-5.83-2.19,1.55,1.55,0,0,0-1.18.28,1.54,1.54,0,0,0-.61,1.05l-.07.64a12,12,0,0,0-.07,2c0,2.07.18,4.16.41,6.22.69,5.33,1.83,11.41,5.12,16.14a22.42,22.42,0,0,0,11.34,8.41,23.76,23.76,0,0,0,4.53,1,196.28,196.28,0,0,0,2.81,24.05,37.68,37.68,0,0,0-5.58-8.21,27.69,27.69,0,0,0-12.49-7.61,23.73,23.73,0,0,0-6.53-1,1.53,1.53,0,0,0-1.48,1.76,64.8,64.8,0,0,0,2.18,9c1.8,5.38,4.12,11.46,8.72,15.54a23,23,0,0,0,13.25,6.22,25.56,25.56,0,0,0,3.53.17c.79,0,1.45-.07,1.94-.13a193.34,193.34,0,0,0,8.21,24.12c-.79-.95-1.58-1.84-2.37-2.66a35.19,35.19,0,0,0-6.45-6.19,28.68,28.68,0,0,0-14.28-5.24,24.12,24.12,0,0,0-6.88.28,1.53,1.53,0,0,0-1.11,2,68.05,68.05,0,0,0,4,8.81,57.91,57.91,0,0,0,4.88,7.6,31.05,31.05,0,0,0,7.34,6.5,23.51,23.51,0,0,0,13.25,3.72c.51,0,1,0,1.55-.08a23.94,23.94,0,0,0,6.22-1.34,195.42,195.42,0,0,0,13.88,23.14,55.13,55.13,0,0,0-4.73-3.7c-.63-.41-1.23-.83-1.82-1.24l-.16-.11a34.72,34.72,0,0,0-6-3.55A29.66,29.66,0,0,0,546,699.29a25.05,25.05,0,0,0-7,1.69,1.53,1.53,0,0,0-.69,2.18,70.13,70.13,0,0,0,5.94,8.24,51.69,51.69,0,0,0,6.64,6.82,37.19,37.19,0,0,0,8.87,5.05,24.06,24.06,0,0,0,15.79.61,23.24,23.24,0,0,0,6.4-2.94l.14-.12a202.32,202.32,0,0,0,15.9,17.6c1.05,1,2.14,2.08,3.25,3.13a66.62,66.62,0,0,0-16.25-7,30.81,30.81,0,0,0-16.43.74,26,26,0,0,0-6.72,3.15,1.53,1.53,0,0,0-.25,2.28,74.46,74.46,0,0,0,7.79,7.21l.58.46a42.7,42.7,0,0,0,7.69,5.11,38.56,38.56,0,0,0,10.06,3.29,27,27,0,0,0,4.87.35,24.71,24.71,0,0,0,11.3-3,24.25,24.25,0,0,0,5.89-4.35,1.44,1.44,0,0,0,.26-.41,200.92,200.92,0,0,0,23.25,16.79,70.43,70.43,0,0,0-18.75-4A32.21,32.21,0,0,0,598,766.22a27.25,27.25,0,0,0-6.19,4.58,1.53,1.53,0,0,0,.21,2.28,77.12,77.12,0,0,0,9.45,5.74,52.62,52.62,0,0,0,9.56,4,41,41,0,0,0,10.53,1.3H622A25.6,25.6,0,0,0,637.93,778c2.39-2,4.84-4.94,5.25-6.18a200,200,0,0,0,25.37,11.54,71.43,71.43,0,0,0-19.39-.1,33.67,33.67,0,0,0-16,7.59,27.86,27.86,0,0,0-5.37,5.92,1.53,1.53,0,0,0,.66,2.19,82.18,82.18,0,0,0,10.88,3.92l1.16.31a42.46,42.46,0,0,0,9.5,1.73c1.13,0,2.26.06,3.36,0a38,38,0,0,0,8-1,25.93,25.93,0,0,0,14.88-9.6,27,27,0,0,0,3.94-6.92l0-.14a202.84,202.84,0,0,0,25.17,5.93,63.52,63.52,0,0,0-7.52,1,51.53,51.53,0,0,0-5.35,1.32,38.08,38.08,0,0,0-5.2,1.58,34.52,34.52,0,0,0-14.66,10.95,28.73,28.73,0,0,0-4.22,7.1,1.53,1.53,0,0,0,1.08,2A84,84,0,0,0,681.37,819a36.79,36.79,0,0,0,4.54.27h1a45.45,45.45,0,0,0,17.21-3.76,26.93,26.93,0,0,0,8.42-6,29.92,29.92,0,0,0,4.66-7,29,29,0,0,0,2.45-7.33c6.67.65,13.42,1,20.08,1,6.82,0,13.76-.35,20.63-1a29.49,29.49,0,0,0,2.4,7.09,29.94,29.94,0,0,0,4.67,7,27,27,0,0,0,8.42,6A45.46,45.46,0,0,0,793,819a38,38,0,0,0,5.49-.26,83.3,83.3,0,0,0,11.88-1.78,1.53,1.53,0,0,0,1.08-2,28.59,28.59,0,0,0-4.22-7.1,34.51,34.51,0,0,0-14.66-10.95,37.66,37.66,0,0,0-5.16-1.57A52.13,52.13,0,0,0,782,794a62.94,62.94,0,0,0-6.71-.92,202.47,202.47,0,0,0,24.39-5.87h0a26.73,26.73,0,0,0,3.94,6.92,25.93,25.93,0,0,0,14.88,9.61,38.07,38.07,0,0,0,8,1c1.1,0,2.23,0,3.36,0a42.44,42.44,0,0,0,9.5-1.73l1.17-.31a80.89,80.89,0,0,0,10.87-3.92,1.53,1.53,0,0,0,.66-2.2,27.84,27.84,0,0,0-5.37-5.92,33.68,33.68,0,0,0-16-7.59,71.66,71.66,0,0,0-18.9,0,199.94,199.94,0,0,0,25.31-11.68,26.42,26.42,0,0,0,4.83,5.35,25.6,25.6,0,0,0,15.89,6.08h.45a41.31,41.31,0,0,0,10.55-1.3,52.67,52.67,0,0,0,9.55-4,77.69,77.69,0,0,0,9.45-5.74,1.53,1.53,0,0,0,.21-2.28,27.21,27.21,0,0,0-6.19-4.58,32.25,32.25,0,0,0-16.6-4.12,69.76,69.76,0,0,0-15.32,2.9,201.76,201.76,0,0,0,19.88-14.77,1.38,1.38,0,0,0,.53.12,1.18,1.18,0,0,0,.26,0,25.66,25.66,0,0,0,5.33,3.8,24.72,24.72,0,0,0,11.3,3,27,27,0,0,0,4.87-.35,38.57,38.57,0,0,0,10.06-3.29,42.79,42.79,0,0,0,7.69-5.1l.59-.46a74.59,74.59,0,0,0,7.78-7.21,1.54,1.54,0,0,0-.25-2.27,26.15,26.15,0,0,0-6.72-3.15,30.84,30.84,0,0,0-16.45-.73,66.84,66.84,0,0,0-14,5.7l.54-.53a202.26,202.26,0,0,0,15.86-17.55,24.42,24.42,0,0,0,21.84,2.1,37.23,37.23,0,0,0,8.89-5.06,51.69,51.69,0,0,0,6.62-6.8,70.48,70.48,0,0,0,5.93-8.23,1.53,1.53,0,0,0-.7-2.18,25,25,0,0,0-6.95-1.69,29.62,29.62,0,0,0-15.58,2.42,34.81,34.81,0,0,0-6,3.57l-.15.1c-.59.41-1.18.82-1.82,1.23q-1.48,1-3,2.25a195.64,195.64,0,0,0,12.88-21.81,23.32,23.32,0,0,0,6.52,1.46c.52,0,1,.07,1.55.08a23.55,23.55,0,0,0,13.25-3.72,31.05,31.05,0,0,0,7.34-6.5,58.07,58.07,0,0,0,4.88-7.59,68.87,68.87,0,0,0,4-8.81,1.53,1.53,0,0,0-1.11-2,24.34,24.34,0,0,0-6.88-.28,28.67,28.67,0,0,0-14.28,5.24,35,35,0,0,0-6.42,6.16c-1.08,1.12-2.14,2.33-3.17,3.62a193.4,193.4,0,0,0,8.56-25.11,21,21,0,0,0,2.36.18,25.09,25.09,0,0,0,3.53-.17,22.94,22.94,0,0,0,13.23-6.21c4.62-4.09,6.93-10.18,8.74-15.56a63.33,63.33,0,0,0,2.17-9A1.53,1.53,0,0,0,963.16,617.33Zm-29.21-12a22,22,0,0,1-9.42-6.84,34.22,34.22,0,0,1-6-11.79,40.33,40.33,0,0,1-1-4.52l0-.16a23.87,23.87,0,0,1,3.59.46,17.82,17.82,0,0,1,9.87,5.69,24.76,24.76,0,0,1,3.83,6.17,23.94,23.94,0,0,1,1.85,5.59c0,2-.05,4-.13,6.22a23.75,23.75,0,0,1-2.55-.84Zm3.83-39.11c-.15-.6-.37-1.4-.64-2.32,0-.94,0-1.88,0-2.83-.21-5.62.37-10.11,1.76-13.73h0a23.44,23.44,0,0,1,6.89-9.52,20.27,20.27,0,0,1,2.75-1.91l.1.38a40.88,40.88,0,0,1,.74,5.51c.32,4.09.33,9.94-1.44,14.57a18.16,18.16,0,0,1-7.73,8.63A20.32,20.32,0,0,1,937.78,566.17ZM960.13,620a66.76,66.76,0,0,1-1.71,6.6c-1.75,5.22-3.8,10.63-7.89,14.25A20,20,0,0,1,939,646.25a21.53,21.53,0,0,1-3.87.12,56.22,56.22,0,0,1,2.14-5.58l.91-1.86c1.85-3.79,3.95-8.08,7.06-11.42a24.64,24.64,0,0,1,11.11-6.76A23.77,23.77,0,0,1,960.13,620Zm-19.7-14.43c.22-1.53.51-3.07.86-4.59.25-.91.48-1.87.74-3,.32-1.34.65-2.72,1-4.08a29.31,29.31,0,0,1,3.05-6.88,23.66,23.66,0,0,1,9.18-8.4,20.84,20.84,0,0,1,3.28-1.42c0,.14,0,.29,0,.44,0,2-.17,4-.39,5.93-.64,5-1.68,10.58-4.58,14.75a19.4,19.4,0,0,1-9.81,7.28,20.76,20.76,0,0,1-3.31.82C940.47,606.17,940.45,605.87,940.43,605.55Zm-6.52-38.78a22.56,22.56,0,0,1-2.46-.29h0a21.3,21.3,0,0,1-10.1-4.59,29.47,29.47,0,0,1-7.82-9.87c-.56-1.06-1-2.06-1.37-3-.16-.39-.32-.75-.48-1.11a22.67,22.67,0,0,1,3.13-.22H915a16.52,16.52,0,0,1,10.29,3.42,28.7,28.7,0,0,1,7.55,9.85C933.23,563,933.59,564.9,933.91,566.76Zm-7.06-39.52-.06-.13c-.13-.24-.26-.51-.4-.79a22.44,22.44,0,0,0-1.23-2.25c-.09-.37-.19-.75-.3-1.11a32.8,32.8,0,0,1-1-13.05,22.45,22.45,0,0,1,4.58-10.13,19.35,19.35,0,0,1,2.12-2.23,27.36,27.36,0,0,1,1.87,5.17c1.06,3.72,2.15,9.14,1.35,13.89a15.88,15.88,0,0,1-5.38,9.35A19.08,19.08,0,0,1,926.84,527.24Zm-14.64-11.32a27.79,27.79,0,0,1,8.94,7.85c.6,1.4,1.2,2.8,1.74,4.15.06.24.12.47.18.66l0,.16a20.85,20.85,0,0,1-2.09.18h0a22,22,0,0,1-10.36-2.26,27.7,27.7,0,0,1-9.07-7.7L899,515.5a21.58,21.58,0,0,1,2.92-.79A15.45,15.45,0,0,1,912.21,515.93Zm.58-11.73,0,0-.18.11c-.95-.56-1.89-1.16-2.8-1.8a33.91,33.91,0,0,1-9-9.19l0,0a31.63,31.63,0,0,1-5.36-11.62c-.34-1.36-.57-2.58-.73-3.53.84.37,1.9.89,3.09,1.56a33.89,33.89,0,0,1,10.17,8.65A32.06,32.06,0,0,1,912.45,501C912.61,502.08,912.73,503.15,912.79,504.19ZM881.25,724.4c-.18,5.77-3.28,10.93-6.29,15.21l-.27.39c-1.48,1.37-3,2.75-4.57,4.1a30.64,30.64,0,0,1-1.54-3.3,28.76,28.76,0,0,1-2-14.06,28.16,28.16,0,0,1,2.18-7.65l.68-1.64a49.25,49.25,0,0,1,2.37-5.22,45.82,45.82,0,0,1,3.06-5A27.08,27.08,0,0,1,877.7,711,22,22,0,0,1,881.25,724.4Zm-43.41,23.5a29.47,29.47,0,0,1,3.79-7.35,61.19,61.19,0,0,1,4.46-6.32,47.31,47.31,0,0,1,4.19-4.46,28.42,28.42,0,0,1,2.18,4.45,22.83,22.83,0,0,1,.86,14.38c-1.45,6.11-6.14,11-9.55,14.22-.75.7-1.56,1.42-2.33,2.07q-1.72,1-3.46,2a32,32,0,0,1-1-4.24h0A30.31,30.31,0,0,1,837.84,747.9Zm-34.49,39.91,1-.17c1.35-.33,3.85-.95,6.77-1.41h0a68.3,68.3,0,0,1,19.16-.22,30.56,30.56,0,0,1,14.53,6.9,28.23,28.23,0,0,1,3.67,3.75,85.26,85.26,0,0,1-8.66,3l-1.16.31a39.37,39.37,0,0,1-8.83,1.62,38.08,38.08,0,0,1-10.56-.86,22.93,22.93,0,0,1-13.17-8.48A27.26,27.26,0,0,1,803.35,787.81Zm5.22-8.63a61.47,61.47,0,0,1-5.86,3.2l-.89.32a30.52,30.52,0,0,1-.22-5.24,33.19,33.19,0,0,1,4-14.8,30.1,30.1,0,0,1,5.3-6.66c.64-.61,1.27-1.23,1.9-1.85a44.39,44.39,0,0,1,4-3.62,46.69,46.69,0,0,1,5.17-3.66,29.6,29.6,0,0,1,1.34,5.05,23.54,23.54,0,0,1-2.06,14.81C818.71,772.25,813.65,776,808.57,779.18Zm32-8.39.8-.41c1.34-.66,3.49-1.65,6.1-2.63h0a67,67,0,0,1,18-3.92,29,29,0,0,1,15,3.74,27.43,27.43,0,0,1,4.11,2.79,80.16,80.16,0,0,1-7.5,4.42,50.22,50.22,0,0,1-8.9,3.73A37.44,37.44,0,0,1,858,779.71a22.59,22.59,0,0,1-14-5.36A24.59,24.59,0,0,1,840.52,770.79Zm69.82-33.9a26.54,26.54,0,0,1,4.33,1.81,77.52,77.52,0,0,1-6.1,5.5l-.57.45a39.83,39.83,0,0,1-7.12,4.76,35.5,35.5,0,0,1-9.24,3,21.83,21.83,0,0,1-14.22-2.36,23.5,23.5,0,0,1-3.89-2.63,64.09,64.09,0,0,1,5.87-4.13h0a62.85,62.85,0,0,1,16.19-7.11A27.72,27.72,0,0,1,910.35,736.89Zm5.08-56.8h0A25.6,25.6,0,0,1,908.7,669a30.34,30.34,0,0,1-.93-6.82l0-.58a39.18,39.18,0,0,1,.09-6.88,42.35,42.35,0,0,1,.84-5.27,24.82,24.82,0,0,1,3.6,2.08,20,20,0,0,1,7.71,10,26.78,26.78,0,0,1,1.34,7.76,43.56,43.56,0,0,1-.89,6.71c-1,2.16-1.87,4.14-2.79,6A27.13,27.13,0,0,1,915.43,680.09Zm-12,23a45.15,45.15,0,0,1-2.35,6.82c-1.33,1.87-2.7,3.72-4.07,5.52a28.4,28.4,0,0,1-1.88-2.53,25.51,25.51,0,0,1-4-20.48,50.63,50.63,0,0,1,1.51-7,43.86,43.86,0,0,1,1.93-5.24,26.12,26.12,0,0,1,3.32,2.92,21,21,0,0,1,5.86,11.84A21.72,21.72,0,0,1,903.46,703.13ZM932.52,702a25.31,25.31,0,0,1,4.33.86,73,73,0,0,1-4.63,6.24,49,49,0,0,1-6.16,6.36A34,34,0,0,1,918,720.1a21.07,21.07,0,0,1-13.82.54,22.88,22.88,0,0,1-4.09-1.67,61.48,61.48,0,0,1,4.65-4.95,54.57,54.57,0,0,1,6.32-5.18c.64-.42,1.27-.85,1.89-1.28l.1-.07a32,32,0,0,1,5.5-3.29A26.62,26.62,0,0,1,932.52,702ZM921.9,684.42a59.68,59.68,0,0,1,3.4-5.44,52.88,52.88,0,0,1,5.06-6.17,32.63,32.63,0,0,1,5.93-5.72,25.6,25.6,0,0,1,12.75-4.67,24.45,24.45,0,0,1,4.14,0A71.19,71.19,0,0,1,950,669a54.65,54.65,0,0,1-4.6,7.17,27.81,27.81,0,0,1-6.57,5.81,20.56,20.56,0,0,1-12.9,3.17A22.17,22.17,0,0,1,921.9,684.42Zm6.63-40.73h0a23.69,23.69,0,0,1-8.3-9,41.9,41.9,0,0,1-3.63-13.36,41.18,41.18,0,0,1-.16-5.08,23.66,23.66,0,0,1,3.68,1.25,19,19,0,0,1,9,7.91A25.87,25.87,0,0,1,932.44,639c-.42,2-.9,4-1.42,6.15A25.61,25.61,0,0,1,928.53,643.68Zm-164,152c1.19.1,2.61.11,4.25.12l3.15,0a62.47,62.47,0,0,1,9.53,1.06h0a49.72,49.72,0,0,1,5.16,1.27,36,36,0,0,1,4.86,1.47,31.48,31.48,0,0,1,13.36,10,29.28,29.28,0,0,1,3,4.63,89,89,0,0,1-9.64,1.32,42.09,42.09,0,0,1-21.1-3.24,23.82,23.82,0,0,1-7.44-5.29,26.81,26.81,0,0,1-4.17-6.25,27.81,27.81,0,0,1-1.89-5.16Zm6.24-7.74a28.68,28.68,0,0,1-6.64,1.84l-1,.15a32.55,32.55,0,0,1,.9-5.44,33,33,0,0,1,2.51-6.76,32.13,32.13,0,0,1,4.75-7.31c3.35-3.88,7.66-6.37,11.47-8.58.83-.48,1.64-.95,2.33-1.37a48.29,48.29,0,0,1,6-2.69,30.58,30.58,0,0,1,.33,5.48A24.45,24.45,0,0,1,786.32,778a28.85,28.85,0,0,1-3.23,3.48,35.62,35.62,0,0,1-4,2.66A53.42,53.42,0,0,1,770.78,788Zm-182.5-34.22a35.51,35.51,0,0,1-9.24-3,39.87,39.87,0,0,1-7.13-4.76l-.56-.44a77.71,77.71,0,0,1-6.11-5.51,26.46,26.46,0,0,1,4.33-1.81,27.73,27.73,0,0,1,14.74-.68,62.86,62.86,0,0,1,16.21,7.12,64,64,0,0,1,5.87,4.13,23.43,23.43,0,0,1-3.89,2.63A21.82,21.82,0,0,1,588.28,753.77Zm1.07-53.34a27.41,27.41,0,0,1-4.58,12.8,29.18,29.18,0,0,1-2,2.71c-1.31-1.69-2.45-3.21-3.43-4.55l-.24-.52h0a45.88,45.88,0,0,1-2.61-7.45,21.7,21.7,0,0,1-.33-8.16A21,21,0,0,1,582,683.41a26.13,26.13,0,0,1,3.32-2.92,43.6,43.6,0,0,1,1.93,5.24,50.91,50.91,0,0,1,1.52,7.05A27.34,27.34,0,0,1,589.35,700.43ZM562,682.57q-1-2.15-2.14-4.54c-.08-.32-.15-.64-.23-1a44.4,44.4,0,0,1-1-7.43,26.83,26.83,0,0,1,1.34-7.8,20,20,0,0,1,7.71-10,24.8,24.8,0,0,1,3.6-2.08,42.54,42.54,0,0,1,.84,5.27,39.2,39.2,0,0,1,.09,6.89l0,.57a30.4,30.4,0,0,1-.93,6.83,25.61,25.61,0,0,1-6.73,11.07A27.42,27.42,0,0,1,562,682.57Zm-13.5-37c-.32-1.29-.64-2.58-.92-3.81,0-.58-.06-1.19-.08-1.83v0a26,26,0,0,1,3.25-14.2,19,19,0,0,1,9-7.91,23.67,23.67,0,0,1,3.68-1.26A40.47,40.47,0,0,1,559.69,635a23.71,23.71,0,0,1-8.31,9A25.55,25.55,0,0,1,548.51,645.6Zm9.5,39.12a22.22,22.22,0,0,1-4.08.73A20.52,20.52,0,0,1,541,682.29a27.82,27.82,0,0,1-6.57-5.8,54.8,54.8,0,0,1-4.61-7.18,71.41,71.41,0,0,1-3.14-6.6,24.51,24.51,0,0,1,4.14,0,25.6,25.6,0,0,1,12.75,4.67,32.81,32.81,0,0,1,6,5.74,52.73,52.73,0,0,1,5,6.14A59.69,59.69,0,0,1,558,684.72Zm2.36,19.79a32.31,32.31,0,0,1,5.54,3.32c.64.44,1.29.89,1.94,1.31a54.48,54.48,0,0,1,6.32,5.19,61.54,61.54,0,0,1,4.66,4.95,22.87,22.87,0,0,1-4.09,1.67,21.07,21.07,0,0,1-13.82-.54,34,34,0,0,1-8.07-4.6,49,49,0,0,1-6.18-6.37,73.14,73.14,0,0,1-4.64-6.24,25.31,25.31,0,0,1,4.33-.86A26.61,26.61,0,0,1,560.37,704.51ZM678.1,783l-.85-.3a60.74,60.74,0,0,1-5.9-3.22c-5.09-3.21-10.15-6.93-12.69-12.45h0a23.53,23.53,0,0,1-2.06-14.79,29.68,29.68,0,0,1,1.34-5.06,46.89,46.89,0,0,1,5.18,3.67,44.7,44.7,0,0,1,3.95,3.61c.62.62,1.26,1.24,1.9,1.85a30.07,30.07,0,0,1,5.31,6.66,33.18,33.18,0,0,1,4,14.8A30.5,30.5,0,0,1,678.1,783Zm-51.51-34.12a22.82,22.82,0,0,1,.87-14.36,28.38,28.38,0,0,1,2.18-4.45,47.4,47.4,0,0,1,4.19,4.47,61.48,61.48,0,0,1,4.46,6.33,29.4,29.4,0,0,1,3.78,7.33A30.33,30.33,0,0,1,643,763a31.93,31.93,0,0,1-1,4.23c-1.16-.66-2.31-1.32-3.39-2-.85-.71-1.65-1.42-2.39-2.12h0C632.74,759.94,628,755,626.59,748.88Zm-24.38-37.59a27.14,27.14,0,0,1,2.84-3.73,45.89,45.89,0,0,1,3.07,5,49.66,49.66,0,0,1,2.36,5.21l.68,1.65a28.13,28.13,0,0,1,2.17,7.64,28.78,28.78,0,0,1-2,14.06,30.86,30.86,0,0,1-1.6,3.4c-1.34-1.16-2.7-2.37-4.08-3.63l-.71-1c-3-4.29-6.12-9.45-6.29-15.23A22,22,0,0,1,602.21,711.29Zm37.18,60.83a24.64,24.64,0,0,1-3.44,3.56,22.59,22.59,0,0,1-14,5.36,37.45,37.45,0,0,1-10.1-1.19,50.1,50.1,0,0,1-8.92-3.74,80.18,80.18,0,0,1-7.5-4.42,27.4,27.4,0,0,1,4.11-2.79,28.94,28.94,0,0,1,14.95-3.74,67,67,0,0,1,18,3.93c2.61,1,4.76,2,6.09,2.62Zm29.41,14.41c2.92.46,5.42,1.07,6.83,1.42l.94.16a27.21,27.21,0,0,1-2.76,4.43h0A22.93,22.93,0,0,1,660.64,801a38,38,0,0,1-10.56.86,39.41,39.41,0,0,1-8.83-1.62l-1.14-.3a85.27,85.27,0,0,1-8.66-3,28.27,28.27,0,0,1,3.67-3.75,30.55,30.55,0,0,1,14.51-6.89A68.46,68.46,0,0,1,668.8,786.53Zm32-2.14a35.83,35.83,0,0,1-3.92-2.63,28.6,28.6,0,0,1-3.26-3.5,24.45,24.45,0,0,1-5.11-14.63,30.73,30.73,0,0,1,.33-5.49,48.18,48.18,0,0,1,6,2.67c.72.43,1.52.9,2.35,1.38,3.81,2.2,8.12,4.7,11.47,8.58a32.06,32.06,0,0,1,4.75,7.32,32.86,32.86,0,0,1,2.5,6.75,32.2,32.2,0,0,1,.9,5.44l-1-.15a28.69,28.69,0,0,1-6.62-1.84A53.45,53.45,0,0,1,700.77,784.39ZM708,796.2l3.16,0c1.64,0,3.05,0,4.22-.12l1,0a27.73,27.73,0,0,1-1.89,5.16,26.77,26.77,0,0,1-4.17,6.25,23.83,23.83,0,0,1-7.44,5.29,42.15,42.15,0,0,1-21.12,3.24,89,89,0,0,1-9.62-1.32,29.3,29.3,0,0,1,3-4.63,31.48,31.48,0,0,1,13.36-10,36.23,36.23,0,0,1,4.89-1.47,49.17,49.17,0,0,1,5.13-1.27A62.33,62.33,0,0,1,708,796.2ZM542.8,603.34c.08-.7.19-1.45.32-2.26a22.71,22.71,0,0,1,2-6.49h0a24.73,24.73,0,0,1,3.82-6.17,17.81,17.81,0,0,1,9.86-5.69,23.92,23.92,0,0,1,3.59-.47l0,.14a40.52,40.52,0,0,1-1,4.54,34.23,34.23,0,0,1-6,11.79,22,22,0,0,1-9.41,6.83,23.75,23.75,0,0,1-3,1C542.87,605.46,542.83,604.38,542.8,603.34Zm0-40.69c-.24,1.27-.47,2.55-.67,3.8a20.34,20.34,0,0,1-2.42-1.2,18.17,18.17,0,0,1-7.73-8.62c-1.78-4.65-1.77-10.5-1.45-14.58a41.13,41.13,0,0,1,.74-5.51l.11-.39a20.24,20.24,0,0,1,2.74,1.91,23.44,23.44,0,0,1,6.89,9.52c1.39,3.62,2,8.11,1.76,13.76C542.76,561.84,542.77,562.3,542.79,562.66Zm-3.3,43.19c0,.32,0,.62-.05.89a20.73,20.73,0,0,1-3.31-.82,19.41,19.41,0,0,1-9.81-7.27c-2.9-4.18-3.94-9.8-4.58-14.75-.22-2-.35-4-.39-6,0-.14,0-.28,0-.42a21.07,21.07,0,0,1,3.29,1.42,23.65,23.65,0,0,1,9.17,8.4,29.26,29.26,0,0,1,3.05,6.88c.41,1.38.74,2.77,1.06,4.12l0,.15c.23,1,.46,1.9.7,2.77C539,602.75,539.27,604.3,539.49,605.84Zm-15.92,15.21a24.64,24.64,0,0,1,11.11,6.76c3.12,3.34,5.21,7.63,7.06,11.42.31.64.62,1.26.91,1.85a56.11,56.11,0,0,1,2.14,5.59,21.7,21.7,0,0,1-3.87-.12,20,20,0,0,1-11.55-5.44c-4.08-3.61-6.13-9-7.88-14.23a66.81,66.81,0,0,1-1.71-6.61A23.78,23.78,0,0,1,523.56,621.05Zm22.16-54c0-.68.08-1.38.1-2l.14-.79c.21-.67.45-1.38.73-2.12,1.22-2.65,3.87-7.54,8-10.71A16.52,16.52,0,0,1,564.94,548h0a23.18,23.18,0,0,1,3.29.22c-.16.35-.31.72-.5,1.17-.37.88-.79,1.88-1.35,2.94a29.49,29.49,0,0,1-7.83,9.88,21.27,21.27,0,0,1-10.09,4.58A22.57,22.57,0,0,1,545.72,567.08ZM578,515a21.58,21.58,0,0,1,2.92.79l-2.54,3.45a27.71,27.71,0,0,1-9.07,7.71,22.11,22.11,0,0,1-10.37,2.27,20.84,20.84,0,0,1-2.09-.18l0-.14c.17-.55.31-1.23.47-2,.09-.42.19-.87.3-1.34.17-.26.36-.51.59-.78,2.13-2.83,5.52-6.61,9.51-8.58h0A15.45,15.45,0,0,1,578,515Zm-26.47,11.26a15.89,15.89,0,0,1-5.39-9.36c-.8-4.73.3-10.16,1.35-13.89a27.37,27.37,0,0,1,1.87-5.16,19.21,19.21,0,0,1,2.12,2.23A22.47,22.47,0,0,1,556,510.21a30.4,30.4,0,0,1-.5,11.13c-.83,1.9-1.66,3.91-2.54,6.14A19.07,19.07,0,0,1,551.49,526.27Zm15.62-21.51c0-.92.15-2.1.36-3.45A32,32,0,0,1,572,488.69,33.9,33.9,0,0,1,582.2,480c1.18-.67,2.25-1.19,3.08-1.56-.15.95-.39,2.17-.73,3.53a31.68,31.68,0,0,1-5.38,11.65,33.9,33.9,0,0,1-9,9.19C569,503.62,567.94,504.27,567.11,504.75Z" transform="translate(-252.69 -388.98)"/><polygon class="cls-3" points="350.63 205.06 353.58 205.09 353.79 188.79 350.85 188.75 350.76 195.33 329.87 195.06 329.83 198.18 350.72 198.46 350.63 205.06"/><polygon class="cls-3" points="333.89 217.71 341.49 216.6 342.7 224.86 345.58 224.44 344.37 216.18 351.67 215.11 352.98 224.04 355.89 223.61 354.13 211.59 330.54 215.05 332.38 227.57 335.27 227.15 333.89 217.71"/><path class="cls-3" d="M615.06,636.2,614,632.73l-9.65-2.39-.85-.19h-.06c.22-.21.42-.42.61-.64l6.7-7.34-1.11-3.59L600.44,629l-13.76-3.9,1.12,3.63,10.2,2.65.63.14-.44.46-7,7.81,1.11,3.6,9.31-10.66Z" transform="translate(-252.69 -388.98)"/><polygon class="cls-3" points="368.86 267.33 371.49 266.01 364.17 251.44 361.54 252.76 364.5 258.65 345.82 268.03 347.22 270.82 365.9 261.44 368.86 267.33"/><rect class="cls-3" x="607.02" y="667.06" width="23.84" height="3.12" transform="translate(-520.17 68.95) rotate(-33.84)"/><polygon class="cls-3" points="384.38 284.02 382.35 281.65 364.25 297.17 372.26 306.51 374.48 304.61 368.5 297.63 384.38 284.02"/><polygon class="cls-3" points="395.61 299.97 402.43 305.89 404.36 303.67 395.19 295.7 379.55 313.7 389.1 322 391.02 319.79 383.83 313.54 388.86 307.74 395.17 313.22 397.08 311.02 390.77 305.54 395.61 299.97"/><path class="cls-3" d="M669.77,700.92h0a10.3,10.3,0,0,0-2.79-1.25,8,8,0,0,0-2.8-.27,6.31,6.31,0,0,0-2.55.79,5.69,5.69,0,0,0-2,2,6.3,6.3,0,0,0-.85,2,5.43,5.43,0,0,0,0,2.06,9.72,9.72,0,0,0,.7,2.25c.34.79.8,1.68,1.34,2.65s.89,1.65,1.23,2.32a9.36,9.36,0,0,1,.7,1.75,3.45,3.45,0,0,1,.11,1.37,3.38,3.38,0,0,1-.52,1.31,2.94,2.94,0,0,1-2.26,1.52,5.86,5.86,0,0,1-3.51-1.16,8.2,8.2,0,0,1-1.06-.8,9.77,9.77,0,0,1-1.84-2.2A7.56,7.56,0,0,1,653,714l-.35-.94-2,3.18.12.25a5.64,5.64,0,0,0,.75,1.13,14.81,14.81,0,0,0,1.06,1.15c.39.38.78.74,1.18,1.06a11.87,11.87,0,0,0,4,2.16,7.94,7.94,0,0,0,2.3.36l.51,0a5.66,5.66,0,0,0,2.55-.83,6.43,6.43,0,0,0,2-2.09,5.78,5.78,0,0,0,.82-2,6.11,6.11,0,0,0,0-2.16,10.37,10.37,0,0,0-.73-2.34,28.35,28.35,0,0,0-1.35-2.64q-.76-1.34-1.26-2.32a7.59,7.59,0,0,1-.64-1.67,3.18,3.18,0,0,1-.06-1.28,3.57,3.57,0,0,1,.53-1.26,2.86,2.86,0,0,1,1-1,3,3,0,0,1,1.32-.37,4.5,4.5,0,0,1,1.55.21,6.8,6.8,0,0,1,1.63.76,8.94,8.94,0,0,1,3.22,3.33l.4.76,1.89-3-.19-.27A12.45,12.45,0,0,0,669.77,700.92Z" transform="translate(-252.69 -388.98)"/><path class="cls-3" d="M703.65,715.9a12.28,12.28,0,0,0-5-.52,11.19,11.19,0,0,0-4.42,1.47,12,12,0,0,0-3.49,3.17,14.73,14.73,0,0,0-2.27,4.54,13.83,13.83,0,0,0-.64,4.75,11.08,11.08,0,0,0,1,4.26,10.35,10.35,0,0,0,2.66,3.42,11.55,11.55,0,0,0,4.13,2.2,15.56,15.56,0,0,0,4.58.73,12.68,12.68,0,0,0,1.78-.12l.31,0,1-3.09-.83.17a11.36,11.36,0,0,1-5.71-.37,8.33,8.33,0,0,1-3.2-1.73,7.38,7.38,0,0,1-1.87-2.6,8.48,8.48,0,0,1-.64-3.21,11.7,11.7,0,0,1,.54-3.57,12.25,12.25,0,0,1,1.71-3.55,9,9,0,0,1,2.53-2.41,7.71,7.71,0,0,1,3.19-1.11,9.18,9.18,0,0,1,3.78.41,11.14,11.14,0,0,1,4.46,2.6l.59.56,1-3.26-.27-.21A14.84,14.84,0,0,0,703.65,715.9Z" transform="translate(-252.69 -388.98)"/><path class="cls-3" d="M733.58,724.42a10.07,10.07,0,0,0-3.17-2.88,11,11,0,0,0-4.44-1.39,12.27,12.27,0,0,0-5,.4,10.3,10.3,0,0,0-3.91,2.19,11.24,11.24,0,0,0-2.67,3.72,16,16,0,0,0-1.3,4.95,14.12,14.12,0,0,0,.27,4.75,11.5,11.5,0,0,0,1.8,4,10.39,10.39,0,0,0,3.23,2.94,11.16,11.16,0,0,0,4.53,1.43,14,14,0,0,0,1.48.08,10.84,10.84,0,0,0,3.45-.53,10.22,10.22,0,0,0,3.83-2.29,11.61,11.61,0,0,0,2.6-3.77,16.34,16.34,0,0,0,1.25-4.86,14.46,14.46,0,0,0-.25-4.79A11.27,11.27,0,0,0,733.58,724.42Zm-1.22,8.78a13.18,13.18,0,0,1-.93,3.74,8.43,8.43,0,0,1-1.85,2.78,7,7,0,0,1-2.71,1.64,8.55,8.55,0,0,1-3.6.32,7.66,7.66,0,0,1-3.4-1.12,7.2,7.2,0,0,1-2.24-2.28,9,9,0,0,1-1.16-3.11,12.37,12.37,0,0,1-.1-3.61,12.72,12.72,0,0,1,.95-3.62,8.88,8.88,0,0,1,1.88-2.8,7.56,7.56,0,0,1,2.73-1.72,7.29,7.29,0,0,1,2.52-.42,9.47,9.47,0,0,1,1,.05,8.11,8.11,0,0,1,3.51,1.11,6.88,6.88,0,0,1,2.22,2.24,8.53,8.53,0,0,1,1.11,3.11A14.13,14.13,0,0,1,732.36,733.2Z" transform="translate(-252.69 -388.98)"/><path class="cls-3" d="M759.4,719.94l1.74,17.39q0,.44.09.83L747,721.4l-.17-.2-3.09.31,2.38,23.72,3.1-.31-1.81-18.11,0-.26,14.55,17.09,2.95-.3-2.38-23.72Z" transform="translate(-252.69 -388.98)"/><polygon class="cls-3" points="544.23 319.66 548.18 329.11 537.6 333.54 533.65 324.09 530.77 325.3 539.97 347.29 542.85 346.08 538.73 336.23 549.3 331.8 553.43 341.66 556.31 340.45 547.1 318.46 544.23 319.66"/><polygon class="cls-3" points="568.47 330.15 564.32 323.69 571.35 319.18 569.78 316.73 562.75 321.24 558.76 315.03 566.36 310.15 564.77 307.68 554.55 314.24 567.43 334.3 578.08 327.46 576.5 325 568.47 330.15"/><path class="cls-3" d="M842.11,695.25h0a9.73,9.73,0,0,0-1.25-.27,5.43,5.43,0,0,0-1.12-.06,7.87,7.87,0,0,0,.55-1.26,6.76,6.76,0,0,0,.36-2.26,6.24,6.24,0,0,0-.47-2.22,7.06,7.06,0,0,0-1.31-2.05,6.31,6.31,0,0,0-2.36-1.71,6,6,0,0,0-2.59-.43,7.19,7.19,0,0,0-2.53.63,8.74,8.74,0,0,0-2.24,1.46l-5.28,4.73,15.92,17.75,2.32-2.08-6.64-7.4,1.5-1.35a4.23,4.23,0,0,1,1-.67,2.79,2.79,0,0,1,1-.27,4.65,4.65,0,0,1,1.29.11,12.52,12.52,0,0,1,1.75.53l7.22,2.68,2.7-2.42-8.37-3Q842.76,695.43,842.11,695.25Zm-4.37-2.68a4.2,4.2,0,0,1-.52,1.61A5.9,5.9,0,0,1,836,695.7l-2.45,2.2-5.36-6,2.58-2.32a5,5,0,0,1,3.19-1.5h0a3.47,3.47,0,0,1,2.65,1.31,4.5,4.5,0,0,1,.94,1.55A3.83,3.83,0,0,1,837.74,692.57Z" transform="translate(-252.69 -388.98)"/><polygon class="cls-3" points="605.67 297.94 599.7 293.1 604.96 286.61 602.69 284.78 597.43 291.27 591.7 286.63 597.38 279.61 595.09 277.76 587.45 287.2 605.98 302.2 613.94 292.37 611.67 290.53 605.67 297.94"/><path class="cls-3" d="M860,646.56l15.3,8.44.74.39-22.13,2.21-1.5,2.72,20.88,11.52,1.51-2.73-15.93-8.79-.23-.12L881,657.93l1.43-2.59-20.87-11.52Z" transform="translate(-252.69 -388.98)"/><path class="cls-3" d="M891.46,627.48l-3.08-1,.16.83a11.34,11.34,0,0,1-.45,5.7,8.34,8.34,0,0,1-1.78,3.17,7.37,7.37,0,0,1-2.63,1.83,8.6,8.6,0,0,1-3.22.59,11.7,11.7,0,0,1-3.56-.59,12.27,12.27,0,0,1-3.52-1.77,9,9,0,0,1-2.37-2.56,7.7,7.7,0,0,1-1.06-3.21,9.15,9.15,0,0,1,.46-3.78,11.12,11.12,0,0,1,2.66-4.42l.57-.58-3.25-1.05-.22.27a14.85,14.85,0,0,0-2.54,4.85,12.25,12.25,0,0,0-.6,5,11.2,11.2,0,0,0,1.41,4.45,12,12,0,0,0,3.12,3.54,14.75,14.75,0,0,0,4.5,2.34,14,14,0,0,0,4.32.71h.42a11.08,11.08,0,0,0,4.28-1,10.33,10.33,0,0,0,3.46-2.6,11.55,11.55,0,0,0,2.27-4.1,14.64,14.64,0,0,0,.7-6.35Z" transform="translate(-252.69 -388.98)"/><rect class="cls-3" x="881.63" y="601.37" width="3.12" height="23.84" transform="translate(-128.11 986.33) rotate(-79.9)"/><path class="cls-3" d="M873.36,594.35l23.49,10,.13-3.43-6.66-2.71.34-9.1,6.84-2.27.13-3.43-24.16,8.14Zm14.33-4.29-.26,6.94-9.35-3.81h0Z" transform="translate(-252.69 -388.98)"/></svg>